{"glyphs":{"0":{"ha":625,"x_min":47,"x_max":578,"o":"m 308 -14 q 169 44 228 -14 q 79 199 111 101 q 47 408 47 297 q 85 644 47 546 q 185 795 124 743 q 314 847 246 847 q 414 820 371 847 q 483 757 457 793 q 578 421 578 632 q 551 215 578 299 q 483 81 525 132 q 395 8 442 31 q 308 -14 349 -14 m 314 799 q 266 783 292 799 q 217 724 240 767 q 181 601 194 681 q 167 393 167 521 q 171 287 167 347 q 190 169 175 226 q 233 73 204 111 q 311 35 263 35 q 347 42 324 35 q 394 77 369 50 q 433 161 418 104 q 453 283 449 214 q 458 447 458 351 q 434 668 458 588 q 378 775 410 749 q 314 799 351 799 z "},"1":{"ha":581,"x_min":89,"x_max":492,"o":"m 364 169 q 374 85 364 113 q 411 51 385 58 q 486 43 438 43 q 492 19 492 35 q 486 0 492 8 l 122 0 q 117 19 117 8 q 122 43 117 35 q 201 51 171 43 q 244 85 231 58 q 258 169 258 113 l 258 622 q 253 681 258 658 q 231 703 247 703 q 183 695 210 703 q 108 668 157 688 q 96 685 100 675 q 89 706 92 694 q 242 779 181 749 q 361 844 303 810 q 369 838 369 844 q 366 769 368 824 q 364 651 364 714 l 364 169 z "},"2":{"ha":625,"x_min":63,"x_max":563,"o":"m 75 650 q 106 738 75 692 q 192 815 136 783 q 325 847 249 847 q 435 826 382 847 q 524 758 489 804 q 560 636 560 711 q 520 503 560 557 q 421 393 481 450 l 281 258 q 262 239 278 256 q 226 197 246 222 q 192 143 207 171 q 178 90 178 115 l 425 90 q 483 120 463 90 q 522 224 504 150 q 563 217 549 229 q 558 159 563 196 q 546 80 553 122 q 529 0 539 38 l 63 0 q 74 80 63 42 q 119 167 85 118 q 221 285 153 215 l 324 386 q 411 506 385 449 q 438 631 438 564 q 418 734 438 697 q 370 785 399 771 q 317 799 342 799 q 210 769 240 799 q 179 714 179 740 q 184 697 179 706 q 190 681 189 688 q 194 667 193 674 q 196 651 196 660 q 172 614 196 629 q 131 599 149 599 q 92 613 108 599 q 75 650 75 628 z "},"3":{"ha":625,"x_min":61,"x_max":574,"o":"m 299 799 q 249 791 281 799 q 192 760 218 783 q 167 693 167 738 q 163 663 167 681 q 149 633 160 646 q 113 621 138 621 q 76 638 88 621 q 65 668 65 654 q 78 715 65 685 q 120 775 90 744 q 201 826 150 806 q 328 847 251 847 q 419 832 382 847 q 479 793 457 817 q 513 741 504 767 q 522 683 522 715 q 492 583 522 628 q 376 499 463 539 l 378 496 q 465 466 419 489 q 542 398 510 443 q 574 276 574 353 q 530 119 574 185 q 415 20 486 54 q 261 -14 344 -14 q 173 -2 219 -14 q 94 31 126 10 q 61 79 61 51 q 79 112 61 96 q 119 128 97 128 q 155 117 140 128 q 179 92 169 107 q 209 54 192 74 q 279 35 226 35 q 326 44 297 35 q 383 76 354 53 q 432 144 413 100 q 451 257 451 188 q 422 374 451 336 q 351 424 393 413 q 269 436 310 436 q 238 436 256 436 q 203 433 221 436 l 196 478 q 314 521 265 488 q 388 597 363 554 q 414 674 414 639 q 378 769 414 740 q 299 799 343 799 z "},"4":{"ha":625,"x_min":22,"x_max":603,"o":"m 581 304 q 603 282 603 304 q 590 254 603 269 q 561 239 576 239 l 467 239 l 467 111 q 490 53 467 63 q 564 43 513 43 q 569 19 569 35 q 564 0 569 8 l 247 0 q 242 19 242 8 q 247 43 242 35 q 327 53 293 43 q 361 111 361 64 l 361 239 l 78 239 q 37 260 47 239 q 22 297 26 282 q 123 449 71 372 q 226 599 175 526 q 322 731 276 671 q 400 832 367 792 q 409 842 404 838 q 422 847 414 847 l 467 847 l 469 844 q 467 799 468 836 q 467 710 467 763 l 467 304 l 581 304 m 361 704 q 219 499 289 607 q 94 304 149 390 l 361 304 l 361 704 z "},"5":{"ha":625,"x_min":67,"x_max":558,"o":"m 435 263 q 388 425 435 376 q 274 474 342 474 q 194 467 236 474 q 97 440 153 461 l 144 840 q 218 835 181 838 q 294 833 256 833 q 406 838 350 833 q 522 849 463 843 l 532 843 l 510 749 q 364 740 425 740 q 277 744 314 740 q 201 753 240 749 l 174 521 q 229 535 193 528 q 310 543 265 543 q 443 507 388 543 q 528 413 499 471 q 558 288 558 356 q 521 132 558 200 q 417 25 483 64 q 264 -14 350 -14 q 178 0 225 -14 q 99 38 132 14 q 67 89 67 61 q 83 125 67 110 q 119 140 100 140 q 159 127 142 140 q 190 96 176 114 q 224 54 206 75 q 282 33 243 33 q 358 63 324 33 q 414 145 393 93 q 435 263 435 197 z "},"6":{"ha":625,"x_min":50,"x_max":575,"o":"m 189 476 q 258 499 221 492 q 322 507 296 507 q 472 475 417 507 q 551 392 528 443 q 575 281 575 340 q 560 185 575 236 q 515 88 546 133 q 435 15 483 43 q 317 -14 386 -14 q 231 -1 278 -14 q 144 49 185 13 q 76 151 103 85 q 50 322 50 217 q 83 494 50 404 q 181 658 117 583 q 309 772 239 726 q 483 849 379 818 q 500 813 500 839 q 347 723 408 778 q 247 604 285 668 q 189 476 208 540 m 178 426 q 169 369 172 396 q 167 318 167 342 q 190 138 167 200 q 251 55 213 76 q 333 33 289 33 q 421 88 383 33 q 458 256 458 142 q 451 316 458 282 q 426 383 444 350 q 376 437 408 415 q 292 458 343 458 q 243 454 275 458 q 178 426 211 450 z "},"7":{"ha":625,"x_min":53,"x_max":572,"o":"m 219 743 q 175 736 197 743 q 133 703 153 729 q 97 622 113 678 q 92 622 96 622 q 86 621 89 621 q 69 623 78 621 q 53 626 61 625 q 71 740 61 681 q 81 849 81 799 q 86 853 81 853 q 105 845 99 850 q 122 837 111 840 q 156 833 132 833 l 442 833 q 507 838 482 833 q 550 849 532 843 l 572 832 q 440 497 494 643 q 342 227 385 350 q 261 -14 300 104 l 167 -14 l 156 -8 q 306 346 226 150 q 467 743 386 542 l 219 743 z "},"8":{"ha":625,"x_min":53,"x_max":572,"o":"m 536 674 q 507 591 536 629 q 438 525 478 553 q 364 481 397 497 l 464 421 q 545 337 518 388 q 572 225 572 286 q 542 117 572 172 q 452 24 513 61 q 300 -14 392 -14 q 122 42 190 -14 q 53 203 53 97 q 72 288 53 243 q 133 369 92 332 q 244 446 188 415 l 211 468 q 118 553 147 508 q 89 656 89 597 q 118 753 89 710 q 199 822 147 796 q 322 847 251 847 q 481 798 425 847 q 536 674 536 749 m 314 799 q 219 765 251 799 q 186 682 186 731 q 203 615 186 650 q 283 536 219 579 l 328 510 q 372 548 346 524 q 419 605 399 572 q 439 675 439 638 q 411 761 439 724 q 314 799 383 799 m 303 35 q 374 47 335 35 q 441 93 413 58 q 469 197 469 128 q 442 295 469 247 q 350 382 415 343 l 283 421 q 194 339 224 382 q 156 260 165 296 q 147 203 147 224 q 174 103 147 140 q 236 51 200 67 q 303 35 272 35 z "},"9":{"ha":625,"x_min":50,"x_max":575,"o":"m 436 356 q 368 333 406 342 q 303 325 331 325 q 153 357 208 325 q 74 440 97 389 q 50 551 50 492 q 65 647 50 596 q 110 744 79 699 q 191 819 142 790 q 308 847 240 847 q 394 834 349 847 q 481 785 440 821 q 549 682 522 749 q 575 510 575 615 q 542 338 575 428 q 444 174 510 249 q 316 62 386 106 q 142 -14 246 18 q 125 19 125 -3 q 278 109 217 54 q 378 228 340 164 q 436 356 417 293 m 447 406 q 456 464 454 436 q 458 514 458 492 q 435 694 458 633 q 374 777 413 756 q 292 799 336 799 q 204 745 242 799 q 167 576 167 692 q 174 516 167 550 q 199 449 181 482 q 249 395 217 417 q 333 374 282 374 q 382 378 350 374 q 447 406 414 383 z "},"Æ":{"ha":1210,"x_min":-15,"x_max":1183,"o":"m 1142 232 l 1183 222 q 1133 0 1139 19 l 471 0 l 471 40 q 579 71 558 46 q 600 189 600 94 l 600 411 l 356 411 q 226 146 278 260 q 210 89 210 110 q 215 71 210 78 q 307 40 229 50 l 307 0 l -15 0 l -15 40 q 82 69 51 49 q 150 160 111 90 q 479 782 289 406 q 496 829 496 814 q 496 838 496 833 q 440 857 489 851 l 379 865 l 379 903 l 1100 903 q 1114 704 1104 800 l 1071 699 q 1025 814 1050 782 q 978 843 1008 835 q 879 851 947 851 l 772 851 q 733 844 740 851 q 726 807 726 838 l 726 467 l 844 467 q 960 483 936 467 q 997 572 983 500 l 1040 572 l 1040 300 l 997 300 q 960 394 983 376 q 844 411 936 411 l 726 411 l 726 183 q 733 103 726 128 q 760 67 740 78 q 899 51 786 51 q 1010 61 971 51 q 1071 99 1049 71 q 1142 232 1108 142 m 600 467 l 600 844 q 563 821 583 844 l 382 467 l 600 467 z "},"Á":{"ha":964,"x_min":26,"x_max":939,"o":"m 706 1050 l 703 1038 l 440 950 l 422 986 l 644 1132 q 681 1099 657 1129 q 706 1050 703 1068 m 939 0 l 588 0 l 588 40 q 668 64 653 49 q 675 83 675 71 q 667 119 675 99 q 594 322 649 176 l 303 322 l 243 150 q 231 92 231 113 q 238 68 231 75 q 331 40 253 49 l 331 0 l 26 0 l 26 40 q 122 74 96 50 q 182 183 147 96 l 469 910 l 518 924 l 786 183 q 844 71 819 94 q 939 40 869 47 l 939 0 m 574 385 l 456 729 l 451 729 l 325 385 l 574 385 z "},"Â":{"ha":964,"x_min":26,"x_max":939,"o":"m 690 985 l 668 950 q 497 1036 610 974 q 328 950 381 972 l 306 985 q 482 1138 431 1083 l 514 1138 q 690 985 565 1083 m 939 0 l 588 0 l 588 40 q 668 64 653 49 q 675 83 675 71 q 667 119 675 99 q 594 322 649 176 l 303 322 l 243 150 q 231 92 231 113 q 238 68 231 75 q 331 40 253 49 l 331 0 l 26 0 l 26 40 q 122 74 96 50 q 182 183 147 96 l 469 910 l 518 924 l 786 183 q 844 71 819 94 q 939 40 869 47 l 939 0 m 574 385 l 456 729 l 451 729 l 325 385 l 574 385 z "},"Ä":{"ha":964,"x_min":28,"x_max":939,"o":"m 628 1111 q 678 1090 657 1111 q 697 1038 697 1068 q 676 988 697 1008 q 626 967 656 967 q 576 989 597 967 q 556 1038 556 1010 q 576 1090 556 1068 q 628 1111 597 1111 m 358 1111 q 408 1090 388 1111 q 428 1038 428 1068 q 408 988 428 1008 q 357 967 388 967 q 307 988 328 967 q 286 1038 286 1008 q 307 1090 286 1068 q 358 1111 328 1111 m 939 0 l 588 0 l 588 40 q 667 64 651 49 q 674 85 674 71 q 667 119 674 99 q 594 322 649 176 l 304 322 q 246 150 271 229 q 233 90 233 113 q 239 68 233 75 q 332 40 254 49 l 332 0 l 28 0 l 28 40 q 124 74 97 50 q 185 183 150 96 l 471 910 l 518 924 l 786 183 q 844 71 819 94 q 939 40 869 47 l 939 0 m 574 385 l 456 729 l 453 729 l 326 385 l 574 385 z "},"Å":{"ha":964,"x_min":26,"x_max":938,"o":"m 494 1190 q 581 1158 543 1190 q 618 1072 618 1125 q 581 986 618 1019 q 493 953 543 953 q 407 986 443 953 q 369 1072 369 1019 q 407 1158 369 1125 q 494 1190 444 1190 m 493 1144 q 450 1125 467 1144 q 432 1072 432 1104 q 450 1018 432 1039 q 494 997 467 997 q 538 1018 521 997 q 554 1072 554 1039 q 538 1125 554 1104 q 493 1144 521 1144 m 938 0 l 586 0 l 586 40 q 667 64 651 49 q 674 85 674 71 q 667 119 674 99 l 594 322 l 303 322 l 243 150 q 231 92 231 113 q 238 68 231 75 q 331 40 253 49 l 331 0 l 26 0 l 26 40 q 122 74 96 50 q 182 183 147 96 l 469 910 l 517 924 l 785 183 q 843 71 817 94 q 938 40 869 47 l 938 0 m 572 385 l 454 729 l 451 729 l 325 385 l 572 385 z "},"Ã":{"ha":964,"x_min":26,"x_max":939,"o":"m 424 1097 q 510 1071 453 1097 q 588 1049 558 1049 q 653 1108 624 1049 l 689 1089 q 571 968 649 968 q 474 997 539 968 q 411 1017 435 1017 q 343 956 375 1017 l 308 981 q 424 1097 354 1097 m 939 0 l 588 0 l 588 40 q 668 64 653 49 q 675 83 675 71 q 667 119 675 99 q 594 322 649 176 l 303 322 l 243 150 q 231 92 231 113 q 238 68 231 75 q 331 40 253 49 l 331 0 l 26 0 l 26 40 q 122 74 96 50 q 182 183 147 96 l 469 910 l 518 924 l 786 183 q 844 71 819 94 q 939 40 869 47 l 939 0 m 574 385 l 456 729 l 451 729 l 325 385 l 574 385 z "},"Ð":{"ha":1029,"x_min":51,"x_max":968,"o":"m 74 903 l 463 903 q 849 783 725 903 q 968 486 968 668 q 794 115 968 247 q 388 0 642 0 l 63 0 l 63 40 q 172 71 151 47 q 192 190 192 93 l 192 443 l 51 443 l 51 503 l 192 503 l 192 713 q 174 833 192 810 q 74 863 154 856 l 74 903 m 322 443 l 322 185 q 347 82 322 110 q 453 54 371 54 q 724 169 629 54 q 817 465 817 285 q 667 796 817 696 q 444 854 585 854 q 339 839 361 854 q 322 779 322 829 l 322 503 l 536 503 l 536 443 l 322 443 z "},"Í":{"ha":482,"x_min":51,"x_max":442,"o":"m 442 1050 l 439 1038 l 176 950 l 158 986 l 381 1132 q 417 1099 393 1129 q 442 1050 439 1068 m 429 0 l 51 0 l 51 40 q 156 68 136 47 q 175 175 175 88 l 175 728 q 156 836 175 815 q 51 863 136 856 l 51 903 l 429 903 l 429 863 q 325 836 344 856 q 306 728 306 815 l 306 175 q 325 68 306 88 q 429 40 344 47 l 429 0 z "},"Î":{"ha":482,"x_min":49,"x_max":433,"o":"m 433 985 l 411 950 q 240 1036 353 974 q 71 950 124 972 l 49 985 q 225 1138 174 1083 l 257 1138 q 433 985 308 1083 m 429 0 l 51 0 l 51 40 q 156 68 136 47 q 175 175 175 88 l 175 728 q 156 836 175 815 q 51 863 136 856 l 51 903 l 429 903 l 429 863 q 325 836 344 856 q 306 728 306 815 l 306 175 q 325 68 306 88 q 429 40 344 47 l 429 0 z "},"Ì":{"ha":482,"x_min":47,"x_max":429,"o":"m 332 986 l 314 950 l 50 1038 l 47 1049 q 74 1099 51 1067 q 110 1135 96 1129 l 332 986 m 429 0 l 51 0 l 51 40 q 156 68 136 47 q 175 175 175 88 l 175 728 q 156 836 175 815 q 51 863 136 856 l 51 903 l 429 903 l 429 863 q 325 836 344 856 q 306 728 306 815 l 306 175 q 325 68 306 88 q 429 40 344 47 l 429 0 z "},"Œ":{"ha":1356,"x_min":63,"x_max":1328,"o":"m 1285 228 l 1328 221 q 1279 0 1306 101 l 850 0 q 707 -6 769 0 q 567 -15 606 -15 q 193 117 322 -15 q 63 440 63 249 q 214 786 63 654 q 594 918 364 917 q 640 917 617 918 q 689 914 663 915 q 729 910 714 911 q 857 903 806 903 l 1246 903 q 1258 704 1246 864 l 1215 699 q 1169 815 1196 781 q 1122 844 1156 836 q 1015 851 1089 851 l 915 851 q 876 846 883 851 q 869 808 869 839 l 869 496 l 1000 496 q 1108 513 1086 496 q 1143 597 1131 529 l 1186 597 l 1186 331 l 1143 331 q 1108 421 1129 404 q 1000 438 1086 438 l 869 438 l 869 188 q 903 68 869 89 q 1043 50 929 50 q 1156 60 1118 50 q 1215 94 1192 68 q 1285 228 1251 136 m 740 150 l 740 761 q 713 842 740 825 q 581 868 664 868 q 314 758 411 868 q 217 457 217 647 q 238 299 217 372 q 301 165 258 225 q 415 69 343 104 q 582 35 488 35 q 692 54 654 35 q 731 88 719 67 q 740 150 740 107 z "},"Ó":{"ha":1042,"x_min":60,"x_max":982,"o":"m 707 1060 l 704 1047 l 442 960 l 424 996 l 646 1142 q 682 1108 658 1139 q 707 1060 704 1078 m 532 924 q 850 794 717 924 q 982 463 982 665 q 847 111 982 243 q 515 -21 713 -21 q 192 113 322 -21 q 60 443 60 244 q 189 782 60 639 q 532 924 318 924 m 501 872 q 299 768 382 872 q 215 479 215 664 q 308 158 215 286 q 544 31 400 31 q 746 133 664 31 q 826 425 826 236 q 735 754 826 636 q 501 872 643 872 z "},"Ò":{"ha":1042,"x_min":60,"x_max":982,"o":"m 621 997 l 603 961 l 339 1049 l 336 1060 q 363 1110 340 1078 q 399 1146 385 1140 l 621 997 m 532 924 q 850 794 717 924 q 982 463 982 665 q 847 111 982 243 q 515 -21 713 -21 q 192 113 322 -21 q 60 443 60 244 q 189 782 60 639 q 532 924 318 924 m 501 872 q 299 768 382 872 q 215 479 215 664 q 308 158 215 286 q 544 31 400 31 q 746 133 664 31 q 826 425 826 236 q 735 754 826 636 q 501 872 643 872 z "},"Ø":{"ha":1046,"x_min":68,"x_max":990,"o":"m 883 936 l 815 832 q 943 672 894 767 q 990 465 990 576 q 856 114 990 247 q 519 -21 721 -21 q 281 47 388 -21 l 203 -64 l 164 -31 l 238 76 q 114 236 158 142 q 68 444 68 331 q 199 781 68 638 q 543 924 329 924 q 771 861 672 924 l 842 965 l 883 936 m 306 175 l 717 782 q 513 872 639 872 q 304 768 389 872 q 218 476 218 664 q 306 175 218 297 m 750 739 l 339 131 q 543 31 415 31 q 763 140 686 31 q 839 425 839 249 q 750 739 839 610 z "},"Õ":{"ha":1042,"x_min":60,"x_max":982,"o":"m 450 1110 q 536 1083 479 1110 q 614 1061 585 1061 q 678 1121 650 1061 l 714 1101 q 597 981 675 981 q 500 1010 565 981 q 438 1029 458 1029 q 369 968 401 1029 l 335 993 q 450 1110 381 1110 m 532 924 q 850 794 717 924 q 982 463 982 665 q 847 111 982 243 q 515 -21 713 -21 q 192 113 322 -21 q 60 443 60 244 q 189 782 60 639 q 532 924 318 924 m 501 872 q 299 768 382 872 q 215 479 215 664 q 308 158 215 286 q 544 31 400 31 q 746 133 664 31 q 826 425 826 236 q 735 754 826 636 q 501 872 643 872 z "},"Ú":{"ha":1021,"x_min":44,"x_max":996,"o":"m 726 1050 l 724 1038 l 461 950 l 443 986 l 665 1132 q 701 1099 678 1129 q 726 1050 724 1068 m 996 903 l 996 863 q 907 840 933 858 q 875 781 879 822 q 867 561 867 703 l 867 440 q 763 78 867 188 q 513 -19 669 -19 q 286 47 375 -19 q 165 378 165 142 l 165 721 q 147 835 165 813 q 44 863 128 856 l 44 903 l 415 903 l 415 863 q 315 836 333 857 q 296 721 296 814 l 296 408 q 361 150 296 240 q 550 60 425 60 q 807 450 807 60 l 807 561 q 796 785 807 715 q 763 842 790 825 q 663 863 735 857 l 663 903 l 996 903 z "},"Û":{"ha":1021,"x_min":44,"x_max":996,"o":"m 722 985 l 700 950 q 529 1036 642 974 q 360 950 413 972 l 338 985 q 514 1138 463 1083 l 546 1138 q 722 985 597 1083 m 996 903 l 996 863 q 907 840 933 858 q 875 781 879 822 q 867 561 867 703 l 867 440 q 763 78 867 188 q 513 -19 669 -19 q 286 47 375 -19 q 165 378 165 142 l 165 721 q 147 835 165 813 q 44 863 128 856 l 44 903 l 415 903 l 415 863 q 315 836 333 857 q 296 721 296 814 l 296 408 q 361 150 296 240 q 550 60 425 60 q 807 450 807 60 l 807 561 q 796 785 807 715 q 763 842 790 825 q 663 863 735 857 l 663 903 l 996 903 z "},"Ü":{"ha":1021,"x_min":44,"x_max":994,"o":"m 658 1113 l 661 1111 q 711 1090 690 1111 q 731 1038 731 1068 q 710 988 731 1008 q 660 967 689 967 q 610 989 631 967 q 589 1038 589 1010 q 610 1090 589 1068 q 658 1113 629 1111 m 392 1111 q 442 1090 421 1111 q 461 1038 461 1068 q 442 988 461 1008 q 390 967 421 967 q 340 988 361 967 q 319 1038 319 1008 q 340 1090 319 1068 q 392 1111 361 1111 m 994 903 l 994 863 q 907 840 933 858 q 875 781 879 822 q 867 561 867 703 l 867 440 q 763 78 867 188 q 511 -19 669 -19 q 286 47 375 -19 q 165 378 165 142 l 165 721 q 147 835 165 813 q 44 863 128 856 l 44 903 l 414 903 l 414 863 q 314 836 332 857 q 296 721 296 814 l 296 408 q 361 150 296 240 q 550 60 425 60 q 807 450 807 60 l 807 561 q 796 785 807 715 q 763 842 790 825 q 663 863 735 857 l 663 903 l 994 903 z "},"Ù":{"ha":1021,"x_min":44,"x_max":996,"o":"m 613 986 l 594 950 l 331 1038 l 328 1049 q 354 1099 332 1067 q 390 1135 376 1129 l 613 986 m 996 903 l 996 863 q 907 840 933 858 q 875 781 879 822 q 867 561 867 703 l 867 440 q 763 78 867 188 q 513 -19 669 -19 q 286 47 375 -19 q 165 378 165 142 l 165 721 q 147 835 165 813 q 44 863 128 856 l 44 903 l 415 903 l 415 863 q 315 836 333 857 q 296 721 296 814 l 296 408 q 361 150 296 240 q 550 60 425 60 q 807 450 807 60 l 807 561 q 796 785 807 715 q 763 842 790 825 q 663 863 735 857 l 663 903 l 996 903 z "},"Ý":{"ha":886,"x_min":22,"x_max":868,"o":"m 663 1050 l 660 1038 l 399 950 l 381 985 l 601 1132 q 638 1099 614 1129 q 663 1050 660 1068 m 868 903 l 868 863 q 771 835 799 854 q 703 751 743 815 q 529 453 614 611 q 507 364 507 408 l 507 176 q 529 68 507 88 q 644 40 550 47 l 644 0 l 242 0 l 242 40 q 356 68 335 47 q 376 176 376 89 l 376 356 q 350 438 376 389 l 175 744 q 108 838 133 817 q 22 863 83 857 l 22 903 l 365 903 l 365 863 q 285 838 296 854 q 281 825 281 832 q 296 786 281 810 q 478 461 297 785 q 639 772 597 678 q 654 822 654 804 q 650 839 654 832 q 558 863 636 854 l 558 903 l 868 903 z "},"á":{"ha":617,"x_min":51,"x_max":608,"o":"m 285 683 l 247 703 q 278 778 258 728 q 315 872 297 826 l 336 924 q 396 935 347 929 q 443 939 426 939 q 456 938 451 939 l 461 924 l 285 683 m 608 56 l 485 -17 q 417 11 444 -17 q 382 71 393 35 q 360 56 378 68 q 333 38 340 42 q 310 21 325 32 q 285 6 293 10 q 263 -4 275 1 q 240 -14 250 -11 q 222 -17 231 -17 q 100 36 149 -17 q 51 154 51 88 q 163 290 51 251 q 379 382 346 354 l 379 408 q 350 522 379 481 q 268 563 319 563 q 208 536 231 563 q 168 443 185 508 q 124 408 158 408 q 81 428 101 408 q 58 469 58 446 q 104 528 58 494 q 201 585 140 554 q 315 625 263 614 q 433 588 386 625 q 497 414 497 535 l 497 161 q 546 79 497 79 q 594 93 571 79 l 608 56 m 379 115 l 379 333 q 346 317 367 326 q 297 294 324 306 q 263 278 271 282 q 201 235 221 257 q 182 176 182 213 q 213 99 182 126 q 278 71 242 71 q 379 115 332 71 z "},"â":{"ha":617,"x_min":51,"x_max":608,"o":"m 453 706 l 418 681 q 293 814 369 724 q 168 681 217 724 l 133 706 q 275 935 207 808 l 313 935 q 453 706 376 813 m 608 56 l 485 -17 q 417 11 444 -17 q 382 71 393 35 q 360 56 378 68 q 333 38 340 42 q 310 21 325 32 q 285 6 293 10 q 263 -4 275 1 q 240 -14 250 -11 q 222 -17 231 -17 q 100 36 149 -17 q 51 154 51 88 q 163 290 51 251 q 379 382 346 354 l 379 408 q 350 522 379 481 q 268 563 319 563 q 208 536 231 563 q 168 443 185 508 q 124 408 158 408 q 81 428 101 408 q 58 469 58 446 q 104 528 58 494 q 201 585 140 554 q 315 625 263 614 q 433 588 386 625 q 497 414 497 535 l 497 161 q 546 79 497 79 q 594 93 571 79 l 608 56 m 379 115 l 379 333 q 346 317 367 326 q 297 294 324 306 q 263 278 271 282 q 201 235 221 257 q 182 176 182 213 q 213 99 182 126 q 278 71 242 71 q 379 115 332 71 z "},"ä":{"ha":617,"x_min":53,"x_max":610,"o":"m 172 742 q 124 764 144 742 q 101 814 101 785 q 124 865 101 844 q 174 886 144 886 q 224 865 203 886 q 244 814 244 844 q 224 764 244 785 q 172 742 203 742 m 415 742 q 367 764 388 742 q 344 814 344 785 q 367 865 344 844 q 417 886 388 886 q 467 865 446 886 q 486 814 486 844 q 465 764 486 785 q 415 742 444 742 m 610 56 l 486 -17 q 417 11 444 -17 q 383 71 396 32 q 222 -17 257 -17 q 101 35 149 -17 q 53 154 53 86 q 164 290 53 251 q 381 382 350 357 l 381 408 q 350 522 381 482 q 268 563 319 563 q 208 536 232 563 q 168 443 185 508 q 125 408 158 408 q 82 428 103 408 q 60 469 60 446 q 104 528 60 494 q 317 625 211 603 q 435 588 386 625 q 499 414 499 535 l 499 161 q 546 79 499 79 q 596 93 572 79 l 610 56 m 381 115 l 381 333 q 347 317 368 326 q 299 294 325 306 q 264 278 272 282 q 201 235 221 257 q 182 176 182 213 q 213 99 182 126 q 279 71 243 71 q 381 115 333 71 z "},"æ":{"ha":932,"x_min":53,"x_max":900,"o":"m 392 383 l 392 417 q 358 522 392 481 q 275 563 324 563 q 211 532 235 563 q 174 443 192 510 q 132 407 164 407 q 89 426 113 407 q 64 467 64 446 q 108 528 64 496 q 322 625 214 600 q 426 594 385 625 q 482 524 465 569 q 683 625 572 622 q 836 561 772 625 q 900 413 899 496 q 893 379 900 389 q 867 364 886 368 q 503 340 817 350 q 503 335 503 338 q 564 149 503 213 q 715 82 626 82 q 868 150 794 82 l 893 119 q 774 15 839 46 q 663 -17 708 -17 q 439 106 513 -17 l 392 68 q 224 -17 278 -17 q 101 35 149 -17 q 53 151 53 86 q 161 290 53 250 q 392 383 354 357 m 650 572 q 561 526 601 572 q 511 397 519 479 l 740 401 q 771 433 771 401 q 739 532 771 490 q 650 572 706 572 m 283 75 q 418 147 363 75 q 390 333 390 206 q 357 318 378 328 q 307 297 335 308 q 263 278 279 285 q 201 239 219 260 q 182 181 182 217 q 213 103 182 131 q 283 75 243 75 z "},"å":{"ha":617,"x_min":51,"x_max":608,"o":"m 296 693 q 208 726 246 693 q 171 813 171 760 q 210 899 171 865 q 297 931 247 931 q 383 899 346 931 q 421 813 421 865 q 383 726 421 760 q 296 693 344 693 m 297 738 q 342 758 325 738 q 358 813 358 779 q 342 865 358 844 q 296 885 325 885 q 253 864 269 885 q 235 813 235 843 q 253 760 235 781 q 297 738 271 738 m 608 56 l 485 -17 q 417 11 444 -17 q 382 71 393 35 q 360 56 378 68 q 333 38 340 42 q 310 21 325 32 q 285 6 293 10 q 263 -4 275 1 q 240 -14 250 -11 q 222 -17 231 -17 q 100 36 149 -17 q 51 154 51 88 q 163 290 51 251 q 379 382 346 354 l 379 408 q 350 522 379 481 q 268 563 319 563 q 208 536 231 563 q 168 443 185 508 q 124 408 158 408 q 81 428 101 408 q 58 469 58 446 q 104 528 58 494 q 201 585 140 554 q 315 625 263 614 q 433 588 386 625 q 497 414 497 535 l 497 161 q 546 79 497 79 q 594 93 571 79 l 608 56 m 379 115 l 379 333 q 346 317 367 326 q 297 294 324 306 q 263 278 271 282 q 201 235 221 257 q 182 176 182 213 q 213 99 182 126 q 278 71 242 71 q 379 115 332 71 z "},"~":{"ha":804,"x_min":75,"x_max":731,"o":"m 678 431 l 731 400 q 551 247 682 247 q 376 310 479 247 q 253 354 303 354 q 126 239 174 354 l 75 276 q 258 426 138 426 q 418 374 326 426 q 561 321 510 321 q 629 347 601 321 q 678 431 657 374 z "},"ã":{"ha":617,"x_min":51,"x_max":608,"o":"m 150 721 l 113 744 q 228 874 154 874 q 310 846 256 874 q 385 819 363 819 q 446 883 417 819 l 482 864 q 369 733 443 733 q 278 765 339 733 q 213 788 242 788 q 150 721 178 788 m 608 56 l 485 -17 q 417 11 444 -17 q 382 71 393 35 q 360 56 378 68 q 333 38 340 42 q 310 21 325 32 q 285 6 293 10 q 263 -4 275 1 q 240 -14 250 -11 q 222 -17 231 -17 q 100 36 149 -17 q 51 154 51 88 q 163 290 51 251 q 379 382 346 354 l 379 408 q 350 522 379 481 q 268 563 319 563 q 208 536 231 563 q 168 443 185 508 q 124 408 158 408 q 81 428 101 408 q 58 469 58 446 q 104 528 58 494 q 201 585 140 554 q 315 625 263 614 q 433 588 386 625 q 497 414 497 535 l 497 161 q 546 79 497 79 q 594 93 571 79 l 608 56 m 379 115 l 379 333 q 346 317 367 326 q 297 294 324 306 q 263 278 271 282 q 201 235 221 257 q 182 176 182 213 q 213 99 182 126 q 278 71 242 71 q 379 115 332 71 z "},"¦":{"ha":367,"x_min":138,"x_max":231,"o":"m 231 451 l 138 451 l 138 938 l 231 938 l 231 451 m 231 -243 l 138 -243 l 138 243 l 231 243 l 231 -243 z "},"¸":{"ha":556,"x_min":196,"x_max":374,"o":"m 343 1 l 313 -36 q 301 -65 300 -54 q 319 -93 303 -76 q 374 -189 374 -147 q 331 -269 374 -232 q 213 -329 288 -307 l 196 -293 q 279 -210 279 -257 q 249 -157 279 -187 q 218 -114 221 -132 q 217 -108 217 -111 q 235 -68 217 -92 l 288 1 l 343 1 z "},"¢":{"ha":671,"x_min":69,"x_max":607,"o":"m 583 307 l 607 274 q 510 183 565 219 q 401 138 454 146 l 401 1 l 351 1 l 351 135 q 149 221 228 138 q 69 415 69 304 q 106 558 69 492 q 200 669 140 625 q 351 739 267 719 l 351 854 l 401 854 l 401 744 q 425 746 411 746 q 565 710 513 746 q 585 674 585 696 q 568 632 585 651 q 533 613 550 613 q 513 625 525 613 q 401 685 460 678 l 401 228 q 404 228 403 228 q 583 307 500 228 m 351 233 l 351 686 q 239 629 289 683 q 188 472 188 575 q 238 307 188 365 q 351 233 286 249 z "},"ˆ":{"ha":417,"x_min":40,"x_max":378,"o":"m 235 1006 q 303 933 265 968 q 378 871 340 899 q 369 853 374 861 q 356 842 364 846 q 278 881 314 861 q 208 926 242 900 q 134 879 169 899 q 60 842 99 860 q 40 871 44 851 q 113 935 78 900 q 181 1006 147 971 q 207 1014 194 1014 q 235 1006 218 1014 z "},"©":{"ha":974,"x_min":68,"x_max":906,"o":"m 489 871 q 786 749 667 871 q 906 447 906 625 q 786 149 906 271 q 488 26 667 26 q 189 149 308 26 q 68 447 68 271 q 189 749 68 625 q 489 871 310 871 m 486 822 q 235 715 335 822 q 135 449 135 608 q 236 183 135 290 q 488 75 336 75 q 739 183 639 75 q 839 449 839 290 q 739 715 839 608 q 486 822 639 822 m 667 365 l 699 358 q 663 233 664 236 q 517 207 588 207 q 322 278 390 207 q 253 444 253 349 q 332 624 253 557 q 522 690 410 690 q 668 665 613 690 q 672 632 669 650 q 678 588 674 614 q 683 540 681 561 l 651 535 q 514 650 615 650 q 400 596 442 650 q 358 454 358 540 q 404 307 358 364 q 518 249 450 249 q 667 365 617 249 z "},"¨":{"ha":556,"x_min":85,"x_max":469,"o":"m 156 743 q 106 765 126 743 q 85 815 85 786 q 106 867 85 846 q 157 888 126 888 q 207 867 186 888 q 226 815 226 846 q 206 765 226 786 q 156 743 185 743 m 399 743 q 349 765 369 743 q 328 815 328 786 q 349 867 328 846 q 400 888 369 888 q 450 867 429 888 q 469 815 469 846 q 449 765 469 786 q 399 743 428 743 z "},"÷":{"ha":804,"x_min":71,"x_max":736,"o":"m 404 490 q 357 511 378 490 q 335 561 335 532 q 357 611 335 589 q 406 632 378 632 q 457 611 435 632 q 478 561 478 589 q 457 511 478 531 q 404 490 435 490 m 736 317 l 71 317 l 71 389 l 736 389 l 736 317 m 406 215 q 454 194 432 215 q 475 144 475 174 q 453 96 475 117 q 404 74 431 74 q 354 96 375 74 q 332 144 332 117 q 353 196 332 175 q 406 215 374 215 z "},"ı":{"ha":379,"x_min":44,"x_max":358,"o":"m 358 0 l 44 0 l 44 38 q 125 63 110 44 q 140 153 140 81 l 140 428 q 128 513 140 496 q 56 539 115 529 l 56 572 q 263 626 178 593 l 263 153 q 278 63 263 81 q 358 38 292 44 l 358 0 z "},"ð":{"ha":706,"x_min":50,"x_max":653,"o":"m 629 917 l 468 832 q 653 372 653 640 q 564 82 653 181 q 344 -17 474 -17 q 131 78 213 -17 q 50 288 50 171 q 50 292 50 290 q 149 536 51 447 q 361 625 246 625 l 363 625 q 483 594 426 625 q 388 788 458 703 l 186 679 l 164 725 l 351 824 q 113 943 243 926 q 110 967 106 951 q 122 986 113 981 q 426 868 288 976 l 604 961 l 629 917 m 354 578 q 238 511 282 578 q 192 331 192 443 q 240 115 192 197 q 368 32 288 32 q 518 325 517 32 q 518 335 518 331 q 478 524 518 483 q 354 578 428 578 z "},"¡":{"ha":385,"x_min":108,"x_max":276,"o":"m 194 624 q 253 600 229 624 q 276 538 276 575 q 253 476 276 500 q 193 451 229 451 q 132 476 156 451 q 108 538 108 500 q 132 600 108 576 q 194 624 156 624 m 192 -315 q 111 -269 111 -315 q 121 -162 111 -260 q 167 328 138 -35 q 194 338 172 338 q 219 328 215 338 q 263 -162 251 -74 q 274 -269 274 -251 q 192 -315 274 -315 z "},"⁄":{"ha":563,"x_min":-74,"x_max":585,"o":"m 8 -393 l -74 -393 l 503 1401 l 585 1401 l 8 -393 z "},"ß":{"ha":764,"x_min":39,"x_max":726,"o":"m 140 608 l 140 625 q 158 744 140 693 q 276 915 186 842 q 453 988 356 979 q 614 929 553 985 q 676 778 675 874 q 661 722 676 744 q 522 538 522 618 q 539 489 522 514 q 568 450 554 463 q 617 403 581 436 q 726 218 726 308 q 640 53 726 124 q 468 -18 553 -18 q 392 0 422 -18 q 363 42 363 19 q 364 49 363 44 q 390 86 368 69 q 419 88 407 99 q 522 46 472 46 q 586 72 557 46 q 614 153 614 99 q 592 229 614 194 q 524 304 569 263 q 408 479 408 404 q 431 550 408 517 q 504 640 451 583 q 561 700 557 693 q 571 747 571 713 q 571 751 571 750 q 526 874 571 819 q 410 928 479 928 q 332 899 363 928 q 286 814 300 869 q 268 700 272 757 q 263 560 263 642 l 263 144 q 275 63 263 81 q 333 39 286 44 l 333 0 l 43 0 l 43 39 q 125 63 108 44 q 140 143 140 79 l 140 546 l 44 546 l 39 563 l 76 608 l 140 608 z "},"‹":{"ha":365,"x_min":57,"x_max":310,"o":"m 310 74 l 276 51 q 57 308 144 224 q 276 565 151 403 l 310 543 l 183 308 l 310 74 z "},"›":{"ha":367,"x_min":57,"x_max":311,"o":"m 57 543 l 90 565 q 311 308 218 404 q 90 51 210 204 l 57 74 l 185 308 l 57 543 z "},"í":{"ha":379,"x_min":44,"x_max":358,"o":"m 178 683 l 140 703 q 171 778 151 728 q 208 872 190 826 l 229 924 q 289 935 240 929 q 336 939 319 939 q 349 938 344 939 l 354 924 l 178 683 m 358 0 l 44 0 l 44 38 q 125 63 110 44 q 140 153 140 81 l 140 428 q 128 513 140 496 q 56 539 115 529 l 56 572 q 263 626 178 593 l 263 153 q 278 63 263 81 q 358 38 292 44 l 358 0 z "},"î":{"ha":379,"x_min":28,"x_max":358,"o":"m 347 706 l 313 681 q 188 814 264 724 q 63 681 111 724 l 28 706 q 169 935 101 808 l 207 935 q 347 706 271 813 m 358 0 l 44 0 l 44 38 q 125 63 110 44 q 140 153 140 81 l 140 428 q 128 513 140 496 q 56 539 115 529 l 56 572 q 263 626 178 593 l 263 153 q 278 63 263 81 q 358 38 292 44 l 358 0 z "},"ì":{"ha":379,"x_min":35,"x_max":358,"o":"m 239 699 l 200 681 l 35 901 l 39 914 q 93 929 50 921 q 147 935 129 935 q 153 935 150 935 l 239 699 m 358 0 l 44 0 l 44 38 q 125 63 110 44 q 140 153 140 81 l 140 428 q 128 513 140 496 q 56 539 115 529 l 56 572 q 263 626 178 593 l 263 153 q 278 63 263 81 q 358 38 292 44 l 358 0 z "},"¯":{"ha":556,"x_min":122,"x_max":435,"o":"m 435 760 l 122 760 l 122 840 l 435 840 l 435 760 z "},"−":{"ha":521,"x_min":19,"x_max":501,"o":"m 457 467 q 493 447 485 467 q 501 399 501 426 q 493 352 501 371 q 457 333 485 333 l 64 333 q 28 352 36 333 q 19 399 19 371 q 28 447 19 426 q 64 467 36 467 l 457 467 z "},"µ":{"ha":718,"x_min":94,"x_max":714,"o":"m 699 78 l 714 42 q 660 1 694 18 q 589 -17 625 -17 q 515 13 546 -17 q 478 89 485 40 l 475 89 q 294 -17 382 -17 q 182 42 222 -17 l 176 42 l 176 19 q 176 8 176 14 q 193 -172 176 -64 q 226 -336 211 -290 l 208 -353 q 153 -333 185 -351 q 101 -299 119 -317 q 99 64 99 -289 l 99 464 q 94 599 99 549 l 217 625 q 221 476 221 592 l 221 239 q 258 113 221 151 q 344 74 294 74 q 474 142 418 74 l 474 599 l 596 625 l 596 161 q 651 65 596 65 q 699 78 676 65 z "},"×":{"ha":804,"x_min":82,"x_max":724,"o":"m 724 68 l 669 13 l 401 286 l 135 13 l 82 68 l 347 342 l 82 614 l 135 669 l 401 397 l 669 671 l 724 617 l 456 342 l 724 68 z "},"ó":{"ha":713,"x_min":50,"x_max":663,"o":"m 344 683 l 307 703 q 338 778 318 728 q 375 872 357 826 l 396 924 q 456 935 407 929 q 503 939 486 939 q 515 938 511 939 l 521 924 l 344 683 m 361 625 q 576 535 490 625 q 663 314 663 443 q 569 71 663 157 q 358 -17 476 -17 q 135 75 218 -17 q 50 290 50 167 q 101 478 50 399 q 222 592 153 557 q 361 625 290 625 m 342 578 q 236 514 279 578 q 192 336 192 450 q 242 117 192 203 q 374 31 292 31 q 521 282 521 31 q 474 496 521 413 q 342 578 426 578 z "},"œ":{"ha":1069,"x_min":49,"x_max":1035,"o":"m 354 625 q 489 589 428 625 q 586 490 550 553 q 689 588 625 549 q 818 625 753 625 q 972 561 908 625 q 1035 413 1035 497 q 1029 379 1035 388 q 1004 365 1022 369 q 635 342 936 351 q 635 336 635 339 q 696 149 635 213 q 849 82 757 82 q 1003 150 925 82 l 1025 119 q 910 15 972 46 q 799 -17 846 -17 q 574 101 649 -17 q 472 14 532 43 q 350 -17 411 -17 q 132 78 214 -17 q 49 292 49 171 q 79 439 49 372 q 156 544 108 506 q 254 604 201 583 q 354 625 306 625 m 339 576 q 235 513 278 576 q 192 336 192 447 q 240 117 192 201 q 371 32 289 32 q 475 94 433 32 q 517 288 517 156 q 471 497 517 418 q 339 576 424 576 m 783 572 q 693 526 735 572 q 642 397 651 479 q 715 399 668 397 q 803 400 763 399 q 878 401 842 400 q 907 433 907 401 q 874 532 907 492 q 783 572 839 572 z "},"ò":{"ha":713,"x_min":50,"x_max":663,"o":"m 410 699 l 371 681 l 206 901 l 210 914 q 264 929 221 921 q 318 935 300 935 q 324 935 321 935 l 410 699 m 361 625 q 576 535 490 625 q 663 314 663 443 q 569 71 663 157 q 358 -17 476 -17 q 135 75 218 -17 q 50 290 50 167 q 101 478 50 399 q 222 592 153 557 q 361 625 290 625 m 342 578 q 236 514 279 578 q 192 336 192 450 q 242 117 192 203 q 374 31 292 31 q 521 282 521 31 q 474 496 521 413 q 342 578 426 578 z "},"½":{"ha":1065,"x_min":99,"x_max":982,"o":"m 821 875 l 257 -40 l 213 -6 l 772 908 l 821 875 m 378 385 l 100 385 l 100 418 q 174 438 157 422 q 190 501 190 451 l 190 743 q 182 793 190 783 q 139 806 174 803 l 99 808 l 99 842 q 289 882 194 853 l 289 501 q 306 439 289 451 q 378 418 321 425 l 378 385 m 951 136 l 982 126 q 949 0 960 51 l 608 0 l 608 32 q 682 93 656 69 q 753 160 708 115 q 819 244 797 203 q 842 324 842 286 q 817 399 842 372 q 751 424 792 424 q 635 349 690 424 l 610 374 l 656 436 q 792 499 704 499 q 901 458 856 499 q 947 349 946 418 q 915 256 947 300 q 800 140 882 211 l 729 79 l 731 76 l 857 76 q 915 88 897 76 q 951 136 932 97 z "},"¼":{"ha":1064,"x_min":108,"x_max":958,"o":"m 840 875 l 276 -40 l 232 -6 l 793 908 l 840 875 m 388 385 l 110 385 l 110 418 q 183 438 167 422 q 200 501 200 451 l 200 743 q 193 793 200 783 q 149 806 185 803 l 108 808 l 108 842 q 300 882 206 853 l 299 501 q 315 439 299 451 q 388 418 331 425 l 388 385 m 958 138 l 878 138 l 878 100 q 892 49 878 60 q 953 32 906 36 l 953 0 l 697 0 l 697 32 q 771 49 754 36 q 786 100 786 60 l 786 138 l 563 138 l 563 171 q 819 499 714 372 l 878 499 l 878 190 l 958 192 l 958 138 m 786 192 l 786 392 l 782 392 q 636 192 717 308 l 786 192 z "},"ª":{"ha":431,"x_min":44,"x_max":415,"o":"m 415 419 l 325 374 q 260 428 276 375 q 154 374 176 374 q 76 407 108 374 q 44 481 44 439 q 113 565 44 540 q 157 582 117 567 q 221 607 197 596 q 257 626 243 617 l 257 642 q 239 696 257 675 q 190 715 221 715 q 126 642 147 715 q 96 619 119 619 q 65 632 81 619 q 50 661 50 644 q 79 700 50 679 q 218 760 142 747 q 311 729 278 760 q 343 636 343 697 l 343 486 q 372 439 343 439 q 406 447 388 439 l 415 419 m 257 461 l 257 588 q 218 569 249 582 q 178 551 188 557 q 138 497 138 531 q 156 453 138 468 q 197 436 174 436 q 257 461 229 436 z "},"º":{"ha":474,"x_min":36,"x_max":433,"o":"m 239 760 q 379 706 324 760 q 433 572 433 650 q 372 428 432 481 q 236 374 313 374 q 90 431 144 374 q 36 563 36 488 q 101 707 38 654 q 239 760 164 760 m 225 721 q 167 685 192 721 q 142 582 142 649 q 171 461 142 508 q 243 414 200 414 q 329 551 328 414 q 329 558 329 556 q 303 674 329 629 q 225 721 274 721 z "},"ø":{"ha":717,"x_min":50,"x_max":667,"o":"m 603 632 l 554 560 q 667 315 667 467 q 574 72 667 160 q 361 -17 481 -17 q 200 25 275 -17 l 147 -50 l 111 -19 l 163 53 q 79 161 108 97 q 50 292 50 224 q 81 439 50 372 q 157 544 110 504 q 258 604 204 583 q 364 625 313 625 q 515 585 446 625 l 565 658 l 603 632 m 224 144 l 467 514 q 349 578 424 578 q 233 511 281 578 q 185 325 185 444 q 224 144 185 218 m 494 469 l 253 100 q 375 29 296 29 q 489 94 443 29 q 533 296 533 158 q 494 469 533 396 z "},"õ":{"ha":713,"x_min":50,"x_max":663,"o":"m 207 721 l 171 744 q 286 874 213 874 q 368 846 314 874 q 443 819 421 819 q 504 883 475 819 l 540 864 q 428 733 501 733 q 336 765 394 733 q 271 788 297 788 q 207 721 235 788 m 361 625 q 576 535 490 625 q 663 314 663 443 q 569 71 663 157 q 358 -17 476 -17 q 135 75 218 -17 q 50 290 50 167 q 101 478 50 399 q 222 592 153 557 q 361 625 290 625 m 342 578 q 236 514 279 578 q 192 336 192 450 q 242 117 192 203 q 374 31 292 31 q 521 282 521 31 q 474 496 521 413 q 342 578 426 578 z "},"±":{"ha":804,"x_min":71,"x_max":735,"o":"m 735 431 l 446 431 l 446 150 l 361 150 l 361 431 l 71 431 l 71 503 l 361 503 l 361 765 l 446 765 l 446 503 l 735 503 l 735 431 m 735 0 l 71 0 l 71 72 l 735 72 l 735 0 z "},"¿":{"ha":531,"x_min":63,"x_max":453,"o":"m 271 625 q 328 601 304 625 q 350 540 350 578 q 328 481 350 504 q 269 457 304 457 q 211 481 235 457 q 188 540 188 504 q 211 601 188 578 q 271 625 235 625 m 224 306 l 250 339 q 356 268 303 319 q 408 157 408 215 q 382 83 408 119 q 288 -1 354 47 q 224 -47 243 -33 q 176 -93 203 -62 q 150 -149 150 -125 q 228 -219 150 -219 q 304 -200 267 -219 q 364 -161 340 -181 q 392 -142 386 -142 q 432 -162 410 -142 q 453 -208 453 -183 q 424 -261 453 -233 q 354 -300 393 -286 q 290 -314 315 -314 l 289 -314 q 132 -246 201 -314 q 63 -90 63 -178 q 132 38 63 -15 q 174 69 140 44 q 226 111 206 93 q 265 154 246 128 q 283 201 283 179 q 224 306 283 253 z "},"®":{"ha":444,"x_min":43,"x_max":404,"o":"m 224 915 q 353 863 300 915 q 404 735 404 808 q 351 610 404 663 q 222 556 299 556 q 94 607 146 556 q 43 735 43 658 q 96 863 43 808 q 224 915 149 915 m 222 883 q 124 840 163 883 q 83 735 83 797 q 124 631 83 672 q 224 588 164 588 q 325 631 283 588 q 365 735 365 672 q 325 840 365 797 q 222 883 283 883 m 326 657 l 322 640 q 254 668 275 640 q 239 694 247 678 q 228 711 229 710 q 210 721 222 721 l 204 721 l 204 689 q 208 668 204 671 q 231 663 213 664 l 231 642 l 136 642 l 136 663 q 160 668 156 664 q 163 689 163 671 l 163 785 q 160 807 163 803 q 138 811 156 810 l 138 832 l 232 832 q 300 782 300 832 q 263 735 300 749 q 308 671 281 700 q 326 657 314 665 m 204 743 l 217 743 q 240 749 233 743 q 256 778 256 758 q 246 804 256 796 q 222 811 235 811 q 204 794 204 811 l 204 743 z "},"˚":{"ha":385,"x_min":33,"x_max":353,"o":"m 33 926 q 58 999 33 963 q 119 1061 82 1036 q 193 1086 157 1086 q 266 1061 229 1086 q 328 999 303 1036 q 353 926 353 963 q 328 853 353 890 q 266 792 303 817 q 193 767 229 767 q 119 792 157 767 q 58 853 82 817 q 33 926 33 890 m 100 926 q 128 863 100 892 q 193 833 157 833 q 257 863 228 833 q 286 926 286 892 q 257 991 286 963 q 193 1019 228 1019 q 128 991 157 1019 q 100 926 100 963 z "},"£":{"ha":671,"x_min":31,"x_max":642,"o":"m 528 407 l 296 407 q 297 378 297 396 q 171 144 297 254 q 317 108 240 144 q 488 56 440 56 q 564 114 564 56 q 553 160 564 135 q 557 190 547 174 q 608 226 583 226 q 632 210 622 226 q 642 171 642 192 q 610 82 642 126 q 532 7 576 36 q 403 -37 467 -37 q 339 -24 376 -37 q 283 0 301 -10 q 215 38 265 10 q 132 71 158 71 q 76 11 99 71 q 58 -7 71 -7 q 33 11 42 -7 q 31 25 31 17 q 39 60 31 40 q 110 149 51 83 q 167 329 167 214 q 161 407 167 368 l 38 407 l 38 463 l 154 463 q 146 576 146 538 q 264 819 146 726 q 413 882 340 879 q 494 864 456 882 q 547 825 532 844 q 557 799 557 813 q 551 779 557 789 q 524 746 543 763 q 485 750 503 732 q 353 810 411 810 q 261 685 261 810 q 292 463 261 621 l 528 463 l 528 407 z "},"¾":{"ha":1065,"x_min":94,"x_max":951,"o":"m 844 875 l 281 -40 l 236 -6 l 797 908 l 844 875 m 326 679 l 326 676 q 417 636 385 665 q 449 561 449 606 q 401 458 449 503 q 301 394 353 413 q 213 375 249 375 q 117 404 153 375 q 103 444 94 422 q 129 479 108 464 q 158 476 143 488 q 263 429 219 429 q 324 454 300 429 q 347 529 347 479 q 318 600 347 576 q 244 624 288 624 q 188 614 214 624 l 178 650 q 313 757 313 693 q 293 801 313 783 q 246 817 275 817 q 242 817 244 817 q 185 797 213 817 q 139 751 156 776 l 115 774 l 157 832 q 278 882 204 882 l 279 882 q 376 851 339 882 q 414 776 414 819 q 388 719 414 742 q 326 679 360 697 m 951 138 l 871 138 l 871 100 q 885 49 871 60 q 946 32 899 36 l 946 0 l 690 0 l 690 32 q 764 49 747 36 q 779 100 779 60 l 779 138 l 556 138 l 556 171 q 813 499 707 372 l 871 499 l 871 190 l 951 192 l 951 138 m 779 192 l 779 392 l 775 392 q 629 192 710 308 l 779 192 z "},"˜":{"ha":458,"x_min":36,"x_max":422,"o":"m 147 951 q 208 933 183 951 q 259 897 233 915 q 319 878 285 878 q 357 892 343 878 q 385 950 371 907 q 422 942 407 951 q 380 842 410 879 q 301 804 350 804 q 257 819 279 804 q 213 849 235 835 q 175 867 194 860 q 138 875 156 875 q 98 859 111 875 q 74 808 85 843 q 36 815 47 804 q 77 914 51 876 q 147 951 103 951 z "},"":{"ha":1096,"x_min":13,"x_max":1083,"o":"m 546 1068 q 928 911 771 1068 q 1083 532 1083 756 q 926 154 1083 311 q 546 -1 771 -1 q 169 154 325 -1 q 13 532 13 311 q 168 911 13 756 q 546 1068 325 1068 m 546 1015 q 204 875 347 1015 q 64 532 64 735 q 204 192 64 332 q 546 50 346 50 q 888 192 749 50 q 1029 532 1029 332 q 889 875 1029 735 q 546 1015 749 1015 m 846 417 q 783 435 808 417 q 744 481 758 453 l 600 481 l 600 336 q 649 297 631 322 q 668 235 668 272 q 634 149 668 185 q 550 114 600 114 q 465 149 499 114 q 432 235 432 183 q 450 297 432 272 q 496 336 468 322 l 496 481 l 351 481 q 313 431 338 450 q 250 413 288 413 q 165 447 200 413 q 129 531 129 481 q 164 615 129 581 q 250 649 199 649 q 312 631 286 649 q 351 585 338 613 l 496 585 l 496 729 q 432 831 432 758 q 463 916 432 882 q 546 950 494 950 q 631 916 597 950 q 664 831 664 882 q 646 768 664 793 q 600 729 628 743 l 600 585 l 744 585 q 783 634 758 615 q 846 653 808 653 q 931 619 897 653 q 965 535 965 586 q 931 450 965 483 q 846 417 897 417 z "},"":{"ha":1111,"x_min":25,"x_max":1096,"o":"m 857 444 q 794 463 819 444 q 756 508 769 481 l 611 508 l 611 364 q 660 325 642 350 q 679 263 679 300 q 645 177 679 213 q 561 142 611 142 q 476 176 510 142 q 443 263 443 211 q 461 325 443 300 q 507 364 479 350 l 507 508 l 363 508 q 324 459 349 478 q 261 440 299 440 q 176 474 211 440 q 140 558 140 508 q 175 642 140 608 q 261 676 210 676 q 323 658 297 676 q 363 613 349 640 l 507 613 l 507 757 q 443 858 443 786 q 474 944 443 910 q 557 978 506 978 q 642 944 608 978 q 675 858 675 910 q 657 796 675 821 q 611 757 639 771 l 611 613 l 756 613 q 794 662 769 643 q 857 681 819 681 q 942 647 908 681 q 976 563 976 614 q 942 478 976 511 q 857 444 908 444 m 1096 532 q 939 154 1096 311 q 558 -1 783 -1 q 182 154 338 -1 q 25 532 25 311 l 78 532 q 218 192 78 332 q 561 50 360 50 q 903 192 761 50 q 1043 532 1043 332 l 1096 532 z "},"":{"ha":896,"x_min":24,"x_max":860,"o":"m 740 417 q 677 434 703 417 q 638 481 651 451 l 494 481 l 494 336 q 544 297 525 322 q 563 235 563 272 q 528 149 563 183 q 443 114 494 114 q 360 149 393 114 q 326 235 326 183 q 344 297 326 271 q 389 336 363 322 l 389 481 l 246 481 q 207 431 232 450 q 144 413 182 413 q 58 446 93 413 q 24 531 24 479 q 58 615 24 582 q 144 649 93 649 q 207 631 182 649 q 246 585 232 613 l 389 585 l 389 729 q 340 768 360 743 q 321 831 321 793 q 356 915 321 881 q 440 950 390 950 q 524 916 490 950 q 557 831 557 882 q 540 769 557 794 q 494 729 522 743 l 494 585 l 638 585 q 676 634 651 615 q 740 653 701 653 q 826 619 792 653 q 860 535 860 586 q 826 450 860 483 q 740 417 792 417 z "},"":{"ha":979,"x_min":24,"x_max":960,"o":"m 24 765 q 47 886 24 828 q 156 1019 82 964 q 340 1075 229 1075 q 526 1042 433 1075 q 690 971 608 1011 q 836 892 772 931 q 903 858 890 858 q 921 867 914 858 q 931 883 928 875 l 938 900 q 949 908 940 908 q 960 893 960 908 l 960 847 q 959 813 960 833 q 958 765 958 793 q 946 760 958 760 q 917 778 936 760 q 890 798 904 788 q 856 819 875 808 l 769 875 q 664 931 722 906 q 552 971 614 953 q 422 989 490 989 q 234 921 292 989 q 176 731 176 853 q 177 714 176 722 q 178 697 178 706 q 184 614 178 658 q 190 533 190 569 l 190 519 q 184 447 190 486 q 178 372 178 407 q 177 356 178 364 q 176 339 176 347 q 235 148 176 217 q 422 79 294 79 q 483 83 453 79 q 544 97 514 88 q 663 138 606 114 q 768 193 721 163 l 854 249 q 915 292 892 272 q 946 308 939 308 q 958 303 958 308 q 959 255 958 275 q 960 221 960 235 l 960 176 q 949 160 960 160 q 938 168 940 160 q 926 196 933 181 q 903 211 919 211 q 836 176 889 211 q 774 141 808 160 q 700 101 740 122 q 595 52 653 78 q 473 10 538 26 q 340 -7 408 -7 q 210 18 267 -7 q 114 82 154 43 q 50 176 76 121 q 24 303 24 232 q 48 434 24 375 q 110 533 72 493 q 48 635 72 578 q 24 765 24 692 m 422 685 q 353 713 381 685 q 325 783 325 742 q 353 853 325 824 q 422 882 382 882 q 492 853 463 882 q 522 783 522 824 q 493 713 522 742 q 422 685 464 685 m 739 435 q 669 464 699 435 q 639 533 639 493 q 668 604 639 575 q 739 633 697 633 q 808 604 781 633 q 836 533 836 575 q 808 464 836 493 q 739 435 779 435 m 422 186 q 353 215 381 186 q 325 285 325 243 q 353 356 325 326 q 422 385 381 385 q 493 356 464 385 q 522 285 522 326 q 493 215 522 243 q 422 186 464 186 z "},"":{"ha":988,"x_min":32,"x_max":968,"o":"m 883 533 q 944 434 921 493 q 968 303 968 375 q 944 182 968 240 q 837 48 910 103 q 653 -7 764 -7 q 471 26 565 -7 q 304 97 389 56 q 156 178 219 138 q 90 211 100 211 q 71 203 78 211 q 61 186 64 194 q 56 169 60 179 q 44 160 51 160 q 32 176 32 160 l 32 303 q 46 308 32 308 q 76 292 54 308 q 138 249 100 272 l 224 193 q 274 164 247 178 q 329 139 301 150 q 440 98 379 117 q 569 79 501 79 q 758 148 700 79 q 815 339 815 217 l 815 372 q 808 447 815 407 q 801 519 801 486 l 801 533 q 808 614 801 569 q 815 697 815 658 l 815 732 q 757 922 815 856 q 569 989 699 989 q 447 972 508 989 q 328 931 385 956 q 224 875 272 906 l 138 821 q 76 778 100 797 q 46 760 54 760 q 32 765 32 760 l 32 893 q 44 908 32 908 q 56 901 51 908 q 67 873 61 888 q 90 858 72 858 q 156 892 100 858 q 218 927 183 908 q 292 967 253 946 q 397 1015 339 990 q 521 1058 456 1040 q 653 1075 586 1075 q 783 1049 726 1075 q 878 985 840 1022 q 942 892 915 946 q 968 765 968 838 q 944 635 968 692 q 883 533 921 578 m 668 783 q 640 713 668 742 q 569 685 611 685 q 500 714 529 685 q 471 783 471 743 q 501 853 471 824 q 569 882 531 882 q 639 853 610 882 q 668 783 668 824 m 353 533 q 324 465 353 494 q 254 435 294 435 q 185 464 214 435 q 156 533 156 493 q 184 604 156 575 q 254 633 213 633 q 324 603 294 633 q 353 533 353 574 m 668 285 q 640 215 668 243 q 569 186 611 186 q 500 215 529 186 q 471 285 471 244 q 500 355 471 325 q 569 385 529 385 q 640 356 611 385 q 668 285 668 326 z "},"":{"ha":1021,"x_min":65,"x_max":992,"o":"m 992 1443 q 981 1376 986 1401 q 968 1331 976 1351 q 943 1279 960 1310 q 881 1212 917 1239 q 794 1172 844 1185 q 769 1167 782 1169 q 740 1165 756 1165 q 664 1174 704 1165 q 606 1193 624 1183 q 540 1235 571 1213 q 485 1279 508 1258 l 428 1328 q 368 1363 394 1358 l 354 1363 q 297 1338 314 1363 q 267 1281 279 1313 q 258 1244 264 1271 q 251 1193 251 1217 l 249 1151 l 222 1156 q 210 1158 217 1157 q 196 1158 203 1158 l 186 1158 q 146 1156 146 1158 l 113 1151 q 97 1149 104 1150 q 82 1146 89 1147 l 78 1154 q 106 1267 78 1211 q 168 1349 133 1322 q 216 1383 194 1371 q 285 1407 238 1396 q 331 1412 304 1410 q 392 1414 358 1414 q 432 1412 414 1414 q 464 1403 450 1410 q 483 1392 467 1401 q 529 1363 499 1382 q 585 1318 560 1343 q 639 1268 611 1293 q 680 1242 657 1254 q 733 1231 703 1231 l 751 1231 q 781 1253 771 1235 q 793 1292 790 1272 l 803 1331 l 810 1383 q 814 1443 814 1421 l 814 1450 l 856 1442 q 871 1440 863 1440 q 890 1440 879 1440 l 921 1440 q 956 1444 943 1440 l 988 1450 l 992 1443 m 519 1096 q 515 1069 518 1082 q 508 1043 511 1057 l 501 993 q 499 966 500 979 q 499 942 499 953 l 499 908 q 499 890 499 899 q 501 875 500 881 q 485 874 493 874 q 468 875 476 875 l 438 875 q 420 874 428 875 q 406 875 413 874 l 403 899 l 403 928 q 406 983 403 949 q 410 1029 410 1018 l 418 1072 q 423 1090 419 1081 q 428 1107 426 1099 l 469 1114 q 484 1115 476 1114 q 500 1115 492 1115 q 519 1096 519 1115 m 708 1114 l 674 1081 l 646 1057 q 640 1060 644 1056 q 635 1064 635 1064 l 622 1072 q 614 1077 621 1074 q 603 1081 607 1081 q 584 1067 593 1076 q 568 1050 575 1058 l 554 1029 q 543 1014 547 1022 l 607 1014 q 619 1000 614 1007 q 628 988 625 993 l 646 953 q 659 916 651 939 q 668 875 667 893 l 578 875 q 558 941 572 908 q 526 999 543 974 q 524 1005 525 1001 q 521 1010 522 1008 l 521 1014 q 533 1042 526 1033 q 550 1064 539 1051 q 565 1081 557 1075 q 578 1090 572 1088 l 604 1103 q 626 1110 611 1107 q 650 1114 640 1114 l 679 1114 q 694 1115 688 1115 q 706 1115 700 1115 q 708 1114 708 1115 m 65 0 l 65 1057 l 235 1057 l 235 625 q 326 601 281 625 q 418 531 372 576 q 488 451 463 483 q 519 400 514 419 q 626 524 532 446 q 785 611 717 601 l 785 1057 l 954 1057 l 954 0 l 785 0 l 785 557 q 676 489 744 544 q 604 390 625 446 l 604 0 l 435 0 l 435 390 q 364 492 413 446 q 236 561 300 549 l 236 0 l 65 0 m 674 735 q 651 674 674 693 q 590 654 629 654 l 576 654 q 567 653 574 653 q 549 654 560 653 l 510 668 q 510 643 510 654 q 511 622 511 632 l 511 574 l 469 558 l 424 553 l 418 558 l 418 721 q 469 801 425 774 q 572 828 513 828 q 632 811 603 828 q 674 739 674 793 l 674 735 m 514 717 l 511 700 l 535 692 q 546 690 540 690 q 557 689 551 689 q 578 694 568 689 q 589 707 588 699 l 589 725 q 558 761 589 757 l 554 761 q 526 754 539 761 q 514 735 514 747 l 514 717 z "},"":{"ha":1438,"x_min":69,"x_max":1369,"o":"m 992 1443 q 978 1374 985 1401 q 968 1332 972 1346 q 943 1279 961 1311 q 881 1211 917 1239 q 794 1172 846 1183 q 769 1167 782 1169 q 740 1165 756 1165 q 663 1174 703 1165 q 606 1193 624 1183 q 539 1235 564 1218 q 507 1261 521 1250 q 485 1279 493 1272 l 428 1328 q 368 1363 394 1358 l 354 1363 q 320 1354 331 1363 q 296 1335 310 1346 q 267 1281 276 1311 q 257 1244 264 1271 q 250 1193 250 1217 l 249 1151 l 222 1156 q 210 1158 217 1157 q 196 1158 203 1158 l 186 1158 q 146 1156 146 1158 l 113 1151 q 97 1149 104 1150 q 82 1146 89 1147 l 78 1154 q 91 1228 78 1194 q 121 1290 104 1261 q 169 1346 143 1326 q 217 1379 194 1365 q 279 1406 244 1397 q 369 1414 314 1414 q 413 1410 392 1414 q 456 1399 433 1406 q 483 1389 467 1396 q 529 1363 499 1382 q 585 1318 561 1343 q 639 1268 610 1293 q 680 1242 657 1254 q 733 1231 703 1231 l 751 1231 q 781 1253 771 1236 q 793 1292 790 1271 l 803 1331 l 810 1383 q 814 1443 814 1421 l 814 1450 l 856 1442 q 871 1440 863 1440 q 890 1440 879 1440 l 921 1440 q 956 1444 943 1440 l 988 1450 l 992 1443 m 542 1075 q 663 1033 624 1075 q 703 910 703 990 q 672 835 703 854 q 588 817 640 817 q 497 833 543 817 l 497 642 l 374 642 l 376 907 l 376 915 q 542 1075 376 1075 m 69 0 l 69 1057 l 239 1057 l 240 625 q 422 529 331 624 q 524 400 513 439 q 631 524 536 444 q 789 611 721 601 l 789 1057 l 958 1057 l 960 608 q 1101 764 1067 613 q 1116 847 1111 807 q 1121 926 1121 888 q 1117 988 1121 958 q 1107 1047 1114 1018 l 1304 1047 q 1129 644 1296 804 l 1081 608 q 1344 296 1264 608 l 1369 0 l 1178 0 l 1169 242 q 1013 582 1169 458 q 960 474 976 572 l 961 0 l 789 0 l 789 557 q 681 489 749 544 q 608 390 629 446 l 613 0 l 439 0 l 439 390 q 368 492 417 446 q 240 561 304 549 l 243 0 l 69 0 m 531 868 q 603 885 576 868 q 629 942 629 903 q 565 1010 629 989 q 546 1014 556 1014 q 496 900 496 1014 q 496 885 496 893 q 497 869 496 878 q 515 868 507 868 q 531 868 524 868 z "},"":{"ha":1032,"x_min":65,"x_max":992,"o":"m 992 1443 q 978 1374 985 1401 q 968 1332 972 1346 q 943 1279 961 1311 q 881 1211 917 1239 q 794 1172 846 1183 q 769 1167 782 1169 q 740 1165 756 1165 q 663 1174 703 1165 q 606 1193 624 1183 q 539 1235 564 1218 q 507 1261 521 1250 q 485 1279 493 1272 l 428 1328 q 368 1363 394 1358 l 354 1363 q 320 1354 331 1363 q 296 1335 310 1346 q 267 1281 276 1311 q 257 1244 264 1271 q 250 1193 250 1217 l 249 1151 l 222 1156 q 210 1158 217 1157 q 196 1158 203 1158 l 186 1158 q 146 1156 146 1158 l 113 1151 q 97 1149 104 1150 q 82 1146 89 1147 l 78 1154 q 91 1228 78 1194 q 121 1290 104 1261 q 169 1346 143 1326 q 217 1379 194 1365 q 279 1406 244 1397 q 369 1414 314 1414 q 413 1410 392 1414 q 456 1399 433 1406 q 483 1389 467 1396 q 529 1363 499 1382 q 585 1318 561 1343 q 639 1268 610 1293 q 680 1242 657 1254 q 733 1231 703 1231 l 751 1231 q 781 1253 771 1236 q 793 1292 790 1271 l 803 1331 l 810 1383 q 814 1443 814 1421 l 814 1450 l 856 1442 q 871 1440 863 1440 q 890 1440 879 1440 l 921 1440 q 956 1444 943 1440 l 988 1450 l 992 1443 m 65 0 l 65 1060 l 235 1060 l 235 732 q 326 708 281 732 q 418 638 372 683 q 488 558 463 590 q 519 507 514 526 q 626 631 532 553 q 785 718 717 708 l 785 1060 l 954 1060 l 954 0 l 785 0 l 785 664 q 676 596 744 651 q 604 497 625 553 l 604 318 l 435 318 l 435 497 q 364 599 413 553 q 236 668 300 656 l 236 0 l 65 0 m 653 922 q 630 862 653 881 q 568 843 607 843 l 556 843 q 546 842 553 842 q 528 843 539 842 l 489 856 q 490 832 489 843 q 490 811 490 821 l 490 789 l 488 763 l 449 747 l 403 742 l 397 747 l 397 910 q 447 989 406 961 q 549 1017 489 1017 q 621 993 589 1017 q 653 928 653 969 l 653 922 m 536 878 q 557 882 547 876 q 568 896 567 888 l 568 914 q 560 940 568 932 q 538 950 553 947 l 531 950 q 492 922 496 950 l 492 888 l 514 881 q 525 878 519 879 q 536 878 531 878 m 489 239 q 485 213 488 225 q 479 186 482 200 l 471 136 q 469 109 471 122 q 468 85 468 96 l 468 51 q 471 18 468 32 q 453 17 463 17 q 435 18 443 18 l 407 18 q 390 17 397 18 q 375 18 382 17 l 372 42 l 372 71 q 374 106 372 85 q 377 146 375 126 q 381 172 379 165 l 389 215 q 393 233 392 224 q 397 250 394 242 l 439 257 q 454 257 446 257 q 469 258 463 257 q 489 239 489 256 m 678 257 q 617 200 649 228 q 614 200 614 197 q 608 204 611 203 q 604 207 606 206 l 592 215 q 583 220 590 217 q 572 224 576 224 q 553 211 563 219 q 538 193 544 203 l 524 174 q 518 165 521 169 q 514 157 515 161 l 576 157 q 589 143 583 150 q 599 131 594 136 l 617 96 q 629 60 622 82 q 638 18 636 38 l 549 18 q 497 142 533 89 q 493 148 494 144 q 490 153 492 151 l 490 157 q 501 185 494 174 q 519 207 508 196 q 535 224 526 218 q 549 233 543 231 l 574 244 q 590 250 576 247 q 605 253 597 251 q 619 257 613 256 l 650 257 q 663 258 657 258 q 675 258 669 258 q 678 257 678 258 z "},"":{"ha":1032,"x_min":65,"x_max":992,"o":"m 992 1443 q 978 1374 985 1401 q 968 1332 972 1346 q 943 1279 961 1311 q 881 1211 917 1239 q 794 1172 846 1183 q 769 1167 782 1169 q 740 1165 756 1165 q 663 1174 703 1165 q 606 1193 624 1183 q 539 1235 564 1218 q 507 1261 521 1250 q 485 1279 493 1272 l 428 1328 q 368 1363 394 1358 l 354 1363 q 320 1354 331 1363 q 296 1335 310 1346 q 267 1281 276 1311 q 257 1244 264 1271 q 250 1193 250 1217 l 249 1151 l 222 1156 q 210 1158 217 1157 q 196 1158 203 1158 l 186 1158 q 146 1156 146 1158 l 113 1151 q 97 1149 104 1150 q 82 1146 89 1147 l 78 1154 q 91 1228 78 1194 q 121 1290 104 1261 q 169 1346 143 1326 q 217 1379 194 1365 q 279 1406 244 1397 q 369 1414 314 1414 q 413 1410 392 1414 q 456 1399 433 1406 q 483 1389 467 1396 q 529 1363 499 1382 q 585 1318 561 1343 q 639 1268 610 1293 q 680 1242 657 1254 q 733 1231 703 1231 l 751 1231 q 781 1253 771 1236 q 793 1292 790 1271 l 803 1331 l 810 1383 q 814 1443 814 1421 l 814 1450 l 856 1442 q 871 1440 863 1440 q 890 1440 879 1440 l 921 1440 q 956 1444 943 1440 l 988 1450 l 992 1443 m 65 0 l 65 1060 l 235 1060 l 235 888 q 326 863 281 888 q 418 793 372 839 q 488 714 463 746 q 519 663 514 682 q 626 786 532 708 q 785 874 717 864 l 785 1060 l 954 1060 l 954 0 l 785 0 l 785 819 q 676 751 744 807 q 604 653 625 708 l 604 308 l 435 308 l 435 653 q 364 754 413 708 q 236 824 300 811 l 236 0 l 65 0 m 489 239 q 485 213 488 225 q 479 186 482 200 l 471 136 q 469 109 471 122 q 468 85 468 96 l 468 51 q 471 18 468 32 q 453 17 463 17 q 435 18 443 18 l 407 18 q 390 17 397 18 q 375 18 382 17 l 372 42 l 372 71 q 374 106 372 85 q 377 146 375 126 q 381 172 379 165 l 389 215 q 393 233 392 224 q 397 250 394 242 l 439 257 q 454 257 446 257 q 469 258 463 257 q 489 239 489 256 m 678 257 q 617 200 649 228 q 614 200 614 197 q 608 204 611 203 q 604 207 606 206 l 592 215 q 583 220 590 217 q 572 224 576 224 q 553 211 563 219 q 538 193 544 203 l 524 174 q 518 165 521 169 q 514 157 515 161 l 576 157 q 589 143 583 150 q 599 131 594 136 l 617 96 q 629 60 622 82 q 638 18 636 38 l 549 18 q 497 142 533 89 q 493 148 494 144 q 490 153 492 151 l 490 157 q 501 185 494 174 q 519 207 508 196 q 535 224 526 218 q 549 233 543 231 l 574 244 q 590 250 576 247 q 605 253 597 251 q 619 257 613 256 l 650 257 q 663 258 657 258 q 675 258 669 258 q 678 257 678 258 z "},"":{"ha":1304,"x_min":14,"x_max":1272,"o":"m 14 1246 l 1272 1246 l 1272 -225 l 14 -225 l 14 1246 m 92 1179 l 92 -162 l 1197 -162 l 1197 1179 l 92 1179 m 258 200 l 258 1114 l 406 1114 l 406 740 q 485 719 446 740 q 564 658 525 699 q 625 591 603 619 q 651 546 647 563 q 744 653 663 585 q 881 729 821 718 l 881 1114 l 1028 1114 l 1028 200 l 881 200 l 881 682 q 788 622 847 671 q 725 538 744 588 l 725 200 l 578 200 l 578 538 q 517 625 560 585 q 407 685 464 674 l 407 200 l 258 200 m 993 -96 q 970 -112 985 -103 q 940 -122 956 -122 q 935 -119 935 -122 l 935 -108 q 926 -81 935 -97 q 911 -54 918 -64 q 888 -14 899 -35 q 876 36 876 7 q 897 97 876 72 q 932 133 918 122 q 956 149 943 143 q 988 156 969 156 q 992 151 992 156 l 992 136 q 1003 107 992 119 q 1025 75 1014 94 q 1041 45 1036 58 q 1046 11 1046 32 q 1029 -53 1046 -28 q 993 -96 1013 -79 m 585 154 q 633 139 613 154 q 654 96 654 124 q 642 53 654 71 q 606 35 629 35 q 585 39 594 35 q 568 47 575 43 l 529 0 l 529 -112 l 549 -112 l 549 -121 l 468 -121 l 468 -112 l 489 -112 l 489 89 q 500 121 489 107 q 530 143 507 132 q 585 154 553 154 m 836 100 q 821 51 836 71 q 779 25 806 32 q 806 18 793 22 q 829 0 819 14 q 843 -32 840 -14 q 846 -57 846 -50 q 845 -89 846 -68 q 844 -112 844 -110 l 861 -112 l 861 -121 l 779 -121 l 779 -112 l 799 -112 q 802 -92 800 -106 q 804 -68 804 -78 q 801 -29 804 -49 q 790 0 797 -10 q 760 21 778 14 q 721 17 742 17 l 721 -112 l 743 -112 l 743 -121 l 657 -121 l 657 -112 l 679 -112 l 679 143 l 657 143 l 657 151 l 743 151 l 743 143 l 721 143 l 721 26 q 751 30 735 26 q 776 44 768 33 q 792 76 788 60 q 796 111 796 93 q 792 143 796 133 l 772 143 l 772 151 l 854 151 l 854 143 l 836 143 l 836 100 m 371 42 q 343 1 364 19 q 300 -18 322 -18 q 318 -43 318 -25 l 318 -47 q 310 -64 318 -57 q 292 -71 301 -71 l 292 -75 q 300 -99 292 -85 q 317 -114 308 -114 l 329 -114 l 329 -122 l 247 -122 l 247 -114 l 257 -114 q 275 -99 268 -114 q 282 -74 282 -83 l 282 -69 q 261 -43 261 -62 q 286 -17 261 -17 q 271 6 271 -10 q 289 38 271 26 q 329 63 307 50 q 358 100 358 78 l 358 101 q 332 118 349 118 l 328 118 q 338 100 338 114 q 315 78 338 78 q 293 99 293 78 q 300 117 293 110 l 301 117 q 332 128 315 128 q 356 119 347 128 q 371 99 365 110 l 371 142 l 349 142 l 349 150 l 433 150 l 433 142 l 413 142 l 413 -114 l 433 -114 l 433 -122 l 349 -122 l 349 -114 l 371 -114 l 371 42 m 982 146 q 933 113 946 146 q 921 36 921 79 q 925 -21 921 7 q 935 -64 929 -49 q 942 -85 939 -72 q 944 -106 944 -99 l 944 -114 q 962 -108 954 -114 q 976 -97 969 -103 q 994 -60 986 -89 q 1001 -6 1001 -32 q 999 36 1001 19 q 990 75 997 53 q 984 101 986 90 q 982 125 982 111 l 982 146 m 574 144 q 529 100 529 144 l 529 11 l 565 57 q 569 57 568 60 l 571 57 q 578 53 574 56 q 588 50 582 50 q 608 66 601 50 q 615 96 615 82 q 606 130 615 115 q 574 144 596 144 m 367 74 q 365 86 367 81 q 349 60 361 72 q 324 38 338 49 q 308 23 315 31 q 301 8 301 15 q 306 1 301 3 q 314 0 310 0 q 335 7 325 0 q 349 21 344 14 q 367 74 367 47 z "},"":{"ha":1190,"x_min":0,"x_max":1158,"o":"m 317 1094 q 299 1074 317 1085 q 258 1052 282 1063 q 211 1035 233 1042 q 178 1029 189 1029 q 152 1047 156 1029 q 142 1089 149 1064 q 137 1114 139 1101 q 135 1139 135 1126 q 167 1237 135 1196 q 236 1304 199 1278 q 294 1339 264 1324 q 360 1365 325 1354 q 433 1384 394 1376 q 508 1392 471 1392 q 641 1359 586 1392 q 742 1292 696 1326 q 850 1232 789 1256 q 971 1183 911 1208 q 999 1172 986 1178 q 1013 1151 1013 1167 q 996 1125 1013 1131 q 951 1119 979 1119 q 926 1118 939 1119 q 900 1117 914 1117 q 796 1124 849 1117 q 707 1144 743 1131 q 614 1208 654 1168 q 528 1278 574 1247 q 498 1294 514 1288 q 458 1301 482 1301 l 449 1301 q 385 1286 419 1301 q 335 1256 351 1271 q 310 1226 319 1243 q 301 1181 301 1208 q 306 1135 301 1158 q 317 1097 310 1113 l 317 1094 m 435 683 l 435 953 q 483 1053 435 1018 q 603 1088 531 1088 q 722 1049 682 1088 q 763 956 763 1011 q 720 867 763 899 q 621 836 678 836 q 586 839 604 836 q 550 847 568 842 l 546 844 l 546 683 q 518 679 529 681 q 490 678 507 678 q 463 679 474 678 q 435 683 451 681 m 546 963 q 557 892 546 917 q 597 867 568 867 q 638 892 626 867 q 650 963 650 917 q 638 1034 650 1008 q 597 1060 626 1060 q 557 1034 568 1060 q 546 963 546 1008 m 0 0 l 0 44 l 71 44 l 151 924 l 81 924 l 81 964 l 329 964 q 381 593 354 743 q 436 353 407 443 q 501 224 465 264 q 579 185 536 185 q 658 224 622 185 q 723 353 693 264 q 779 593 753 443 q 831 964 806 743 l 1079 964 l 1079 924 l 1010 924 l 1088 44 l 1158 44 l 1158 0 l 819 0 l 819 44 l 896 44 l 840 654 l 836 654 q 770 301 808 450 q 685 73 732 153 q 579 -7 638 -7 q 474 73 521 -7 q 390 301 426 153 q 325 654 353 450 l 321 654 l 265 44 l 340 44 l 340 0 l 0 0 z "},"":{"ha":938,"x_min":29,"x_max":914,"o":"m 863 1068 q 841 1037 863 1047 q 790 1022 819 1026 q 733 1013 760 1018 l 697 1013 q 633 1033 651 1019 q 605 1054 622 1042 q 565 1082 588 1067 q 538 1108 556 1094 q 499 1135 519 1121 q 415 1158 451 1158 l 404 1158 q 292 1086 335 1146 q 290 1075 290 1081 q 289 1063 289 1069 l 289 1054 q 290 1040 290 1049 q 290 1028 290 1033 q 288 1021 289 1024 q 210 996 269 996 l 186 996 q 154 1008 175 996 l 154 1021 q 172 1078 154 1053 q 203 1125 189 1104 q 271 1176 229 1156 q 372 1211 313 1196 l 442 1207 l 514 1192 q 578 1172 553 1185 q 633 1147 604 1160 l 669 1125 q 694 1110 678 1121 q 729 1091 711 1100 q 760 1082 747 1082 l 811 1082 q 833 1096 829 1082 q 836 1099 833 1099 q 863 1068 863 1099 m 525 643 q 514 667 519 647 q 508 701 508 688 q 499 722 507 714 q 480 734 493 725 q 467 757 467 743 q 475 778 467 772 q 486 787 482 783 q 492 792 490 790 l 504 817 q 510 828 507 822 q 518 842 514 835 q 544 850 525 850 l 550 850 q 576 839 565 850 l 576 831 q 547 808 575 811 q 522 792 535 807 q 508 760 508 776 q 520 740 508 749 q 539 725 532 731 q 558 678 556 710 q 553 655 557 667 q 536 643 550 643 l 525 643 m 867 -8 q 852 -6 861 -8 q 838 -4 843 -4 l 796 -4 q 762 4 774 -4 q 743 29 750 13 l 743 86 q 746 92 744 89 q 747 97 747 96 q 739 211 747 149 q 731 276 736 238 q 717 367 725 315 q 715 383 717 374 q 706 393 713 393 q 699 375 700 393 q 685 327 697 353 q 663 282 672 301 q 654 265 658 274 q 644 244 650 256 q 616 199 626 215 q 603 179 606 182 q 576 151 590 164 q 547 126 563 138 q 464 101 525 101 q 386 150 431 101 q 353 194 372 168 q 311 257 335 221 q 294 299 301 281 l 281 331 q 269 355 275 340 q 253 389 263 369 q 236 272 253 363 q 222 192 228 222 q 214 140 217 161 q 209 99 211 119 q 203 50 207 79 q 185 8 199 24 q 154 -6 175 -1 l 111 -6 q 91 -6 101 -6 q 69 -8 81 -7 q 43 -4 47 -7 q 29 19 29 -4 q 42 90 29 26 q 53 142 43 97 q 81 269 63 186 q 100 368 92 322 q 113 450 108 414 l 118 515 l 125 556 l 125 571 l 129 608 q 134 677 131 636 q 144 774 138 718 q 178 828 156 822 l 204 832 q 221 832 213 832 q 239 833 229 832 l 272 836 l 301 836 q 319 817 319 836 q 300 747 319 789 q 294 701 299 736 q 285 623 290 665 q 277 544 281 581 q 274 494 274 507 q 285 439 274 469 q 314 383 297 408 q 344 343 331 357 q 361 326 351 336 q 385 306 371 317 q 431 267 407 282 q 506 250 456 253 q 564 272 547 257 q 604 318 581 288 q 683 471 663 393 q 690 524 690 501 q 681 630 690 568 q 664 747 671 692 q 657 772 663 754 q 651 797 651 789 q 671 817 651 811 q 717 826 690 824 q 764 828 743 828 q 793 793 785 828 q 797 743 793 774 q 805 685 800 713 q 811 643 810 657 q 813 629 813 635 q 814 621 814 624 l 819 593 q 826 558 824 575 q 833 515 829 540 q 843 446 838 490 q 857 371 847 421 q 878 262 867 321 q 899 151 889 203 q 913 72 908 100 q 914 65 913 69 l 914 60 q 867 -8 914 -8 m 428 661 q 406 686 406 661 q 406 698 406 692 q 408 711 407 704 l 407 829 q 421 836 414 836 q 449 821 442 836 l 451 769 q 453 746 453 758 q 453 721 453 733 q 449 680 453 699 q 428 661 444 661 m 428 389 q 420 391 426 389 q 411 393 414 393 q 407 443 407 421 l 407 540 q 519 608 417 608 q 556 581 539 608 q 574 535 574 554 l 574 521 q 558 485 574 499 q 522 463 543 472 q 503 458 508 458 q 463 471 483 458 l 457 471 q 453 467 453 471 l 453 403 q 433 389 453 389 l 428 389 m 449 543 q 464 506 449 522 q 500 490 479 490 q 542 533 536 490 l 535 557 q 530 565 533 560 q 519 578 526 569 q 486 585 503 585 l 483 585 q 449 543 449 585 z "},"":{"ha":1738,"x_min":-1,"x_max":1736,"o":"m 1547 1008 q 1505 1034 1517 1008 q 1493 1089 1493 1060 q 1503 1128 1493 1113 q 1539 1143 1514 1143 l 1543 1143 q 1490 1168 1525 1168 q 1440 1148 1458 1168 q 1413 1096 1421 1128 q 1404 1031 1404 1064 q 1413 963 1404 988 q 1439 906 1421 938 q 1465 869 1450 889 q 1501 829 1481 850 q 1578 717 1542 789 q 1603 574 1603 669 q 1601 527 1603 551 q 1597 475 1600 503 q 1664 431 1628 460 q 1713 340 1699 403 q 1723 274 1718 315 q 1732 186 1728 233 q 1736 97 1736 139 q 1716 -87 1736 0 q 1660 -237 1696 -174 q 1529 -364 1617 -314 q 1342 -433 1442 -414 q 1239 -451 1281 -444 q 1150 -457 1197 -457 q 1072 -451 1103 -457 q 1008 -424 1040 -446 q 918 -387 968 -394 q 875 -383 893 -385 q 846 -382 857 -382 q 768 -396 822 -382 q 644 -433 710 -412 q 510 -453 579 -453 q 417 -440 463 -453 q 275 -376 346 -419 q 160 -282 204 -333 q 72 -165 108 -221 q 23 -50 38 -110 q 0 88 8 10 q -1 104 -1 96 q 0 122 0 113 q 23 245 0 188 q 75 338 46 303 q 135 408 107 375 q 200 468 164 442 q 236 563 229 492 q 251 692 243 640 q 289 803 260 744 q 367 932 321 868 q 464 1049 414 996 q 454 1101 461 1074 q 433 1149 447 1129 q 397 1169 419 1169 q 374 1155 382 1169 q 365 1124 367 1140 q 340 1088 363 1101 q 321 1076 332 1082 q 300 1071 310 1071 q 281 1092 285 1071 q 276 1132 276 1114 q 303 1205 276 1181 q 376 1239 331 1229 q 392 1241 385 1240 q 407 1242 400 1242 q 460 1226 440 1242 q 496 1189 481 1211 q 513 1126 513 1164 l 513 1110 q 608 1203 560 1163 q 708 1282 656 1243 q 786 1331 757 1318 q 841 1368 814 1344 q 896 1403 868 1392 q 928 1410 914 1410 q 973 1397 953 1410 q 1003 1365 993 1383 q 1057 1301 1021 1336 q 1142 1224 1101 1261 q 1232 1146 1182 1188 q 1278 1106 1260 1122 q 1308 1078 1297 1089 q 1336 1061 1324 1061 q 1353 1090 1353 1061 q 1368 1144 1353 1118 q 1399 1185 1383 1169 q 1453 1217 1418 1207 q 1528 1228 1489 1228 q 1607 1194 1579 1228 q 1635 1107 1635 1161 q 1624 1058 1635 1078 q 1599 1024 1613 1038 q 1578 1013 1592 1018 q 1547 1008 1565 1008 m 1515 482 q 1517 519 1515 501 q 1518 560 1518 538 l 1518 599 q 1488 715 1517 664 q 1428 807 1458 767 q 1396 853 1413 829 q 1364 904 1379 878 q 1264 1018 1333 957 q 1190 1080 1222 1054 q 1129 1131 1158 1106 q 1064 1193 1100 1157 q 992 1266 1024 1236 q 925 1342 960 1296 q 849 1301 885 1331 q 762 1233 807 1267 q 672 1160 717 1200 q 562 1049 617 1108 q 458 925 507 989 q 412 862 432 890 q 381 813 392 833 q 344 724 361 778 q 328 614 328 671 q 329 585 328 600 q 331 556 331 569 q 315 490 331 514 q 256 417 289 451 q 182 347 222 383 q 110 254 138 308 q 83 122 83 200 q 106 -14 83 54 q 151 -131 128 -82 q 246 -246 181 -189 q 356 -330 303 -297 q 493 -378 410 -362 q 518 -381 506 -379 q 543 -383 531 -383 q 622 -368 583 -383 q 683 -347 653 -357 q 744 -329 714 -337 q 798 -316 775 -321 q 836 -311 821 -311 q 948 -326 890 -311 q 1053 -362 1006 -342 q 1156 -386 1111 -386 q 1166 -386 1161 -386 q 1176 -385 1171 -386 q 1324 -353 1254 -376 q 1461 -296 1394 -329 q 1581 -195 1542 -254 q 1643 -39 1621 -136 q 1658 56 1653 10 q 1663 150 1663 103 q 1647 308 1663 240 q 1604 390 1631 374 q 1576 408 1590 400 q 1544 426 1561 417 q 1515 482 1515 443 m 383 532 q 380 582 383 554 q 376 631 376 610 q 385 686 376 665 q 400 728 392 706 q 421 781 408 751 q 453 838 433 808 q 501 899 474 868 q 619 1020 558 960 q 740 1136 681 1081 q 794 1184 772 1164 q 828 1217 815 1204 q 849 1242 839 1228 q 867 1275 860 1257 q 899 1308 879 1308 q 922 1276 922 1308 q 969 1213 922 1249 q 1063 1144 1022 1174 q 1156 1071 1104 1115 q 1291 935 1226 1008 q 1404 782 1356 863 q 1437 707 1422 753 q 1451 615 1451 661 q 1446 562 1451 586 q 1432 515 1440 538 q 1426 497 1428 506 q 1425 479 1425 488 q 1440 438 1425 454 q 1478 411 1456 421 q 1556 367 1514 394 q 1613 292 1597 336 q 1629 176 1629 249 q 1618 48 1629 113 q 1588 -72 1607 -17 q 1540 -162 1568 -126 q 1479 -219 1518 -192 q 1397 -269 1440 -247 q 1313 -304 1353 -292 q 1240 -319 1282 -314 q 1157 -325 1199 -325 q 997 -293 1064 -325 q 881 -218 929 -261 q 753 -285 828 -251 q 581 -319 679 -319 q 487 -310 532 -319 q 401 -286 442 -300 q 289 -222 343 -267 q 238 -175 260 -200 q 204 -121 217 -150 q 158 -12 178 -64 q 138 115 138 39 q 170 252 138 193 q 250 346 203 311 q 321 404 286 374 q 374 474 356 435 q 383 532 383 493 m 899 1194 q 822 1111 856 1153 q 747 1031 789 1069 q 706 993 729 1013 q 654 951 682 974 q 562 854 604 911 q 490 740 519 797 q 462 669 475 711 q 449 582 449 626 q 457 525 449 553 q 461 497 461 511 q 442 440 461 468 q 376 358 417 401 q 294 293 335 314 q 233 223 254 271 q 213 118 213 175 q 219 49 213 83 q 235 -12 226 15 q 279 -101 249 -54 q 340 -171 310 -147 q 431 -224 379 -201 q 550 -246 483 -246 q 696 -224 626 -246 q 815 -179 765 -201 q 864 -146 842 -168 q 893 -128 882 -128 q 922 -153 906 -128 q 1013 -231 954 -197 q 1149 -265 1071 -265 q 1179 -264 1164 -265 q 1211 -260 1194 -262 q 1370 -201 1301 -243 q 1479 -93 1439 -160 q 1531 15 1507 -49 q 1556 149 1556 78 q 1547 225 1556 188 q 1519 294 1536 272 q 1467 333 1503 315 q 1409 367 1439 349 q 1361 408 1379 385 q 1351 444 1351 419 q 1352 458 1351 451 q 1354 472 1353 465 q 1365 532 1360 500 q 1369 599 1369 564 q 1367 639 1369 618 q 1360 676 1365 660 q 1324 765 1344 729 q 1278 843 1304 800 q 1194 944 1247 892 q 1093 1032 1142 996 q 1020 1083 1051 1061 q 960 1130 989 1104 q 899 1194 932 1156 m 946 526 q 944 477 946 506 q 934 427 942 449 q 908 406 926 406 q 885 417 894 406 q 871 442 875 429 q 858 526 864 465 q 836 672 853 601 q 819 822 819 742 q 824 874 819 850 q 838 917 828 899 q 892 979 858 954 q 983 1004 926 1004 q 1069 991 1036 1004 q 1132 954 1101 978 q 1172 917 1156 936 q 1188 867 1188 899 q 1180 821 1188 842 q 1161 790 1172 800 q 1120 762 1146 778 q 1064 746 1094 746 q 1010 758 1029 746 q 963 769 990 769 q 925 733 925 769 q 926 710 925 724 q 932 682 928 697 q 942 613 939 658 q 946 526 946 568 m 974 944 q 925 922 943 944 q 896 876 907 900 q 894 868 894 872 q 893 861 893 864 q 917 830 893 839 q 968 821 942 821 q 1035 830 1004 821 q 1081 858 1067 839 q 1085 872 1085 865 q 1072 899 1085 888 q 1053 917 1060 911 q 1019 934 1043 924 q 974 944 996 944 m 408 197 q 421 231 414 222 q 441 242 428 240 q 478 244 454 243 q 521 285 504 246 l 553 364 l 576 438 q 583 492 581 465 q 593 546 585 519 l 614 610 l 658 635 l 714 635 l 740 574 l 758 474 l 796 379 l 863 292 l 933 264 l 976 314 l 1008 396 l 1031 483 l 1047 576 l 1065 644 l 1128 665 l 1200 656 l 1231 606 l 1253 506 l 1279 374 l 1279 276 l 1317 224 l 1353 208 l 1356 228 l 1346 250 l 1353 279 l 1385 292 l 1418 267 l 1442 219 l 1442 164 l 1389 124 l 1304 124 l 1224 189 l 1186 310 l 1175 479 l 1157 582 l 1126 594 l 1114 528 l 1113 410 l 1097 311 l 1063 215 l 974 147 l 847 158 l 758 211 l 718 289 l 700 383 l 690 471 l 685 526 l 674 551 l 651 553 l 635 507 l 628 425 l 619 342 l 604 244 l 571 169 l 475 150 l 408 197 m 744 -149 q 701 -143 722 -146 q 681 -117 681 -140 q 683 -76 681 -110 q 688 1 685 -42 q 694 77 692 43 q 699 115 697 111 q 706 141 703 131 q 729 151 710 151 q 761 143 753 151 q 779 121 769 135 q 790 78 786 111 q 797 11 794 46 q 801 -39 800 -24 q 804 -62 803 -49 q 806 -90 806 -76 q 801 -124 806 -108 q 786 -144 797 -140 q 744 -149 769 -150 m 1001 53 q 1050 82 1033 54 q 1076 110 1058 97 q 1117 124 1093 124 q 1152 110 1139 124 q 1175 83 1165 96 q 1175 46 1188 69 q 1126 19 1165 24 q 1085 8 1110 18 q 1060 -14 1060 -3 q 1082 -31 1060 -22 q 1139 -60 1117 -43 q 1182 -86 1163 -78 q 1203 -110 1196 -92 q 1211 -147 1211 -128 l 1211 -158 q 1181 -185 1210 -178 q 1129 -192 1153 -192 q 1088 -161 1097 -192 q 1050 -119 1078 -129 q 1023 -106 1036 -114 q 997 -89 1010 -99 q 938 -62 972 -68 q 901 -28 901 -56 q 931 34 903 17 q 1001 53 958 51 z "},"":{"ha":1038,"x_min":63,"x_max":989,"o":"m 989 1443 q 976 1371 981 1396 q 965 1327 972 1346 q 940 1279 958 1308 q 793 1172 892 1197 q 766 1167 779 1169 q 738 1165 753 1165 q 661 1174 701 1165 q 603 1193 621 1183 q 537 1235 568 1213 q 482 1279 506 1258 l 426 1328 q 365 1363 393 1358 l 351 1363 q 294 1338 311 1363 q 264 1281 276 1313 q 259 1254 261 1271 q 254 1214 257 1238 l 246 1151 l 221 1156 q 207 1158 214 1157 q 193 1158 200 1158 l 183 1158 q 143 1156 143 1158 l 110 1151 q 94 1149 103 1150 q 79 1146 86 1147 l 75 1153 q 103 1267 75 1211 q 165 1349 131 1322 q 213 1383 192 1371 q 282 1407 235 1396 q 328 1412 301 1410 q 390 1414 356 1414 q 461 1403 431 1414 q 481 1392 464 1401 q 528 1363 497 1382 q 583 1318 557 1343 q 636 1268 608 1293 q 677 1242 654 1254 q 731 1231 700 1231 l 749 1231 q 778 1253 768 1235 q 790 1292 788 1272 l 800 1331 l 807 1383 q 811 1418 810 1403 q 813 1443 813 1433 l 813 1450 l 853 1442 q 868 1440 860 1440 q 888 1439 876 1439 l 918 1439 q 938 1441 929 1439 q 953 1444 947 1443 l 985 1450 l 989 1443 m 535 1075 q 696 910 696 1075 q 665 835 696 854 q 582 817 635 817 q 490 833 536 817 l 490 642 l 367 642 l 367 907 q 404 1031 367 988 q 517 1075 442 1075 l 535 1075 m 63 0 l 63 1057 l 232 1057 l 232 625 q 415 529 324 625 q 517 400 506 439 q 549 453 524 422 q 622 524 575 485 q 782 611 708 600 l 782 1057 l 951 1057 l 951 0 l 782 0 l 782 557 q 675 489 740 543 q 601 390 622 447 l 601 0 l 432 0 l 432 390 q 385 465 417 429 q 315 528 354 501 q 233 561 275 554 l 233 0 l 63 0 m 490 869 q 508 868 500 868 q 525 868 517 868 q 591 881 565 868 q 622 919 617 893 q 624 931 625 926 q 622 942 622 936 q 606 985 622 965 q 558 1014 590 1004 q 549 1015 553 1017 q 539 1014 544 1014 q 489 900 489 1014 q 490 885 489 893 q 490 869 490 878 z "},"ú":{"ha":743,"x_min":39,"x_max":725,"o":"m 353 683 l 317 703 l 406 924 q 464 935 415 929 q 513 939 496 939 q 525 938 521 939 l 529 924 l 353 683 m 725 71 l 725 33 q 615 11 682 28 q 513 -17 540 -8 l 503 -8 l 503 88 q 406 19 440 39 q 296 -17 344 -17 q 171 35 218 -17 q 122 189 122 85 l 122 464 q 114 529 122 514 q 76 551 104 544 l 39 560 l 39 593 q 144 603 65 594 q 249 618 179 607 q 244 415 244 572 l 244 225 q 363 74 244 74 q 503 136 439 74 l 503 463 q 493 531 503 515 q 447 551 482 544 l 399 560 l 399 593 q 526 604 460 596 q 625 618 560 607 l 625 157 q 638 90 625 106 q 689 72 649 75 l 725 71 z "},"û":{"ha":743,"x_min":39,"x_max":725,"o":"m 525 706 l 490 681 q 365 814 436 729 q 240 681 289 724 l 206 706 q 347 935 279 808 l 385 935 q 525 706 458 800 m 725 71 l 725 33 q 615 11 682 28 q 513 -17 540 -8 l 503 -8 l 503 88 q 406 19 440 39 q 296 -17 344 -17 q 171 35 218 -17 q 122 189 122 85 l 122 464 q 114 529 122 514 q 76 551 104 544 l 39 560 l 39 593 q 144 603 65 594 q 249 618 179 607 q 244 415 244 572 l 244 225 q 363 74 244 74 q 503 136 439 74 l 503 463 q 493 531 503 515 q 447 551 482 544 l 399 560 l 399 593 q 526 604 460 596 q 625 618 560 607 l 625 157 q 638 90 625 106 q 689 72 649 75 l 725 71 z "},"ü":{"ha":743,"x_min":39,"x_max":725,"o":"m 238 743 q 189 765 210 743 q 168 815 168 786 q 189 867 168 846 q 239 888 210 888 q 290 867 269 888 q 310 815 310 846 q 289 765 310 786 q 238 743 268 743 m 482 743 q 432 764 453 743 q 411 814 411 785 q 432 867 411 844 q 483 888 453 888 q 533 867 513 888 q 553 814 553 844 q 533 764 553 785 q 482 743 513 743 m 725 71 l 725 33 q 615 11 682 28 q 513 -17 540 -8 l 503 -8 l 503 88 q 406 19 440 39 q 296 -17 344 -17 q 171 35 218 -17 q 122 189 122 85 l 122 464 q 114 531 122 515 q 76 551 104 544 l 39 560 l 39 594 q 144 603 88 597 q 249 618 179 607 q 244 415 244 572 l 244 225 q 363 74 244 74 q 503 136 439 74 l 503 464 q 493 531 503 515 q 447 551 482 546 l 399 560 l 399 594 q 526 604 447 596 q 625 618 560 607 l 625 157 q 638 90 625 106 q 689 72 649 75 l 725 71 z "},"ù":{"ha":743,"x_min":39,"x_max":725,"o":"m 411 700 l 374 681 l 207 903 l 211 915 q 267 931 222 922 q 315 936 299 936 q 325 935 321 936 q 411 700 329 926 m 725 71 l 725 33 q 615 11 682 28 q 513 -17 540 -8 l 503 -8 l 503 88 q 406 19 440 39 q 296 -17 344 -17 q 171 35 218 -17 q 122 189 122 85 l 122 464 q 114 529 122 514 q 76 551 104 544 l 39 560 l 39 593 q 144 603 65 594 q 249 618 179 607 q 244 415 244 572 l 244 225 q 363 74 244 74 q 503 136 439 74 l 503 463 q 493 531 503 515 q 447 551 482 544 l 399 560 l 399 593 q 526 604 460 596 q 625 618 560 607 l 625 157 q 638 90 625 106 q 689 72 649 75 l 725 71 z "},"\u0000":{"ha":1,"x_min":0,"x_max":0,"o":""},"\r":{"ha":417,"x_min":0,"x_max":0,"o":""}," ":{"ha":417,"x_min":0,"x_max":0,"o":""},"!":{"ha":308,"x_min":56,"x_max":250,"o":"m 163 247 q 154 243 163 243 q 146 247 146 243 q 115 556 132 400 q 79 858 99 711 q 65 952 74 911 q 56 1024 56 993 q 61 1038 56 1031 q 72 1044 67 1044 l 75 1044 q 147 1040 107 1043 q 217 1033 186 1036 q 228 1025 222 1032 q 231 1011 233 1018 q 226 973 229 996 q 221 922 224 950 l 208 794 q 196 645 203 725 q 182 493 189 565 q 171 367 176 432 q 163 247 165 301 m 56 88 q 85 155 56 128 q 156 182 115 182 q 223 152 196 182 q 250 82 250 122 q 221 16 250 43 q 151 -11 192 -11 q 83 18 111 -11 q 56 88 56 47 z "},"\"":{"ha":561,"x_min":14,"x_max":547,"o":"m 183 1018 q 228 998 211 1018 q 253 949 246 978 q 261 890 261 919 q 238 778 261 828 q 177 690 214 728 q 100 629 140 653 q 93 628 97 628 q 94 643 85 628 q 157 738 128 688 q 183 831 183 785 q 176 879 183 856 q 136 910 168 903 q 122 911 131 911 q 68 894 92 911 q 31 860 44 878 q 19 856 25 854 q 19 868 14 858 q 74 956 39 914 q 157 1014 110 997 q 183 1018 169 1018 m 469 1018 q 515 998 497 1018 q 540 949 532 978 q 547 890 547 919 q 524 778 547 828 q 463 690 500 728 q 386 629 426 653 q 379 628 383 628 q 381 643 371 628 q 443 738 414 688 q 469 831 469 785 q 462 879 469 856 q 422 910 454 903 q 408 911 417 911 q 354 894 378 911 q 317 860 331 878 q 306 856 311 854 q 306 868 300 858 q 360 956 325 914 q 443 1014 396 997 q 469 1018 456 1018 z "},"#":{"ha":724,"x_min":7,"x_max":689,"o":"m 654 376 l 654 300 l 503 300 l 460 0 l 379 0 l 422 300 l 236 300 l 190 0 l 110 0 l 156 300 l 7 300 l 7 376 l 168 376 l 197 563 l 44 563 l 44 639 l 208 639 l 251 919 l 332 919 l 289 639 l 474 639 l 515 919 l 596 919 l 554 639 l 689 639 l 689 563 l 543 563 l 515 376 l 654 376 m 463 563 l 278 563 l 249 376 l 435 376 l 463 563 z "},"$":{"ha":694,"x_min":61,"x_max":635,"o":"m 319 0 q 215 7 257 0 q 138 30 174 14 q 61 71 103 46 l 61 251 l 82 251 q 157 97 104 154 q 319 39 210 39 l 319 431 q 128 567 183 507 q 72 711 72 628 q 106 824 72 781 q 195 892 139 868 q 319 922 251 915 l 319 1010 l 367 1010 l 367 922 q 590 849 525 903 l 590 694 l 569 694 q 504 827 551 781 q 367 885 457 874 l 367 543 q 443 499 401 522 q 517 453 485 475 q 547 432 538 440 q 565 414 557 424 q 589 386 574 404 q 615 346 608 364 q 628 296 622 328 q 633 267 632 282 q 635 236 635 251 q 619 145 635 185 q 569 78 604 106 q 485 31 536 50 q 367 0 433 11 l 367 -121 l 319 -121 l 319 0 m 319 565 l 319 885 q 175 742 175 856 q 203 658 175 694 q 247 617 218 640 q 319 565 276 594 m 367 407 l 367 39 q 525 203 525 71 q 494 306 525 269 q 367 407 463 347 z "},"%":{"ha":1132,"x_min":85,"x_max":1072,"o":"m 249 401 q 166 426 203 401 q 107 492 129 451 q 85 578 85 532 q 178 814 85 708 q 392 919 274 919 q 461 900 436 919 q 524 862 492 879 q 610 844 556 844 q 722 865 676 844 q 773 894 747 876 q 826 939 799 913 l 881 939 l 346 -18 l 279 -18 l 767 851 q 614 810 694 810 q 524 824 557 810 q 533 763 533 790 q 450 517 533 633 q 249 401 368 401 m 190 533 q 213 473 190 497 q 272 449 236 449 q 428 547 357 449 q 499 765 499 647 q 486 833 499 792 q 446 847 467 839 q 414 864 425 854 q 404 873 410 868 q 392 878 399 878 q 258 756 325 878 q 190 533 190 636 m 790 0 q 669 51 714 0 q 624 179 624 101 q 717 413 624 308 q 929 515 813 515 q 1035 476 999 515 q 1072 367 1072 436 q 1037 198 1072 276 q 953 71 1001 119 q 790 0 882 0 m 729 131 q 753 67 729 92 q 814 42 776 42 q 899 71 861 42 q 965 141 938 100 q 1008 219 993 182 q 1036 360 1036 296 q 1008 437 1036 403 q 939 471 981 471 q 872 448 903 471 q 817 390 842 425 q 776 318 793 356 q 750 250 758 281 q 729 131 729 175 z "},"&":{"ha":1075,"x_min":29,"x_max":969,"o":"m 161 -33 q 70 -6 111 -33 q 29 68 29 21 q 31 101 29 83 q 39 136 33 118 q 147 351 74 268 q 331 489 221 433 l 331 511 q 324 516 328 514 q 318 521 321 518 q 292 541 304 532 q 269 558 281 550 q 209 601 239 582 q 151 643 179 621 q 150 644 150 644 l 150 644 q 150 643 151 642 l 150 644 q 150 644 150 644 l 153 667 q 181 706 168 689 q 204 738 194 724 q 288 840 247 797 q 386 939 329 882 l 438 990 l 439 990 l 453 1004 q 488 1018 468 1018 q 510 1016 496 1018 q 543 1007 525 1014 q 584 993 563 1001 q 631 975 606 985 q 658 954 651 967 q 665 914 665 942 q 536 596 665 757 l 539 576 q 614 512 581 542 q 686 446 647 482 l 707 449 q 735 487 722 469 q 757 519 747 504 q 819 618 793 569 q 871 729 844 667 l 950 742 q 917 668 936 700 q 875 600 899 636 q 874 598 874 599 q 876 599 874 597 q 860 575 868 583 q 842 553 853 567 q 801 503 819 526 q 756 446 783 481 l 754 443 l 746 431 q 741 424 743 426 q 736 418 739 421 l 736 401 l 969 150 l 968 139 l 839 -19 l 826 -22 q 803 10 813 -4 q 781 40 794 24 q 738 91 758 65 q 690 146 718 117 q 655 192 672 168 q 618 239 638 215 l 599 239 q 509 158 561 204 q 397 69 457 113 q 275 -4 336 25 q 161 -33 214 -33 m 329 758 q 330 758 329 757 q 331 757 331 760 l 336 747 q 358 730 347 739 q 376 714 368 721 q 394 701 390 704 q 413 686 399 697 q 455 651 436 668 q 499 611 474 633 l 519 615 q 544 658 535 640 q 558 688 553 675 q 569 735 569 714 q 556 788 569 764 q 503 848 539 824 q 417 872 468 872 q 349 849 379 872 q 319 789 319 826 q 323 773 319 779 q 329 758 326 767 m 557 292 l 394 458 l 381 461 q 303 422 338 443 q 250 376 269 400 q 208 267 208 331 q 217 225 208 246 q 252 176 228 200 q 311 153 276 153 l 314 153 q 340 157 324 153 q 400 172 369 163 q 453 196 431 182 q 507 228 486 211 q 557 272 528 246 l 557 292 z "},"'":{"ha":276,"x_min":14,"x_max":261,"o":"m 183 1018 q 228 998 211 1018 q 253 949 246 978 q 261 890 261 919 q 238 778 261 828 q 177 690 214 728 q 100 629 140 653 q 93 628 97 628 q 94 643 85 628 q 157 738 128 688 q 183 831 183 785 q 176 879 183 856 q 136 910 168 903 q 122 911 131 911 q 68 894 92 911 q 31 860 44 878 q 19 856 25 854 q 19 868 14 858 q 74 956 39 914 q 157 1014 110 997 q 183 1018 169 1018 z "},"(":{"ha":443,"x_min":71,"x_max":504,"o":"m 504 -603 q 441 -583 472 -597 q 382 -546 410 -569 q 268 -413 317 -492 q 185 -242 219 -335 q 125 -51 150 -149 q 85 163 100 47 q 71 396 71 278 l 71 424 q 103 759 71 600 q 186 1049 136 918 q 269 1219 222 1140 q 379 1354 315 1297 q 504 1421 438 1407 l 504 1389 q 397 1315 439 1368 q 328 1197 356 1263 q 265 976 286 1099 q 238 719 244 854 q 231 443 231 583 l 231 396 q 244 84 231 238 q 286 -200 258 -69 q 336 -367 307 -293 q 402 -486 363 -432 q 504 -561 442 -540 l 504 -603 z "},")":{"ha":443,"x_min":-61,"x_max":372,"o":"m 372 396 q 338 51 372 215 q 253 -249 304 -114 q 171 -415 218 -337 q 61 -546 124 -493 q 2 -583 33 -569 q -61 -603 -29 -597 l -61 -561 q 42 -486 3 -540 q 108 -368 82 -432 q 177 -106 156 -251 q 207 194 199 39 q 210 297 210 247 q 213 396 211 347 l 213 460 q 202 765 213 614 q 164 1042 192 915 q 116 1197 146 1124 q 40 1321 86 1271 q -7 1362 18 1344 q -61 1389 -32 1379 l -61 1421 q 64 1354 6 1407 q 223 1130 163 1265 q 321 842 283 994 q 358 642 344 747 q 372 424 372 536 l 372 396 z "},"*":{"ha":538,"x_min":29,"x_max":522,"o":"m 389 701 l 453 572 l 324 635 l 275 501 l 228 635 l 101 572 l 163 701 l 29 749 l 160 796 l 99 924 l 228 861 l 275 994 l 324 861 l 453 924 l 389 796 l 522 749 l 389 701 m 358 783 l 406 878 l 310 833 l 275 929 l 240 832 l 146 876 l 190 783 l 94 749 l 192 713 l 146 618 l 240 664 l 275 567 l 310 664 l 406 618 l 358 713 l 457 749 l 358 783 z "},"+":{"ha":629,"x_min":0,"x_max":625,"o":"m 0 467 l 250 467 l 250 722 l 385 722 l 385 467 l 625 467 l 625 333 l 385 333 l 385 67 l 250 67 l 250 333 l 0 333 l 0 467 z "},",":{"ha":422,"x_min":46,"x_max":353,"o":"m 251 -31 q 229 40 251 10 q 169 71 207 71 q 68 14 118 71 q 54 9 63 7 q 46 18 46 11 q 47 24 46 22 q 87 94 67 68 q 139 153 107 121 q 188 188 157 171 q 251 204 218 204 q 330 160 307 204 q 353 60 353 117 q 319 -74 353 -17 q 243 -167 285 -132 q 219 -187 240 -169 q 175 -219 199 -204 q 139 -235 151 -235 q 132 -227 129 -235 q 140 -215 135 -219 q 205 -159 178 -193 q 244 -79 232 -125 q 251 -31 251 -51 z "},"":{"ha":306,"x_min":60,"x_max":236,"o":"m 144 132 q 211 94 186 132 q 236 -6 236 57 q 213 -92 236 -54 q 151 -153 189 -129 q 72 -185 114 -178 q 60 -151 60 -172 q 124 -121 96 -142 q 167 -77 151 -100 q 182 -40 182 -54 q 167 -9 182 -17 q 132 0 151 -1 q 92 17 114 3 q 71 64 71 31 q 92 113 71 93 q 144 132 113 132 z "},"-":{"ha":521,"x_min":19,"x_max":501,"o":"m 457 467 q 493 447 485 467 q 501 399 501 426 q 493 352 501 371 q 457 333 485 333 l 64 333 q 28 352 36 333 q 19 399 19 371 q 28 447 19 426 q 64 467 36 467 l 457 467 z "},".":{"ha":300,"x_min":47,"x_max":244,"o":"m 47 74 q 77 143 47 114 q 146 172 107 172 q 215 143 186 172 q 244 74 244 114 q 215 5 244 35 q 146 -25 186 -25 q 77 5 107 -25 q 47 74 47 35 z "},"":{"ha":306,"x_min":79,"x_max":226,"o":"m 79 60 q 101 112 79 90 q 153 133 122 133 q 205 112 183 133 q 226 60 226 90 q 205 8 226 29 q 153 -14 183 -14 q 101 8 122 -14 q 79 60 79 29 z "},"/":{"ha":563,"x_min":-74,"x_max":585,"o":"m 8 -393 l -74 -393 l 503 1401 l 585 1401 l 8 -393 z "},"":{"ha":739,"x_min":26,"x_max":711,"o":"m 613 200 q 394 -6 504 -6 q 218 113 324 -6 q 88 297 139 204 q 26 544 26 413 q 196 907 26 753 q 383 1057 357 1057 q 601 831 485 1057 q 711 508 711 625 q 613 200 711 390 m 478 640 q 258 861 343 861 q 161 785 204 861 q 122 661 122 717 q 257 367 122 556 q 493 172 397 172 l 510 175 q 576 242 547 192 q 606 332 606 292 q 478 640 606 429 z "},"":{"ha":582,"x_min":79,"x_max":547,"o":"m 114 0 l 114 44 l 224 44 l 224 771 q 169 865 224 865 q 89 851 117 865 l 79 906 q 438 1050 258 936 l 438 44 l 547 44 l 547 0 l 114 0 z "},"":{"ha":735,"x_min":56,"x_max":707,"o":"m 393 178 q 449 174 411 178 q 524 165 486 169 q 579 161 563 161 q 674 224 635 161 l 707 194 l 608 -17 q 554 -5 599 -14 q 432 14 510 4 q 356 21 389 19 q 300 22 324 22 l 260 22 q 97 -15 150 22 l 58 26 q 486 660 486 474 q 329 843 486 843 q 267 828 300 843 q 211 794 235 813 l 144 729 l 56 817 q 404 1043 178 1043 q 533 1014 474 1043 q 628 933 592 985 q 664 813 664 881 q 269 151 664 607 q 393 178 321 178 z "},"":{"ha":768,"x_min":50,"x_max":732,"o":"m 432 1043 q 550 1022 494 1043 q 640 961 606 1001 q 675 861 675 921 q 625 724 675 790 l 526 613 l 532 603 q 612 587 576 603 q 674 547 647 571 q 732 413 732 496 q 524 89 732 238 q 158 -68 349 -33 l 124 8 q 503 339 503 104 q 456 447 503 408 q 339 486 410 486 q 221 450 296 486 l 192 506 q 278 547 232 518 q 367 614 325 575 q 435 698 408 653 q 463 789 463 743 q 422 863 463 838 q 329 889 381 889 q 124 756 199 889 l 50 807 q 432 1043 175 1043 z "},"":{"ha":910,"x_min":29,"x_max":860,"o":"m 810 271 q 760 278 789 271 q 692 292 731 285 l 692 44 l 794 44 l 794 0 l 382 0 l 382 44 l 499 44 l 499 292 l 372 292 q 53 243 143 292 l 29 342 q 321 722 181 564 q 589 972 461 879 q 607 985 589 972 q 639 1010 625 999 q 658 1024 649 1018 q 678 1050 668 1031 l 746 1022 q 692 775 692 901 l 692 431 l 697 431 q 860 468 783 431 l 810 271 m 193 414 q 256 415 214 414 q 346 419 297 417 q 436 424 394 422 q 499 425 478 425 l 499 800 q 338 638 418 735 q 176 414 258 542 l 193 414 z "},"":{"ha":653,"x_min":43,"x_max":628,"o":"m 89 17 q 204 54 146 28 q 311 121 263 81 q 389 213 360 161 q 418 325 418 264 q 319 474 418 419 l 140 551 q 43 692 43 601 q 168 1015 43 776 q 385 1001 311 1015 q 461 988 458 988 q 589 1050 550 988 l 628 1040 q 553 854 606 1000 q 432 846 507 846 l 361 846 q 178 871 310 846 q 175 865 175 868 q 156 813 156 833 q 274 701 156 732 q 428 660 374 675 q 492 640 482 644 q 610 431 610 581 q 449 106 610 251 q 114 -53 296 -31 l 89 17 z "},"":{"ha":774,"x_min":49,"x_max":743,"o":"m 297 585 q 331 625 308 600 q 382 676 354 650 q 437 719 410 701 q 483 736 464 736 q 657 611 568 736 q 743 404 743 492 q 618 147 743 308 q 400 -19 488 -19 q 167 142 290 -19 q 49 418 49 294 q 543 1083 49 668 l 586 1043 l 357 800 q 225 503 225 639 q 319 276 225 375 q 524 124 378 217 l 597 199 q 632 293 632 242 q 539 472 632 381 q 354 564 447 564 q 325 560 340 564 l 297 585 z "},"":{"ha":765,"x_min":81,"x_max":744,"o":"m 744 1007 q 665 877 714 969 q 547 636 615 785 q 444 402 486 501 q 383 239 403 303 q 340 -26 340 111 q 349 -128 340 -92 q 183 -93 257 -93 l 164 -93 q 208 77 178 -15 q 277 269 238 169 q 362 465 317 368 q 451 650 407 563 q 535 806 496 738 l 250 806 q 151 761 167 806 l 81 786 q 112 891 92 829 q 158 1033 132 953 q 383 1014 225 1014 q 692 1050 600 1014 l 744 1007 z "},"":{"ha":825,"x_min":79,"x_max":779,"o":"m 635 83 q 408 -19 494 -19 q 196 97 315 -19 q 79 311 79 214 q 249 536 79 442 q 113 729 113 626 q 225 936 113 831 q 438 1043 339 1043 q 631 946 528 1043 q 733 760 733 847 q 574 558 733 676 q 670 492 633 519 q 721 449 707 464 q 779 279 779 385 q 635 83 779 194 m 315 922 q 260 894 288 922 q 233 838 233 867 q 347 688 233 760 q 528 592 386 660 q 607 696 607 628 q 496 842 607 763 q 315 922 386 922 m 282 274 q 323 233 294 261 q 388 175 351 206 q 460 123 424 144 q 525 101 496 101 q 547 106 538 101 l 594 138 q 635 218 635 169 q 579 332 635 285 q 520 377 557 351 q 433 433 483 403 q 290 503 319 503 q 235 470 258 503 q 211 406 211 438 q 229 338 211 371 q 282 274 247 306 z "},"":{"ha":792,"x_min":58,"x_max":750,"o":"m 504 446 q 470 403 492 428 q 422 353 449 378 q 368 313 394 329 q 318 296 342 296 q 143 419 233 296 q 58 626 58 538 q 268 957 58 781 l 329 1010 q 403 1043 374 1043 q 626 896 501 1043 q 750 631 750 747 q 572 249 750 456 q 462 134 540 210 q 257 -56 383 58 l 210 0 q 297 76 249 31 q 394 178 346 122 q 482 296 442 235 q 547 419 522 357 q 572 536 572 481 q 476 757 572 664 q 276 907 458 776 q 168 735 168 815 q 258 554 168 640 q 447 468 349 468 q 462 468 454 468 q 475 469 469 468 l 504 446 z "},":":{"ha":383,"x_min":93,"x_max":300,"o":"m 200 353 q 194 350 199 350 q 189 353 190 350 l 94 464 q 94 468 93 467 q 94 471 94 469 q 94 474 94 472 q 94 476 93 475 l 189 586 q 194 589 192 589 q 200 586 197 589 l 299 476 q 300 471 300 475 q 299 467 300 468 l 200 353 m 200 -17 q 194 -19 199 -19 q 189 -17 190 -19 l 94 94 q 94 99 93 97 q 94 101 94 100 q 94 104 94 103 q 94 107 93 106 l 189 217 q 200 217 194 222 l 299 107 q 300 101 300 106 q 299 97 300 99 l 200 -17 z "},"":{"ha":328,"x_min":97,"x_max":244,"o":"m 97 493 q 119 545 97 524 q 171 567 140 567 q 223 545 201 567 q 244 493 244 524 q 223 441 244 463 q 171 419 201 419 q 119 441 140 419 q 97 493 97 463 m 97 100 q 119 152 97 131 q 171 174 140 174 q 223 152 201 174 q 244 100 244 131 q 223 48 244 69 q 171 26 201 26 q 119 48 140 26 q 97 100 97 69 z "},";":{"ha":413,"x_min":49,"x_max":340,"o":"m 89 401 q 118 470 89 442 q 186 499 147 499 q 255 470 226 499 q 283 401 283 442 q 255 333 283 363 q 186 304 226 304 q 118 333 147 304 q 89 401 89 363 m 233 -22 q 219 37 233 14 q 169 60 204 60 q 118 45 143 60 q 78 15 93 31 q 60 14 71 8 q 49 28 49 19 q 69 94 49 61 q 119 152 90 126 q 172 189 149 178 q 233 204 203 204 q 295 182 272 204 q 329 124 318 160 q 340 51 340 89 q 308 -81 340 -24 q 238 -178 276 -139 q 176 -221 206 -207 q 164 -224 168 -224 q 155 -219 157 -224 q 158 -208 153 -214 q 210 -126 186 -179 q 233 -22 233 -74 z "},"":{"ha":328,"x_min":86,"x_max":263,"o":"m 97 493 q 119 545 97 524 q 171 567 140 567 q 223 545 201 567 q 244 493 244 524 q 223 441 244 463 q 171 419 201 419 q 119 441 140 419 q 97 493 97 463 m 171 132 q 238 94 213 132 q 263 -6 263 57 q 239 -92 263 -54 q 178 -153 215 -129 q 99 -185 140 -178 q 86 -151 86 -172 q 150 -121 122 -142 q 193 -77 178 -100 q 208 -40 208 -54 q 193 -9 208 -17 q 158 0 178 -1 q 119 17 140 3 q 97 64 97 31 q 118 113 97 93 q 171 132 139 132 z "},"<":{"ha":849,"x_min":56,"x_max":810,"o":"m 810 706 l 224 411 l 810 118 l 810 35 l 56 411 l 810 789 l 810 706 z "},"=":{"ha":522,"x_min":19,"x_max":503,"o":"m 458 682 q 494 662 486 682 q 503 614 503 642 q 494 567 503 586 q 458 549 486 549 l 64 549 q 28 567 38 549 q 19 614 19 586 q 28 662 19 642 q 64 682 38 682 l 458 682 m 457 415 q 493 395 485 415 q 501 347 501 375 q 493 301 501 319 q 457 282 485 282 l 64 282 q 28 301 36 282 q 19 347 19 319 q 28 395 19 375 q 64 415 36 415 l 457 415 z "},">":{"ha":833,"x_min":56,"x_max":810,"o":"m 56 117 l 643 411 l 56 706 l 56 789 l 810 411 l 56 35 l 56 117 z "},"?":{"ha":511,"x_min":60,"x_max":474,"o":"m 179 1085 q 320 1060 253 1085 q 431 987 388 1035 q 474 869 474 939 q 353 676 474 772 l 304 636 q 208 510 208 560 q 322 396 208 433 q 224 290 267 361 q 97 388 132 329 q 218 622 117 492 l 251 667 q 338 825 338 776 q 302 908 338 875 q 213 958 267 942 q 106 975 160 975 q 87 974 99 975 q 60 972 75 974 q 128 1082 100 1017 q 154 1084 142 1083 q 179 1085 167 1085 m 306 117 q 194 6 243 85 q 83 117 147 82 q 194 228 146 149 q 306 117 243 149 z "},"@":{"ha":1279,"x_min":161,"x_max":1124,"o":"m 568 199 q 503 222 531 199 q 461 281 476 244 q 446 356 446 317 q 525 593 446 481 q 718 706 603 706 q 775 692 751 706 q 796 669 785 683 q 818 633 807 656 l 832 686 l 928 686 l 838 333 q 835 319 836 325 q 835 308 835 313 q 889 244 835 244 q 1013 329 957 244 q 1068 518 1068 414 q 950 785 1068 675 q 669 896 832 896 q 386 767 494 896 q 278 449 278 636 q 392 151 278 267 q 683 35 507 35 q 956 101 808 35 l 972 60 q 881 23 921 38 q 808 0 840 8 q 742 -14 776 -8 q 671 -19 707 -19 q 308 117 457 -19 q 161 453 161 251 q 308 797 161 654 q 668 939 458 939 q 992 822 863 939 q 1124 532 1124 704 q 1047 297 1124 396 q 868 200 971 200 q 783 228 818 200 q 742 300 747 256 q 568 199 665 199 m 544 378 q 565 295 544 331 q 628 260 585 260 q 744 364 694 260 q 794 564 794 468 q 780 622 794 600 q 733 644 765 644 q 611 567 675 644 q 544 378 544 492 z "},"A":{"ha":993,"x_min":0,"x_max":958,"o":"m 239 165 q 231 144 238 161 q 217 110 224 126 q 211 89 211 93 q 244 53 211 61 q 311 43 276 46 q 317 19 317 38 q 311 0 317 6 l 10 0 q 3 8 7 3 q 0 19 0 14 q 3 33 0 26 q 10 43 7 40 q 88 62 54 46 q 149 142 122 78 l 464 886 q 501 895 478 886 q 540 914 525 904 l 826 119 q 878 58 844 69 q 951 43 911 46 q 958 19 958 36 q 951 0 958 7 l 611 0 q 606 19 606 6 q 611 43 606 38 q 686 53 656 46 q 717 85 717 60 q 714 100 717 89 l 633 335 l 340 335 q 306 330 315 335 q 292 311 297 325 l 239 165 m 365 393 l 611 393 l 481 771 l 472 771 l 331 411 q 329 406 329 410 q 365 393 329 393 z "},"":{"ha":864,"x_min":39,"x_max":785,"o":"m 654 803 q 651 651 654 735 q 647 496 647 567 l 647 261 q 656 216 650 238 q 688 194 661 194 q 714 203 704 194 q 732 222 724 213 q 747 240 739 231 q 769 249 756 249 q 782 242 779 249 q 785 225 785 235 q 772 199 785 215 q 701 102 742 151 q 621 13 661 53 q 600 -1 606 -1 q 588 1 594 -1 q 572 13 582 4 q 534 44 554 25 q 500 81 514 63 q 490 95 493 89 q 485 104 486 101 l 471 189 l 465 189 l 456 178 q 421 135 440 160 q 386 92 401 111 q 370 63 378 81 q 356 32 363 46 q 338 6 349 21 q 311 -8 328 -8 q 301 -3 308 -8 q 285 11 294 3 q 264 32 275 21 q 242 54 253 43 q 203 94 225 71 q 164 131 181 118 l 154 131 q 138 118 138 131 q 148 76 138 96 q 158 33 158 57 q 151 -8 158 13 q 119 -28 143 -28 q 81 -6 90 -28 q 72 46 72 17 q 85 119 72 94 q 115 181 97 144 q 164 270 138 222 q 210 358 190 318 l 204 365 q 82 490 125 418 q 39 692 39 563 q 43 764 39 728 q 57 833 47 800 q 152 1003 82 935 q 347 1071 222 1071 q 485 1039 425 1071 q 543 1004 514 1024 q 601 960 572 985 q 616 978 608 968 q 632 996 624 988 q 687 1037 656 1018 q 758 1056 718 1056 l 758 1018 q 685 928 708 978 q 654 803 663 879 m 446 825 q 388 812 413 825 q 340 785 364 799 q 283 772 317 772 q 286 794 283 783 q 297 814 289 804 q 349 862 317 842 q 413 894 381 882 l 413 901 q 395 924 413 918 q 355 932 378 931 q 314 933 332 933 l 308 933 q 214 907 258 933 q 129 807 161 872 q 97 656 97 742 q 108 553 97 600 q 144 476 118 506 q 163 458 153 468 q 181 439 172 447 q 202 420 189 431 q 229 410 215 410 q 243 418 240 410 l 446 810 l 446 825 m 485 718 l 485 796 l 478 790 l 347 529 l 347 510 l 471 510 l 478 515 l 478 538 q 481 628 478 578 q 485 718 485 678 m 436 385 l 400 385 q 347 382 375 385 q 294 379 318 379 l 282 379 l 269 372 q 263 363 267 372 q 256 350 258 354 q 252 343 253 344 q 249 335 251 342 q 246 326 247 329 q 243 319 244 322 q 242 315 243 318 q 242 308 242 311 q 260 269 242 292 q 303 224 278 247 q 354 186 329 201 q 376 174 367 178 q 393 169 386 171 l 394 169 q 406 176 403 169 q 437 215 419 196 q 465 254 454 233 q 471 268 471 260 l 471 372 q 458 383 471 381 q 436 385 444 385 z "},"B":{"ha":781,"x_min":19,"x_max":760,"o":"m 200 896 q 290 897 238 896 q 379 899 343 899 q 535 878 476 899 q 625 826 594 858 q 667 757 656 794 q 678 685 678 719 q 638 579 678 629 q 546 503 599 529 l 546 500 q 698 415 636 474 q 760 256 760 356 q 744 166 760 211 q 689 83 728 121 q 582 23 650 46 q 410 0 514 0 l 26 0 q 19 19 19 7 q 26 43 19 36 q 101 53 75 46 q 138 86 128 60 q 147 169 147 113 l 147 726 q 138 810 147 785 q 101 844 128 836 q 26 853 75 851 q 19 875 19 860 q 26 899 19 892 q 115 897 67 897 q 200 896 163 896 m 265 764 l 265 508 l 368 508 q 510 544 454 508 q 565 668 565 579 q 537 779 565 739 q 467 835 508 819 q 386 851 425 851 q 301 845 326 851 q 270 820 275 839 q 265 764 265 801 m 265 461 l 265 164 q 287 72 265 100 q 381 43 308 43 q 540 69 486 43 q 612 137 593 94 q 631 229 631 179 q 603 344 631 292 q 516 429 575 397 q 361 461 457 461 l 265 461 z "},"":{"ha":1094,"x_min":36,"x_max":990,"o":"m 36 49 q 42 64 36 54 q 76 111 57 92 l 149 183 q 153 186 150 185 q 161 190 156 188 q 190 210 174 200 q 221 228 207 219 q 256 239 236 235 q 290 252 275 243 q 306 282 306 261 q 290 360 306 324 q 226 471 268 419 q 129 549 185 522 q 76 563 107 557 q 38 594 46 569 l 38 597 q 44 614 38 607 q 57 626 51 621 q 110 663 81 642 q 163 699 139 683 q 164 701 164 699 q 175 710 169 708 q 190 721 181 713 q 240 751 213 735 q 286 783 267 768 q 299 796 294 788 l 299 822 q 270 906 299 871 q 193 940 242 940 q 113 918 146 940 q 57 868 81 896 q 54 867 56 868 q 51 867 53 867 q 38 874 40 867 q 36 892 36 882 q 39 911 36 901 q 47 929 42 921 q 84 978 61 957 q 129 1018 107 999 q 197 1053 157 1043 q 286 1064 236 1064 q 393 1036 347 1064 q 456 960 439 1008 l 468 907 q 474 891 471 901 q 482 881 476 881 q 494 888 488 881 l 717 1044 q 736 1055 719 1047 q 756 1064 753 1063 l 763 1064 l 782 1044 l 939 796 q 942 790 940 794 q 946 783 944 785 l 946 776 q 914 748 936 761 q 872 724 892 735 q 830 697 854 711 q 789 672 806 683 q 788 667 788 671 l 788 663 q 811 638 788 644 q 847 626 835 632 q 910 601 881 613 q 978 581 940 590 q 988 572 986 579 q 990 557 990 565 l 990 533 q 990 519 990 525 q 985 503 989 513 l 985 228 q 990 202 989 214 q 990 174 990 190 l 990 164 q 976 158 990 163 q 947 151 963 154 q 925 146 931 147 q 883 137 907 142 q 847 124 858 132 q 809 93 832 114 q 775 58 786 72 q 767 47 772 53 q 758 33 763 40 q 747 13 754 26 q 732 0 740 0 l 718 0 q 686 6 701 0 q 636 30 661 15 q 586 53 611 44 q 469 81 529 69 q 340 92 410 92 q 294 89 317 92 q 249 86 272 86 q 176 74 214 86 q 113 44 138 63 q 93 35 104 38 q 69 32 82 32 l 64 32 q 45 35 54 32 q 36 49 36 38 m 750 718 q 688 813 721 767 q 625 907 654 860 q 619 908 624 907 q 613 908 614 908 q 592 903 599 908 q 579 888 586 899 l 579 874 q 578 853 579 864 q 578 832 578 842 l 578 800 q 578 780 578 790 q 579 760 579 769 l 579 750 q 583 675 579 715 q 586 600 586 635 q 593 594 586 594 q 631 610 608 594 q 683 645 656 625 q 731 683 710 665 q 750 707 750 700 l 750 718 m 521 861 l 482 836 q 475 829 478 833 l 475 274 q 486 263 475 265 q 506 260 497 260 l 514 260 q 521 260 517 260 q 528 261 525 261 l 533 281 l 533 842 q 531 852 533 844 q 528 861 529 860 l 521 861 m 299 594 l 306 600 l 306 731 q 303 735 306 732 q 299 738 300 738 q 297 737 297 738 q 293 735 296 736 q 251 703 275 725 q 207 672 226 682 l 207 660 q 254 629 231 646 q 299 594 278 613 m 579 274 q 613 250 581 265 q 676 224 640 238 q 740 199 711 210 l 769 189 q 777 195 772 189 q 782 203 782 201 q 785 251 782 228 q 789 297 789 274 l 789 415 q 779 450 789 440 q 747 469 769 460 q 691 497 722 485 q 632 519 660 510 q 593 529 604 529 l 586 529 q 583 406 586 474 q 579 281 579 338 l 579 274 z "},"C":{"ha":883,"x_min":51,"x_max":849,"o":"m 51 431 q 84 617 51 529 q 176 771 117 704 q 317 876 235 838 q 497 914 399 914 q 638 898 583 914 q 729 867 692 882 q 801 851 767 851 q 819 742 813 794 q 832 636 826 690 q 816 629 824 632 q 801 626 808 626 q 794 627 797 626 q 786 629 790 628 q 733 742 768 689 q 638 829 699 796 q 482 863 578 863 q 370 833 428 863 q 260 739 313 803 q 200 619 222 692 q 178 457 178 547 q 201 307 178 381 q 266 174 224 233 q 366 78 308 114 q 494 43 424 43 q 667 78 592 43 q 817 194 743 114 q 849 174 838 194 q 688 33 778 81 q 496 -14 597 -14 q 247 47 346 -14 q 100 208 149 107 q 51 431 51 310 z "},"":{"ha":1069,"x_min":21,"x_max":975,"o":"m 917 958 q 928 976 924 964 q 940 1000 933 989 q 958 1011 947 1011 q 973 1001 971 1011 q 975 981 975 992 q 963 938 975 957 q 943 901 951 918 q 894 823 922 865 q 844 744 865 781 q 841 740 843 743 q 838 738 839 738 l 835 738 q 811 750 826 738 q 754 785 788 769 q 694 822 721 801 q 692 823 693 822 q 690 824 692 824 q 682 813 682 824 q 682 794 682 801 q 685 527 682 660 q 688 260 688 394 l 688 203 q 706 190 693 193 q 733 188 719 188 l 757 188 q 808 199 783 188 q 850 224 831 210 q 888 250 869 238 q 915 261 903 261 q 938 253 932 261 q 943 231 943 246 q 927 203 943 208 q 903 183 911 197 l 649 -1 l 640 -1 q 535 19 586 -1 q 446 58 485 40 q 298 135 371 93 q 164 233 225 178 q 63 358 103 288 q 31 433 40 394 q 21 515 21 472 l 21 546 q 34 614 21 588 q 72 665 47 640 q 122 712 96 689 q 175 754 149 735 q 399 910 285 836 q 610 1078 513 985 l 622 1078 q 666 1062 646 1078 q 701 1038 686 1046 q 785 985 742 1013 q 890 958 829 958 l 917 958 m 622 215 q 626 283 622 251 q 629 350 629 315 l 629 397 q 626 460 629 431 q 622 524 622 490 q 626 647 622 586 q 629 771 629 708 l 629 842 q 611 859 624 853 q 588 871 599 865 q 551 893 568 881 q 514 914 533 906 q 512 915 513 914 q 510 915 511 915 q 503 913 506 915 q 499 907 501 910 l 499 549 q 500 511 499 533 q 506 476 501 489 q 511 463 506 475 q 518 450 517 451 q 522 441 519 449 q 525 431 525 433 q 519 419 525 425 q 511 411 514 414 q 426 398 464 406 q 349 379 389 390 q 329 372 338 375 q 321 356 321 369 q 339 331 321 344 q 358 316 347 324 q 383 300 369 308 q 472 258 424 278 q 567 222 519 238 q 603 214 590 214 q 613 215 606 214 q 622 215 621 215 m 303 503 q 306 561 303 528 q 310 619 310 594 l 310 764 q 303 771 308 767 q 296 776 299 775 q 283 771 286 776 q 259 749 271 760 q 238 728 247 738 q 186 669 208 701 q 164 585 164 638 q 192 478 164 524 q 257 404 221 433 q 261 403 258 403 l 267 403 q 297 424 292 403 q 303 469 303 444 l 303 503 z "},"D":{"ha":939,"x_min":19,"x_max":914,"o":"m 206 896 q 303 897 246 896 q 435 899 361 899 q 622 862 535 899 q 774 760 708 825 q 877 610 840 696 q 914 428 914 525 q 872 217 914 300 q 760 86 829 133 q 613 19 692 39 q 460 0 533 0 l 207 0 q 117 -1 168 0 q 26 -3 67 -1 q 19 19 19 4 q 26 43 19 36 q 101 53 75 46 q 138 86 128 60 q 147 169 147 113 l 147 726 q 138 810 147 785 q 101 844 128 836 q 26 853 75 851 q 19 875 19 860 q 26 899 19 892 q 118 897 68 897 q 206 896 168 896 m 265 117 q 275 78 265 94 q 317 53 285 63 q 417 44 349 44 q 556 60 490 44 q 672 114 621 75 q 751 221 722 153 q 781 394 781 289 q 760 556 781 475 q 694 703 740 636 q 571 811 647 771 q 382 851 494 851 q 298 835 331 851 q 265 783 265 819 l 265 117 z "},"":{"ha":1294,"x_min":43,"x_max":1181,"o":"m 579 272 q 583 409 579 333 q 586 546 586 485 l 586 832 q 547 815 563 832 q 519 756 529 793 q 508 679 508 719 q 515 584 508 631 q 521 489 521 538 q 478 294 521 364 q 358 174 435 224 q 285 126 325 153 q 211 76 246 99 q 188 63 192 65 q 175 56 183 61 q 150 46 161 53 q 128 32 139 39 q 109 17 119 24 q 83 10 99 10 q 63 26 63 10 q 75 50 63 42 q 164 106 119 76 q 243 169 208 135 q 292 237 271 199 q 313 329 313 275 q 281 441 313 401 q 176 481 250 481 q 122 468 143 481 q 100 456 113 460 q 76 453 88 453 q 65 458 67 453 q 63 474 63 464 q 86 521 63 500 q 128 551 110 542 q 175 574 147 563 q 228 586 203 586 q 274 576 251 586 q 318 565 296 565 q 325 571 325 565 q 328 614 325 592 q 338 661 332 636 q 363 723 346 699 q 407 768 381 747 q 444 798 425 782 q 478 828 464 814 q 492 856 492 843 q 401 853 449 856 q 308 850 353 850 q 301 851 304 850 q 294 851 297 851 q 110 898 178 851 q 43 1064 43 944 q 44 1079 43 1067 q 44 1094 44 1092 q 51 1100 46 1100 l 61 1100 q 81 1092 74 1100 q 108 1060 93 1078 q 149 1042 122 1042 l 775 1042 q 970 1010 885 1042 q 1105 910 1056 978 q 1154 735 1154 842 l 1154 272 q 1167 221 1154 247 q 1181 168 1181 194 q 1164 140 1181 144 q 1125 135 1147 135 q 1090 123 1107 135 q 1063 103 1074 111 q 1022 62 1038 85 q 990 11 1006 39 q 974 3 985 3 q 959 5 967 3 q 943 8 951 7 q 908 22 925 15 q 875 38 892 29 q 754 69 822 63 q 613 76 686 76 q 440 63 518 76 q 286 24 363 49 q 240 4 265 17 q 193 -18 215 -8 q 148 -35 174 -26 q 99 -43 122 -43 q 82 -25 82 -43 q 102 3 82 -6 q 136 17 122 13 l 410 174 q 487 225 447 203 q 574 265 526 247 q 576 268 575 265 q 579 272 578 271 m 661 856 l 647 856 q 635 833 638 856 q 632 800 632 811 l 632 278 l 644 265 l 690 265 l 699 272 l 699 294 q 701 377 699 332 q 704 461 704 422 l 704 846 q 685 853 693 851 q 661 856 676 856 m 756 839 l 756 689 q 776 645 756 661 q 825 623 796 629 q 881 617 854 617 q 942 631 913 617 q 971 675 971 644 q 921 806 971 765 q 781 846 871 846 l 763 846 q 756 839 756 846 m 853 468 q 971 435 917 468 l 978 442 l 978 599 q 925 585 951 599 q 863 571 897 571 q 830 576 846 571 q 801 588 814 582 q 781 599 793 593 q 758 604 769 604 l 756 604 q 752 585 754 596 q 750 564 750 575 l 750 519 q 749 499 750 510 q 747 476 747 488 l 747 439 q 800 453 778 439 q 853 468 822 468 m 971 207 l 978 207 l 978 357 q 964 383 978 374 q 916 406 946 397 q 857 415 886 415 q 811 412 831 415 q 775 396 792 408 q 762 383 774 394 q 750 369 750 372 l 750 265 q 865 242 810 256 q 971 207 919 228 z "},"E":{"ha":753,"x_min":19,"x_max":733,"o":"m 433 501 q 488 513 471 501 q 509 540 504 524 q 514 567 514 556 q 513 572 514 569 q 513 576 513 575 q 514 581 513 581 q 517 596 517 581 q 539 603 524 603 q 563 596 556 603 q 560 538 561 571 q 560 476 560 506 q 560 412 560 442 q 563 354 561 382 q 539 347 556 347 q 517 354 524 347 q 508 407 515 386 q 476 438 501 428 q 390 449 450 449 l 264 449 l 264 142 q 281 74 264 93 q 342 54 299 54 l 503 54 q 623 108 582 54 q 685 236 664 161 q 693 238 689 238 q 701 238 697 238 q 733 229 719 238 q 711 115 725 176 q 682 0 697 53 l 25 0 q 19 19 19 6 q 25 43 19 38 q 100 53 74 46 q 136 86 126 60 q 146 169 146 113 l 146 726 q 136 810 146 785 q 100 844 126 836 q 25 853 74 851 q 19 875 19 858 q 25 899 19 893 q 119 897 67 897 q 204 896 172 896 l 558 896 q 596 897 583 896 q 626 901 608 899 q 632 897 632 901 q 637 869 633 893 q 645 814 640 846 q 655 749 650 782 q 663 696 660 717 q 629 688 649 688 q 623 688 626 688 q 617 689 619 689 q 585 771 601 738 q 541 822 569 804 q 460 840 513 840 l 356 840 q 282 819 300 840 q 264 751 264 797 l 264 501 l 433 501 z "},"":{"ha":1158,"x_min":19,"x_max":1057,"o":"m 607 1083 l 614 1083 q 629 1078 622 1079 q 642 1071 636 1076 l 642 996 q 683 1006 664 996 q 742 1040 715 1019 q 790 1083 768 1061 l 796 1083 q 810 1078 801 1078 l 933 953 q 978 939 947 939 q 1006 943 993 939 q 1033 947 1019 947 q 1057 924 1057 947 q 1052 906 1057 911 q 1038 894 1047 901 q 979 862 1013 879 q 921 829 946 844 q 899 815 911 822 q 886 790 886 807 q 906 757 886 769 q 970 727 931 739 q 1044 711 1010 715 q 1051 703 1051 708 l 1051 679 q 996 610 1026 649 q 940 542 965 572 q 930 530 938 539 q 917 521 922 521 q 875 533 894 521 q 840 554 856 546 q 800 576 822 565 q 753 588 778 588 q 719 578 738 588 q 689 563 701 569 q 663 543 679 556 q 646 515 646 531 l 646 228 l 653 222 l 665 217 q 740 195 701 207 q 822 183 779 183 q 859 188 842 183 q 893 201 876 193 q 947 240 921 218 q 994 283 972 263 q 1025 301 1013 301 q 1044 297 1036 301 q 1051 281 1051 292 q 1044 253 1051 269 q 1026 228 1036 240 q 1006 207 1017 217 q 901 117 958 167 q 796 26 844 68 q 770 10 786 19 q 738 0 754 0 q 644 13 693 0 q 561 39 596 26 q 475 69 521 50 q 390 101 429 88 q 203 196 294 139 q 56 332 113 253 q 19 438 19 381 l 19 571 q 32 624 19 597 q 84 697 51 664 q 150 757 117 731 q 249 808 194 781 q 346 861 303 836 q 454 907 399 888 q 561 953 510 926 q 577 962 564 954 q 590 972 590 969 l 590 1071 q 598 1078 590 1074 q 607 1083 606 1082 m 596 283 l 596 365 q 592 633 596 493 q 588 901 588 774 l 581 901 q 542 895 564 901 q 505 877 521 889 q 489 849 489 865 l 489 438 q 468 425 489 435 q 446 415 458 419 q 421 403 433 410 q 375 383 403 394 q 339 358 347 371 q 342 355 340 357 q 349 349 344 353 q 390 322 364 333 q 438 300 415 311 q 469 287 449 294 q 503 274 489 279 q 537 260 518 268 q 568 249 556 251 q 574 244 569 247 q 581 242 579 242 q 592 255 589 242 q 596 283 596 268 m 640 894 l 640 607 q 649 593 640 599 q 651 594 650 593 q 653 594 651 594 q 741 667 697 629 q 822 744 785 704 l 822 750 q 813 769 822 756 q 747 835 785 803 q 671 890 708 868 q 649 901 656 901 l 646 901 q 640 894 643 900 m 274 771 q 181 699 219 744 q 142 579 142 654 q 169 488 142 524 q 226 428 196 453 q 250 408 238 418 q 276 390 263 397 q 278 391 278 390 q 281 392 279 392 q 285 395 282 393 q 288 399 288 397 l 288 764 q 285 767 288 765 q 281 771 282 769 l 274 771 z "},"F":{"ha":679,"x_min":19,"x_max":660,"o":"m 424 449 l 264 449 l 264 169 q 274 86 264 113 q 310 53 283 60 q 385 43 336 46 q 392 19 392 36 q 385 0 392 7 l 206 0 q 110 -1 158 0 q 25 -3 61 -1 q 19 19 19 3 q 25 43 19 38 q 100 53 74 46 q 136 86 126 60 q 146 169 146 113 l 146 726 q 136 810 146 785 q 100 844 126 836 q 25 853 74 851 q 19 875 19 858 q 25 899 19 893 q 119 897 67 897 q 204 896 171 896 l 558 896 q 595 897 585 896 q 624 901 606 899 q 629 897 629 901 q 634 869 631 893 q 642 814 638 846 q 652 749 647 782 q 660 696 657 717 q 617 689 642 689 q 580 771 601 738 q 518 822 558 804 q 404 840 478 840 l 342 840 q 280 824 296 840 q 264 751 264 808 l 264 501 l 393 501 q 478 509 453 501 q 511 538 504 517 q 519 596 518 558 q 542 603 526 603 q 565 596 558 603 q 563 540 564 569 q 563 476 563 511 q 563 411 563 442 q 565 354 564 381 q 542 347 558 347 q 519 354 526 347 q 518 361 519 361 q 517 374 517 361 q 510 405 517 388 q 485 435 504 422 q 424 449 465 449 z "},"":{"ha":1283,"x_min":13,"x_max":1326,"o":"m 40 -192 q 35 -192 39 -192 q 31 -193 32 -193 q 13 -174 13 -193 q 43 -91 13 -129 q 101 -29 74 -53 q 173 19 129 -6 q 261 43 217 43 q 289 41 275 43 q 315 33 303 39 q 393 2 356 21 q 468 -36 431 -17 q 486 -22 476 -36 q 503 8 496 -8 q 511 29 511 24 l 511 500 q 503 507 508 504 q 490 513 497 510 l 381 513 q 314 508 344 513 q 256 493 283 504 q 227 469 239 486 q 192 453 215 453 q 174 456 178 453 q 169 474 169 460 q 176 497 169 492 q 190 513 182 503 q 265 597 231 558 q 347 672 300 635 l 511 672 q 513 697 511 681 q 517 722 515 714 l 517 725 q 510 808 517 769 q 503 889 503 846 q 503 897 503 890 q 504 904 504 903 l 517 911 q 529 910 524 910 q 540 910 535 910 l 563 910 q 642 916 603 910 q 718 932 681 922 q 801 970 758 946 q 875 1026 843 994 l 888 1039 q 902 1058 896 1047 q 917 1078 908 1068 q 929 1092 922 1083 q 944 1100 936 1100 q 969 1092 965 1100 q 988 1075 974 1085 q 1091 1004 1039 1036 q 1203 943 1143 972 l 1229 943 q 1258 951 1247 943 q 1281 968 1269 960 q 1310 976 1293 976 q 1324 972 1321 976 q 1326 957 1326 968 q 1317 928 1326 938 q 1297 908 1307 917 q 1272 886 1286 899 q 1230 850 1254 869 q 1189 814 1206 831 q 1166 803 1175 807 q 1138 799 1157 799 q 1086 807 1111 799 q 1013 842 1047 821 q 947 885 979 864 q 941 888 946 886 q 935 892 936 890 l 928 892 q 922 885 925 890 l 922 683 l 935 669 l 1150 669 q 1157 658 1157 669 l 1157 646 q 1156 631 1157 639 q 1151 614 1154 622 q 1131 560 1143 588 q 1111 507 1119 532 q 1102 503 1110 506 q 1092 500 1094 500 l 957 500 l 928 507 l 922 500 q 918 469 921 486 q 915 435 915 451 l 915 233 q 911 160 915 199 q 896 96 907 122 q 812 -22 869 33 q 697 -118 754 -78 q 574 -185 646 -153 q 428 -218 503 -218 q 347 -201 385 -218 q 277 -163 311 -183 q 208 -125 243 -143 q 142 -107 176 -107 q 78 -135 99 -107 q 40 -192 57 -164 m 681 853 q 677 543 681 706 q 674 232 674 381 l 674 101 q 672 94 674 100 q 671 78 671 88 q 665 34 671 51 q 644 0 660 17 q 613 -33 631 -18 q 576 -60 594 -49 q 561 -75 561 -71 q 575 -87 561 -87 q 656 -62 622 -87 q 723 28 700 -31 q 746 161 746 88 l 746 874 l 742 874 q 706 871 724 874 q 681 853 688 868 z "},"G":{"ha":958,"x_min":51,"x_max":925,"o":"m 524 914 q 649 901 601 914 q 734 874 697 889 q 813 851 771 858 q 837 729 829 776 q 844 638 844 682 q 804 629 824 629 l 799 629 q 751 742 781 689 q 663 830 721 796 q 504 864 606 864 q 350 812 424 864 q 231 668 276 760 q 185 454 185 576 q 206 313 185 386 q 270 176 228 239 q 376 75 313 114 q 521 36 439 36 q 640 46 578 36 q 736 89 701 56 l 736 301 q 708 353 736 343 q 622 368 679 364 q 618 378 619 371 q 617 393 617 386 q 618 408 617 400 q 622 418 619 415 q 714 416 668 417 q 794 415 760 415 q 865 416 836 415 q 918 418 893 417 q 925 393 925 411 q 918 368 925 375 q 871 351 888 365 q 854 301 854 338 l 854 140 q 876 101 854 119 q 709 14 806 42 q 489 -14 613 -14 q 258 44 357 -14 q 106 202 160 103 q 51 426 51 301 q 92 632 51 542 q 200 785 132 722 q 352 881 268 847 q 524 914 436 914 z "},"":{"ha":1206,"x_min":28,"x_max":1106,"o":"m 1021 1001 l 1021 996 q 963 936 994 969 q 903 875 931 903 q 879 847 892 864 q 856 817 867 829 q 846 803 850 811 q 838 796 842 796 l 838 790 q 838 781 838 783 q 844 776 839 779 q 940 733 893 757 q 1024 676 986 708 q 1082 602 1058 646 q 1106 496 1106 558 q 1097 406 1106 443 q 1067 333 1089 369 l 1054 319 q 1044 303 1053 317 q 1033 288 1036 290 q 978 244 1008 267 q 919 203 947 222 q 782 124 854 158 q 649 39 710 89 q 627 16 638 33 q 600 -1 617 -1 l 589 -1 q 525 7 557 -1 q 458 27 490 15 q 394 53 425 39 q 258 118 324 83 q 140 201 192 153 q 58 320 89 250 q 28 492 28 390 q 47 614 28 556 q 147 781 79 714 q 300 896 215 849 q 344 919 319 907 q 388 940 368 931 q 398 944 390 942 q 407 947 406 946 q 496 1005 454 972 q 571 1078 538 1038 l 576 1078 q 615 1068 596 1078 q 647 1051 635 1057 q 685 1036 660 1046 q 758 1007 718 1024 q 832 979 799 990 q 845 973 840 975 q 860 971 850 971 l 874 971 q 936 989 911 971 q 961 1008 947 997 q 989 1032 975 1019 l 994 1032 q 1013 1022 1004 1032 q 1021 1001 1021 1011 m 492 901 l 492 542 q 506 527 500 533 q 511 506 511 521 q 492 486 511 499 q 383 434 444 458 q 271 383 321 410 q 250 365 250 372 q 271 333 250 351 q 293 315 281 325 q 321 294 306 304 q 420 239 365 265 q 531 196 475 213 q 557 188 546 190 q 576 185 568 185 l 576 875 q 562 888 576 882 q 540 896 547 893 q 519 903 532 899 q 499 907 507 907 q 492 901 492 907 m 629 849 l 629 640 l 642 640 l 656 653 q 688 685 674 668 q 718 721 703 703 q 739 742 728 732 q 760 763 750 751 q 773 778 767 769 q 779 799 779 788 l 779 803 l 772 810 l 649 856 l 642 856 q 629 849 629 856 m 283 836 q 208 744 232 807 q 185 600 185 681 q 185 551 185 582 q 190 487 186 519 q 204 432 194 454 q 231 410 214 410 q 258 418 246 410 q 296 496 296 444 l 296 803 q 293 822 296 810 q 283 836 290 835 m 636 457 l 639 456 q 640 456 640 456 q 642 457 640 457 l 858 556 q 864 571 864 557 q 851 588 864 579 q 757 607 813 607 q 726 606 740 607 q 700 604 711 604 q 644 578 660 604 q 628 506 628 553 q 628 485 628 501 q 629 464 629 468 q 632 460 629 463 q 636 457 635 457 m 636 326 l 649 326 l 924 450 q 936 472 936 454 q 926 505 936 488 q 900 522 915 522 l 890 522 q 860 506 878 514 q 828 490 842 497 q 781 470 807 479 q 733 450 756 461 q 694 436 719 444 q 648 415 668 428 q 628 382 628 403 q 629 367 628 381 q 633 340 631 353 q 636 326 635 326 m 642 176 q 665 176 646 176 q 688 175 683 175 q 783 194 736 175 q 860 236 829 213 q 921 300 893 261 q 949 392 949 339 q 947 402 949 400 q 936 404 944 404 l 929 404 l 642 268 q 631 252 633 263 q 629 231 629 242 l 629 211 q 631 191 629 201 q 642 176 633 181 z "},"H":{"ha":1011,"x_min":19,"x_max":986,"o":"m 858 169 q 868 86 858 113 q 904 53 878 60 q 979 43 931 46 q 986 19 986 36 q 979 -3 986 4 q 886 -1 933 -1 q 800 0 839 0 q 714 -1 761 0 q 619 -3 667 -1 q 614 19 614 3 q 619 43 614 38 q 694 53 668 46 q 731 86 721 60 q 740 169 740 113 l 740 446 l 265 446 l 265 169 q 275 86 265 113 q 311 53 285 60 q 386 43 338 46 q 392 19 392 38 q 386 -3 392 3 q 292 -1 340 -1 q 207 0 244 0 q 120 -1 168 0 q 26 -3 72 -1 q 19 19 19 4 q 26 43 19 36 q 101 53 75 46 q 138 86 128 60 q 147 169 147 113 l 147 726 q 138 810 147 785 q 101 844 128 836 q 26 853 75 851 q 19 875 19 860 q 26 899 19 892 q 110 897 67 897 q 206 896 154 896 q 303 897 258 896 q 386 899 347 897 q 392 875 392 893 q 386 853 392 858 q 311 844 338 851 q 275 810 285 836 q 265 726 265 785 l 265 504 l 740 504 l 740 726 q 731 810 740 785 q 694 844 721 836 q 619 853 668 851 q 614 875 614 858 q 619 899 614 893 q 713 897 665 897 q 799 896 760 896 q 888 897 839 896 q 979 899 936 897 q 986 875 986 892 q 979 853 986 860 q 904 844 931 851 q 868 810 878 836 q 858 726 858 785 l 858 169 z "},"":{"ha":1214,"x_min":36,"x_max":1114,"o":"m 642 189 l 676 189 q 763 208 724 189 q 822 258 801 228 q 856 274 832 274 q 872 261 872 274 q 869 255 872 260 q 860 240 867 250 q 784 135 825 190 q 707 29 743 81 q 689 7 693 11 q 682 0 683 1 q 672 -1 681 -1 q 659 -2 667 -1 q 643 -1 651 -3 q 598 17 621 6 q 553 33 575 28 q 510 38 535 38 q 461 39 486 39 l 331 39 q 299 36 317 39 q 265 33 281 33 q 235 23 254 29 q 204 8 217 17 q 177 -10 193 1 q 161 -39 161 -22 q 167 -46 161 -46 l 232 -46 q 250 -56 242 -46 q 265 -88 258 -68 q 272 -129 272 -108 q 250 -177 272 -164 q 194 -190 228 -190 q 130 -163 158 -190 q 101 -99 101 -136 q 106 -58 101 -76 q 115 -24 110 -40 q 172 60 138 25 q 238 133 206 96 q 270 183 256 157 q 285 247 285 208 q 265 313 285 286 q 204 339 244 339 q 178 332 190 339 q 157 318 165 325 q 142 306 150 313 q 124 299 133 299 q 110 310 114 299 q 107 331 107 321 l 107 339 q 133 417 107 383 q 206 450 160 450 q 248 444 229 450 q 289 438 267 438 l 292 438 q 294 444 293 439 q 297 450 296 449 l 297 453 q 295 480 297 467 q 285 504 293 493 q 226 556 265 532 q 142 581 188 581 q 112 576 125 581 q 88 564 99 571 q 70 554 79 560 q 53 549 61 549 q 43 556 44 549 q 42 571 42 563 q 56 624 42 601 q 113 672 75 653 q 197 692 150 692 q 233 685 217 692 q 268 679 250 679 l 272 679 q 276 682 274 679 q 278 686 278 685 q 277 706 278 696 q 276 724 276 715 q 282 775 276 753 q 297 819 288 797 q 333 874 314 851 q 376 926 351 897 l 365 926 q 335 923 349 926 q 304 919 322 919 q 248 923 275 919 q 192 926 221 926 q 124 908 149 926 q 88 858 100 889 q 69 790 76 828 q 53 782 67 782 q 42 783 47 782 q 36 790 38 785 l 36 822 q 59 936 36 883 q 113 1024 82 989 q 150 1056 129 1042 q 200 1071 171 1071 l 235 1071 q 303 1063 272 1071 q 364 1045 333 1054 q 432 1036 394 1036 q 488 1042 465 1036 q 533 1057 511 1047 q 535 1058 535 1057 q 540 1060 536 1058 q 557 1068 547 1064 q 572 1078 567 1072 l 575 1078 q 588 1070 585 1078 q 592 1054 592 1063 q 575 1032 592 1044 q 511 983 549 1010 q 454 926 474 957 q 443 894 446 913 q 435 856 440 875 l 435 838 q 434 810 435 826 q 433 783 433 794 l 433 767 q 438 610 433 689 q 442 453 442 531 q 439 355 442 397 q 422 268 436 313 q 403 235 417 251 q 379 207 390 219 q 357 183 369 197 q 344 151 344 168 q 371 160 358 151 q 472 266 443 204 q 500 433 500 328 q 495 581 500 507 q 490 728 490 654 l 490 797 q 494 846 490 822 q 507 888 497 869 q 570 959 529 928 q 656 1013 611 990 q 745 1048 694 1032 q 847 1064 796 1064 q 869 1061 860 1064 q 879 1044 879 1058 q 860 1024 879 1035 q 810 1008 838 1014 q 760 996 783 1003 q 679 939 707 981 q 651 840 651 897 q 650 817 651 829 q 649 794 649 806 q 651 736 649 765 q 653 679 653 707 l 663 679 l 685 700 q 762 784 719 739 q 839 868 804 829 q 856 892 847 876 q 881 907 864 907 l 892 907 q 980 825 939 872 q 1050 724 1021 778 q 1095 619 1076 676 q 1114 492 1114 561 q 1112 440 1114 465 q 1104 392 1110 415 q 1091 334 1100 365 q 1067 279 1082 303 q 1058 269 1061 272 q 1056 254 1056 265 q 1039 235 1050 246 q 986 169 1010 197 q 925 110 963 142 q 862 53 894 85 q 804 -8 829 22 q 779 -62 779 -37 q 788 -95 779 -82 q 806 -122 797 -108 q 814 -156 814 -136 q 790 -210 814 -192 q 729 -229 765 -229 q 663 -160 663 -229 q 673 -110 663 -133 q 696 -72 683 -87 q 778 31 735 -21 q 856 133 821 82 q 902 212 879 169 q 925 310 925 254 q 908 346 925 332 q 858 375 890 365 q 789 385 825 385 q 708 369 746 385 q 650 326 669 354 q 647 313 649 325 q 643 300 644 301 q 628 284 642 297 q 611 268 615 271 q 560 236 589 254 q 507 203 531 218 q 500 198 501 200 q 499 196 499 196 q 501 192 501 199 q 571 190 532 192 q 642 189 610 189 m 750 571 q 818 581 786 571 q 879 600 850 590 l 899 619 l 899 622 q 883 663 899 642 q 857 697 868 685 q 829 726 847 708 q 794 744 811 744 q 774 738 781 744 l 657 619 q 654 611 654 617 q 671 585 654 594 q 710 574 688 576 q 750 571 732 571 m 814 533 l 764 533 q 711 538 738 533 q 657 543 685 543 l 657 396 q 681 405 672 396 q 703 418 690 414 q 733 427 719 424 q 765 431 747 431 l 814 431 q 844 427 833 431 q 872 418 856 424 q 901 397 889 413 q 931 385 914 385 q 944 399 944 385 l 944 451 q 943 501 944 474 q 935 551 942 529 q 911 575 928 572 q 864 551 885 558 q 814 533 843 544 z "},"I":{"ha":411,"x_min":19,"x_max":392,"o":"m 265 169 q 275 86 265 113 q 311 53 285 60 q 386 43 338 46 q 392 19 392 38 q 386 -3 392 3 q 292 -1 339 -1 q 207 0 244 0 q 122 -1 169 0 q 26 -3 74 -1 q 19 19 19 4 q 26 43 19 36 q 101 53 75 46 q 138 86 128 60 q 147 169 147 113 l 147 726 q 138 810 147 785 q 101 844 128 836 q 26 853 75 851 q 19 875 19 860 q 26 899 19 892 q 123 897 75 897 q 206 896 171 896 q 293 897 246 896 q 386 899 340 897 q 392 875 392 893 q 386 853 392 858 q 311 844 338 851 q 275 810 285 836 q 265 726 265 785 l 265 169 z "},"":{"ha":1092,"x_min":39,"x_max":1033,"o":"m 371 1099 q 488 1085 433 1099 q 593 1055 542 1072 q 699 1024 644 1038 q 815 1011 753 1011 q 924 1029 876 1011 q 1007 1078 971 1047 l 1013 1078 q 1029 1067 1025 1078 q 1033 1044 1033 1056 q 1022 1013 1033 1031 q 998 982 1013 996 q 969 954 983 968 q 918 879 939 924 q 889 785 897 835 l 889 769 q 888 746 889 760 q 888 721 888 732 l 888 707 q 892 626 888 663 q 899 555 896 590 q 903 474 903 519 q 821 132 903 264 q 589 -64 739 0 q 491 -107 546 -83 q 378 -131 436 -131 q 324 -115 347 -131 q 281 -83 300 -99 q 236 -53 261 -68 q 178 -37 211 -37 q 112 -60 135 -37 q 74 -110 89 -82 q 54 -124 68 -124 q 39 -108 39 -124 l 39 -97 q 67 -10 39 -49 q 125 53 96 28 q 199 98 154 76 q 290 119 243 119 l 322 119 q 350 118 336 119 q 374 113 364 117 q 429 86 399 103 q 485 60 460 69 l 488 60 q 519 75 504 60 q 545 123 535 93 q 556 183 556 153 l 556 194 q 556 201 556 197 q 556 207 557 204 l 556 596 q 558 624 557 597 q 563 683 558 650 q 581 731 568 715 q 624 782 607 763 q 674 831 642 801 q 722 866 693 850 q 758 908 750 882 l 751 908 q 659 881 700 893 q 556 868 618 868 q 471 881 508 868 q 398 911 433 894 q 325 941 363 928 q 242 954 288 954 q 167 932 203 954 q 131 869 131 910 q 134 849 131 861 q 147 838 138 838 q 167 843 161 838 q 191 865 179 853 q 228 876 203 876 q 294 854 268 876 q 321 792 321 832 q 290 717 321 743 q 211 692 260 692 q 154 707 181 692 q 103 764 122 726 q 85 853 85 801 q 113 959 85 914 q 178 1032 142 1004 q 263 1079 214 1060 q 371 1099 313 1099 m 738 511 q 750 675 738 601 q 803 804 763 749 q 840 856 819 829 q 875 908 861 883 q 890 943 890 929 q 861 928 876 943 q 838 904 846 913 q 722 732 764 831 q 679 494 679 633 q 683 442 679 460 q 686 389 686 424 l 686 308 l 693 178 q 660 107 683 133 q 608 54 638 81 q 575 32 599 44 q 551 -3 551 19 q 588 0 578 -3 q 615 14 597 3 q 718 115 685 54 q 751 282 751 175 q 748 362 751 326 q 741 432 744 397 q 738 511 738 467 z "},"J":{"ha":461,"x_min":-94,"x_max":428,"o":"m 314 726 l 314 143 q 291 -17 314 44 q 235 -116 268 -79 q 172 -179 203 -153 q 93 -227 129 -215 q 10 -239 57 -239 q -31 -231 -6 -239 q -75 -206 -56 -222 q -94 -164 -94 -189 q -71 -122 -94 -140 q -33 -104 -47 -104 q 5 -115 -7 -104 q 22 -139 17 -126 q 44 -165 29 -154 q 78 -176 58 -176 q 115 -166 94 -176 q 154 -126 136 -156 q 184 -38 172 -96 q 196 113 196 19 l 196 726 q 185 810 196 785 q 146 844 175 836 q 61 853 117 851 q 56 875 56 858 q 61 899 56 893 q 165 897 114 897 q 254 896 217 896 q 338 897 294 896 q 421 899 382 897 q 428 875 428 892 q 421 853 428 860 q 356 844 379 851 q 323 810 332 836 q 314 726 314 785 z "},"":{"ha":1090,"x_min":39,"x_max":1033,"o":"m 371 1099 q 488 1085 433 1099 q 593 1055 542 1072 q 699 1024 644 1038 q 815 1011 753 1011 q 924 1029 876 1011 q 1007 1078 971 1047 l 1013 1078 q 1029 1067 1025 1078 q 1033 1044 1033 1056 q 1022 1013 1033 1031 q 998 982 1013 996 q 969 954 983 968 q 918 879 939 924 q 889 785 897 835 l 889 769 q 888 746 889 760 q 888 721 888 732 l 888 707 q 895 551 888 629 q 903 396 903 474 q 821 54 903 186 q 589 -142 739 -78 q 491 -185 546 -161 q 378 -208 436 -208 q 324 -193 347 -208 q 281 -162 300 -178 q 236 -132 261 -147 q 178 -117 211 -117 q 112 -138 135 -117 q 74 -187 89 -160 q 54 -203 68 -203 q 39 -186 39 -203 l 39 -176 q 67 -90 39 -128 q 125 -26 96 -51 q 199 19 154 -3 q 290 40 243 40 l 322 40 q 350 39 336 40 q 374 33 364 38 q 429 8 399 24 q 485 -18 460 -8 l 488 -18 q 519 -4 506 -18 q 545 44 535 14 q 556 104 556 74 q 513 247 556 192 q 382 301 469 301 q 353 297 367 301 q 328 288 339 293 q 315 283 318 285 q 301 279 311 282 q 275 274 289 274 q 258 281 261 274 q 254 301 254 288 q 269 346 254 326 q 321 397 286 374 q 399 419 356 419 q 436 417 418 419 q 474 414 454 414 q 458 460 474 440 q 401 504 439 485 q 321 524 364 524 q 277 516 296 524 q 233 508 258 508 q 249 554 233 535 q 300 601 267 582 q 376 621 333 621 q 425 616 404 621 q 465 601 446 611 q 472 599 467 601 q 491 584 479 593 q 514 575 503 575 q 522 593 517 575 q 546 647 532 617 q 569 700 560 678 q 617 770 593 740 q 674 831 642 800 q 722 866 693 850 q 758 908 750 882 l 751 908 q 659 881 700 893 q 556 868 618 868 q 471 881 508 868 q 398 911 433 894 q 325 941 363 928 q 242 954 288 954 q 167 932 203 954 q 131 869 131 910 q 134 849 131 861 q 147 838 138 838 q 167 843 161 838 q 191 865 179 853 q 228 876 203 876 q 294 854 268 876 q 321 792 321 832 q 290 717 321 743 q 211 692 260 692 q 154 707 181 692 q 103 764 122 726 q 85 853 85 801 q 113 959 85 914 q 178 1032 142 1004 q 263 1079 214 1060 q 371 1099 313 1099 m 738 511 q 750 675 738 601 q 803 804 763 749 q 840 856 819 829 q 875 908 861 883 q 890 943 890 929 q 861 928 876 943 q 838 904 846 913 q 722 732 764 831 q 679 494 679 633 q 683 403 679 449 q 686 311 686 357 l 686 289 q 681 282 681 289 q 686 269 681 275 q 690 249 688 267 q 693 229 693 232 l 693 99 q 660 28 683 54 q 608 -25 638 1 q 575 -47 599 -35 q 551 -81 551 -58 q 588 -78 578 -81 q 615 -64 597 -75 q 718 37 685 -24 q 751 204 751 97 q 744 358 751 282 q 738 511 738 433 z "},"K":{"ha":897,"x_min":19,"x_max":878,"o":"m 265 169 q 275 86 265 113 q 311 53 285 60 q 386 43 338 46 q 392 19 392 38 q 386 0 392 6 l 207 0 q 120 -1 167 0 q 26 -3 74 -1 q 19 19 19 4 q 26 43 19 36 q 101 53 75 46 q 138 86 128 60 q 147 169 147 113 l 147 726 q 138 810 147 785 q 101 844 128 836 q 26 853 75 851 q 19 875 19 860 q 26 899 19 892 q 120 897 74 897 q 206 896 167 896 q 291 897 243 896 q 386 899 339 897 q 392 875 392 893 q 386 853 392 858 q 311 844 338 851 q 275 810 285 836 q 265 726 265 785 l 265 482 q 327 499 301 485 q 375 536 353 513 l 604 781 q 625 807 619 796 q 631 825 631 818 q 610 846 631 840 q 565 853 590 851 q 558 875 558 860 q 565 899 558 892 q 644 897 604 897 q 722 896 683 896 q 789 897 756 896 q 854 899 822 897 q 861 875 861 892 q 854 853 861 860 q 770 838 813 850 q 679 775 728 826 l 475 565 q 433 517 440 529 q 426 497 426 504 q 444 463 426 483 l 749 101 q 810 55 781 64 q 871 43 840 46 q 878 19 878 36 q 871 -3 878 4 q 801 -1 836 -1 q 731 0 767 0 q 692 -1 708 0 q 656 -3 676 -1 q 649 6 649 -3 q 633 49 647 22 q 599 101 619 75 l 381 376 q 331 416 360 404 q 265 429 301 428 l 265 169 z "},"":{"ha":1464,"x_min":31,"x_max":1351,"o":"m 393 817 q 469 797 438 817 q 528 757 500 776 l 540 757 q 584 835 557 797 q 625 914 611 874 l 621 914 q 588 910 603 914 q 556 906 574 906 q 485 920 517 906 q 428 949 454 935 q 372 977 403 963 q 301 992 340 992 q 281 990 292 992 q 261 985 271 989 q 209 954 232 975 q 163 914 186 933 q 160 913 161 914 q 158 913 160 913 q 145 922 149 913 q 142 940 142 932 l 142 953 q 271 1057 197 1017 q 342 1090 303 1076 q 428 1103 381 1103 q 513 1094 476 1103 q 586 1071 549 1086 q 651 1037 621 1057 q 729 1017 682 1017 q 761 1025 744 1017 q 808 1055 786 1036 q 847 1090 829 1074 l 881 1090 q 885 1082 885 1090 q 886 1071 886 1074 l 886 1064 l 815 992 q 808 979 814 990 q 801 967 803 968 q 789 957 800 965 q 775 947 778 949 q 734 865 753 906 q 704 771 715 824 q 699 732 699 753 q 697 692 700 711 q 690 636 693 665 q 682 575 686 607 q 636 385 668 474 q 540 242 604 297 q 503 217 525 229 q 463 193 482 204 q 426 171 446 183 q 397 143 407 158 q 401 142 399 143 q 406 142 404 142 q 442 149 424 142 q 569 215 515 178 q 656 315 622 253 q 698 424 683 367 q 729 549 713 482 q 729 554 729 549 q 729 561 729 561 q 740 617 735 589 q 744 675 744 646 q 773 854 744 774 q 854 992 801 935 l 919 1064 q 939 1071 929 1071 q 955 1063 950 1071 q 960 1043 960 1054 q 959 1038 960 1042 q 958 1032 958 1035 q 945 1022 957 1031 q 932 1011 933 1013 q 894 971 914 993 q 860 925 875 949 q 833 877 846 904 q 821 818 821 850 l 821 817 q 824 813 821 815 q 828 810 826 810 l 831 808 q 833 810 832 808 q 949 880 894 839 q 1056 960 1004 921 q 1068 969 1064 967 q 1082 972 1072 972 q 1101 947 1101 972 l 1101 933 q 1074 910 1092 926 q 1056 875 1056 893 q 1064 844 1056 860 q 1081 817 1072 828 q 1101 794 1088 807 q 1128 782 1114 782 q 1153 791 1144 782 q 1172 808 1163 800 q 1196 817 1181 817 q 1214 807 1208 817 q 1219 786 1219 797 q 1201 763 1219 775 q 1105 703 1161 729 q 1003 649 1049 676 q 985 633 985 639 q 993 611 985 625 q 1025 571 1006 592 q 1056 529 1044 550 q 1064 512 1058 522 q 1074 494 1069 501 l 1089 464 q 1095 447 1092 457 q 1103 428 1099 436 q 1108 415 1107 418 q 1114 403 1110 413 q 1138 340 1125 375 q 1165 274 1151 304 q 1197 224 1176 251 q 1246 196 1217 196 l 1251 196 q 1263 199 1254 196 q 1272 203 1271 201 l 1324 254 l 1326 256 l 1329 256 q 1347 247 1342 256 q 1351 228 1351 239 q 1335 196 1351 215 q 1277 135 1310 167 q 1219 78 1244 103 q 1190 46 1208 63 q 1157 15 1171 29 q 1147 5 1149 7 q 1142 0 1144 3 l 1138 0 q 1074 32 1099 0 q 1032 98 1051 60 q 1001 171 1013 136 q 988 203 990 203 l 985 203 q 967 188 976 197 q 947 167 957 178 q 902 95 924 135 q 860 19 881 56 q 850 11 854 11 l 838 11 q 776 28 808 11 q 638 72 717 58 q 471 85 558 85 q 326 80 396 85 q 194 58 256 75 q 160 46 181 53 q 122 32 139 39 q 90 19 108 26 q 54 11 71 11 l 38 11 q 31 33 31 18 q 38 52 31 44 q 51 65 44 60 q 99 84 76 75 q 142 101 121 93 q 265 166 210 129 q 364 254 319 203 q 366 258 365 256 q 368 264 367 261 q 378 304 372 282 q 383 346 383 326 q 344 440 383 411 q 240 469 304 469 l 228 469 q 213 489 213 476 q 231 532 213 517 q 278 554 250 547 q 332 561 306 561 q 377 552 357 561 q 411 533 397 543 q 437 514 422 525 q 465 503 451 503 l 468 503 q 474 520 474 514 q 475 540 475 526 q 466 608 475 575 q 443 664 457 640 q 404 710 429 689 q 342 731 379 731 l 332 731 q 310 728 322 731 q 286 725 297 725 l 282 725 q 269 732 272 725 q 265 747 265 739 q 266 752 265 749 q 267 757 267 756 q 319 800 288 783 q 393 817 350 817 m 804 711 q 800 693 803 703 q 797 672 797 683 q 792 622 797 646 q 786 571 786 599 q 807 576 800 571 q 858 606 832 589 q 908 636 883 622 q 931 649 922 644 q 939 672 939 654 l 939 686 q 923 712 931 697 q 908 738 915 726 q 891 763 900 749 q 867 776 882 776 q 833 765 850 776 q 811 744 814 754 q 804 711 808 735 m 685 242 q 707 240 696 242 q 729 238 718 238 q 777 228 757 238 q 821 211 797 219 q 851 200 836 206 q 881 194 865 194 q 917 206 906 194 q 939 229 929 217 q 949 239 946 235 q 958 249 953 243 l 958 281 l 953 296 q 933 354 944 322 q 913 411 922 386 q 894 444 907 426 q 871 475 882 463 q 845 501 861 486 q 811 515 829 515 q 778 503 788 515 q 765 473 768 490 q 756 438 761 456 q 737 376 747 411 q 715 318 726 340 q 700 288 708 304 q 685 261 692 272 l 685 242 z "},"L":{"ha":724,"x_min":19,"x_max":704,"o":"m 207 0 q 119 -1 172 0 q 26 -3 67 -1 q 19 19 19 4 q 26 43 19 36 q 101 53 75 46 q 138 86 128 60 q 147 169 147 113 l 147 726 q 138 810 147 785 q 101 844 128 836 q 26 853 75 851 q 19 875 19 860 q 26 899 19 892 q 122 897 75 897 q 206 896 168 896 q 292 897 246 896 q 386 899 339 897 q 392 875 392 893 q 386 853 392 858 q 311 844 338 851 q 275 810 285 836 q 265 726 265 785 l 265 151 q 285 76 265 99 q 344 54 304 54 l 432 54 q 550 79 506 54 q 619 145 594 104 q 658 236 644 186 q 665 237 661 236 q 671 238 668 238 q 704 229 690 238 q 689 113 699 175 q 668 -3 679 50 q 648 -2 668 -3 q 599 -1 628 -1 q 544 -1 571 -1 q 503 0 517 0 l 207 0 z "},"":{"ha":1164,"x_min":35,"x_max":1068,"o":"m 131 358 q 114 372 114 358 q 128 410 114 394 q 179 451 146 433 q 250 469 213 469 q 291 456 274 469 q 331 443 308 443 q 334 444 332 443 q 338 444 336 444 q 341 457 339 446 q 343 469 343 468 q 332 517 343 496 q 283 566 315 544 q 208 588 250 588 q 155 574 181 588 q 101 560 129 560 q 88 571 88 560 q 107 631 88 604 q 175 687 131 663 q 272 711 219 711 q 308 701 294 711 q 343 690 322 690 q 351 691 346 690 q 357 692 356 692 q 373 775 357 732 q 403 849 389 818 q 419 874 408 860 q 439 899 431 889 q 457 924 447 910 q 467 951 467 938 q 454 951 461 951 q 439 946 447 950 q 392 925 417 938 q 335 913 367 913 q 279 917 308 913 q 222 921 250 921 q 128 883 158 921 q 83 799 99 846 q 67 775 76 775 q 49 794 49 775 l 49 818 q 49 829 49 829 q 76 917 58 874 q 119 996 94 961 q 180 1056 143 1029 q 271 1083 217 1083 q 354 1074 317 1083 q 429 1053 392 1064 q 511 1043 467 1043 q 553 1051 533 1043 q 586 1067 572 1058 q 611 1082 597 1074 q 638 1090 625 1090 q 649 1085 647 1090 q 650 1071 650 1081 l 650 1057 q 519 790 519 953 l 519 464 q 486 322 519 383 q 403 203 451 260 q 406 202 404 203 q 408 201 407 201 q 467 233 439 201 q 521 311 496 265 q 561 400 546 357 q 578 469 578 449 l 578 731 l 571 738 l 571 774 q 590 903 571 842 q 692 1044 621 989 q 876 1099 763 1099 q 896 1086 888 1099 q 904 1063 904 1074 q 886 1044 904 1050 q 856 1033 868 1038 q 790 1011 821 1025 q 741 973 760 997 q 722 906 722 949 l 722 894 q 725 882 724 886 q 726 858 726 878 q 734 785 726 826 q 742 711 742 744 l 742 642 q 733 524 742 576 q 681 367 721 429 q 585 249 642 306 l 588 249 q 647 255 618 249 q 707 261 676 261 q 836 249 782 261 q 944 215 890 236 q 947 215 946 215 q 950 214 949 214 q 982 239 969 214 q 1000 279 994 264 q 1018 320 1008 294 q 1044 346 1028 346 q 1064 335 1060 346 q 1068 313 1068 325 l 1068 294 q 1061 281 1068 292 q 1017 210 1042 251 q 976 138 992 169 l 911 7 q 903 0 908 0 l 899 0 q 879 3 890 0 q 856 13 868 6 q 778 43 821 32 q 696 67 736 54 q 676 72 681 72 l 656 72 q 581 79 622 72 q 507 92 539 86 l 503 92 q 358 83 429 92 q 226 58 288 75 q 158 38 193 49 q 92 13 122 26 q 77 5 86 10 q 63 0 68 0 l 56 0 q 35 19 35 0 q 54 47 35 32 q 135 97 92 74 q 217 146 178 119 q 282 211 257 172 q 299 267 299 239 q 269 340 299 307 q 197 372 240 372 q 165 365 179 372 q 131 358 150 358 m 571 249 q 567 242 567 249 q 571 235 567 235 q 578 242 578 235 q 571 249 578 249 z "},"M":{"ha":1161,"x_min":22,"x_max":1139,"o":"m 917 275 l 885 742 l 882 742 l 569 7 q 561 -8 565 -1 q 550 -14 557 -14 q 538 -7 544 -14 q 529 7 532 0 l 242 728 l 239 728 l 186 171 q 184 151 185 161 q 183 132 183 142 q 203 70 183 93 q 278 43 222 47 q 283 19 283 38 q 278 0 283 6 l 147 0 q 91 -1 122 0 q 28 -3 60 -1 q 22 19 22 3 q 28 43 22 38 q 107 77 88 49 q 132 168 126 106 l 188 740 q 190 768 189 756 q 190 790 190 781 q 171 841 190 832 q 93 853 151 850 q 86 875 86 860 q 93 899 86 892 l 294 896 l 579 190 q 590 172 586 172 q 603 192 594 172 l 897 896 l 1079 899 q 1086 875 1086 892 q 1079 853 1086 860 q 1001 835 1019 850 q 982 785 982 821 q 983 770 982 778 q 983 753 983 763 l 1025 168 q 1036 85 1029 111 q 1064 53 1043 60 q 1132 43 1085 46 q 1139 19 1139 36 q 1132 -3 1139 4 q 1055 -1 1097 -1 q 981 0 1013 0 q 910 -1 950 0 q 832 -3 871 -1 q 825 19 825 4 q 832 43 825 36 q 905 55 888 46 q 922 110 922 64 q 922 138 922 115 q 919 190 921 161 q 917 244 918 219 q 917 275 917 268 z "},"":{"ha":1754,"x_min":26,"x_max":1626,"o":"m 199 453 q 158 441 174 453 q 126 417 142 429 q 86 406 110 406 q 74 411 76 406 q 72 426 72 417 q 75 452 72 439 q 85 478 78 465 q 136 547 104 515 q 204 597 168 579 q 215 600 207 599 q 224 603 222 601 q 267 606 243 603 q 308 610 290 610 l 315 617 q 365 767 328 706 q 457 874 403 829 q 576 956 511 919 q 707 1028 640 992 q 758 1056 736 1043 q 811 1079 779 1068 q 851 1034 824 1054 q 900 996 878 1014 q 945 957 922 979 q 968 903 968 935 l 968 813 l 981 818 l 1003 838 q 1136 953 1069 894 q 1268 1067 1203 1011 l 1276 1067 q 1294 1054 1283 1067 q 1349 995 1322 1029 q 1403 935 1376 961 q 1435 905 1417 921 q 1476 889 1454 889 q 1480 890 1478 889 q 1483 890 1482 890 q 1494 893 1486 890 q 1503 897 1501 896 l 1581 968 l 1582 968 q 1588 969 1583 969 q 1603 958 1599 969 q 1608 938 1608 947 q 1608 934 1608 936 q 1607 929 1607 932 l 1510 825 q 1486 785 1496 811 q 1476 733 1476 758 q 1470 618 1476 682 q 1464 499 1464 554 l 1464 478 q 1463 435 1464 458 q 1463 392 1463 413 l 1463 326 q 1463 283 1463 306 q 1464 239 1464 260 l 1464 211 q 1486 188 1474 199 q 1519 178 1499 178 q 1556 193 1544 178 q 1578 223 1567 208 q 1614 238 1590 238 q 1625 232 1624 238 q 1626 218 1626 226 l 1626 206 q 1585 162 1607 186 q 1543 117 1563 138 q 1506 75 1522 94 q 1469 32 1490 56 q 1445 5 1460 21 q 1414 -11 1431 -11 l 1411 -11 l 1281 94 q 1271 105 1279 97 q 1261 114 1263 113 l 1261 119 q 1269 307 1261 215 q 1286 493 1278 399 q 1294 689 1294 588 l 1294 767 l 1169 890 l 1157 890 q 1150 794 1151 838 q 1149 697 1149 750 l 1149 642 q 1149 620 1149 632 q 1150 599 1150 608 l 1150 590 l 1157 583 l 1235 583 q 1242 571 1242 583 l 1242 551 l 1189 440 q 1175 433 1186 435 q 1153 430 1164 432 q 1143 421 1143 428 l 1143 246 l 1215 303 l 1224 303 q 1242 286 1242 303 q 1233 265 1242 276 q 1205 242 1222 251 q 1176 218 1188 232 l 903 0 q 892 -6 896 -6 q 876 -6 888 -6 q 869 -5 875 -6 q 863 -4 864 -4 q 790 47 829 18 q 719 100 750 75 q 710 108 714 106 q 706 119 706 111 q 706 123 706 121 q 707 126 707 125 q 747 166 731 146 q 772 218 764 186 q 775 313 772 260 q 778 407 778 365 l 778 433 q 772 443 778 443 l 639 443 q 647 510 639 478 q 664 571 656 542 q 667 583 667 582 q 674 590 668 585 q 710 594 688 590 q 746 597 732 597 q 765 597 749 597 q 785 596 782 596 l 785 806 q 772 831 785 814 q 749 863 763 846 q 719 890 735 879 q 700 903 707 903 q 680 894 686 903 q 667 878 674 886 q 621 785 633 839 q 608 663 608 732 l 608 206 q 607 192 608 200 q 606 175 606 185 q 603 114 606 149 q 596 54 600 79 q 557 -24 582 14 q 494 -85 532 -61 q 401 -110 456 -110 q 323 -98 358 -110 q 253 -74 288 -86 q 174 -62 218 -62 q 96 -101 118 -62 q 74 -193 74 -140 q 61 -201 72 -201 l 50 -201 q 31 -197 35 -201 q 26 -178 26 -193 q 50 -21 26 -92 q 125 88 74 50 q 199 119 154 111 q 283 136 243 126 q 374 272 374 160 q 370 308 374 292 q 360 342 367 325 q 300 419 340 386 q 199 453 260 453 m 563 290 l 563 686 q 568 765 563 724 q 588 832 574 806 q 623 883 603 860 q 654 936 643 906 l 642 936 q 632 933 640 935 q 621 929 624 931 q 538 832 565 889 q 511 688 511 775 l 511 381 q 508 296 511 342 q 504 211 504 250 q 479 145 497 175 q 432 100 461 115 q 413 94 419 94 q 400 81 408 94 q 416 74 407 75 q 435 74 425 74 q 522 103 494 74 q 556 183 549 133 q 563 290 563 232 m 1104 642 q 1108 747 1104 689 q 1111 851 1111 806 l 1111 858 l 1104 864 q 1092 858 1097 864 q 1033 809 1065 836 q 974 760 1000 782 q 963 745 965 751 q 961 726 961 739 l 961 714 q 960 699 961 707 q 960 682 960 690 l 960 610 q 961 590 960 592 l 974 583 l 1092 583 q 1102 595 1100 583 q 1104 619 1104 607 l 1104 642 m 1010 160 q 1032 164 1019 160 q 1068 185 1047 171 q 1092 218 1089 200 q 1095 310 1092 258 q 1099 401 1099 361 l 1099 407 q 1095 417 1097 410 q 1092 426 1093 425 q 1040 430 1068 426 q 988 433 1011 433 l 961 433 q 954 426 957 433 q 951 352 954 393 q 947 276 947 311 l 947 269 q 959 195 947 231 q 1010 160 971 160 z "},"N":{"ha":983,"x_min":14,"x_max":967,"o":"m 769 714 q 760 805 769 778 q 726 840 751 832 q 651 853 700 849 q 644 875 644 860 q 651 899 644 892 q 740 897 697 897 q 806 896 783 896 q 874 897 831 896 q 961 899 918 897 q 967 875 967 893 q 961 853 967 858 q 886 839 913 849 q 850 801 860 829 q 840 711 840 774 l 840 29 q 808 -14 840 -14 q 753 19 778 -14 l 268 632 q 221 678 233 678 q 211 662 213 678 q 210 610 210 646 l 210 185 q 219 94 210 122 q 256 57 229 65 q 331 43 282 49 q 336 19 336 38 q 331 0 336 6 l 21 0 q 14 19 14 7 q 21 43 14 36 q 96 58 69 49 q 132 95 122 67 q 142 185 142 124 l 142 764 q 106 821 136 792 q 32 853 76 850 q 25 875 25 860 q 32 899 25 892 l 219 896 l 696 292 q 763 215 756 215 q 771 226 769 215 q 772 257 772 238 l 769 714 z "},"":{"ha":1331,"x_min":24,"x_max":1228,"o":"m 149 313 l 149 315 q 167 369 149 347 q 235 412 192 399 q 325 431 278 425 l 325 443 q 318 450 325 444 q 297 473 310 460 q 272 494 283 486 q 247 508 268 497 q 221 521 226 519 l 194 521 q 161 517 176 521 q 128 513 146 513 q 117 531 117 513 q 129 560 117 547 q 172 587 144 575 q 229 599 200 599 q 270 588 251 599 q 308 578 289 578 l 313 578 q 315 581 314 578 q 318 586 317 585 l 318 589 q 299 649 318 622 q 235 698 275 679 q 142 717 194 717 l 129 717 q 122 723 124 718 q 121 733 121 728 q 136 763 121 749 q 180 789 151 776 q 236 801 208 801 q 264 796 251 801 q 306 781 286 790 q 344 763 326 772 l 351 763 l 351 939 q 376 967 351 953 q 403 982 388 975 q 436 996 418 989 q 553 1035 490 1017 q 671 1071 617 1053 q 694 1081 685 1078 q 707 1089 703 1085 q 798 1058 756 1079 q 881 1017 840 1038 q 990 935 940 985 q 1071 817 1040 885 q 1101 661 1101 749 q 1084 542 1101 594 q 1042 444 1067 490 q 951 301 1001 371 q 861 157 901 232 q 854 142 854 144 l 854 122 q 955 186 903 164 q 1083 208 1007 208 q 1105 208 1093 208 q 1128 207 1117 207 q 1147 239 1138 218 q 1164 275 1156 260 q 1179 306 1168 286 q 1200 325 1190 325 q 1219 315 1211 325 q 1228 294 1228 306 q 1227 290 1228 293 q 1226 286 1226 288 q 1158 152 1194 217 q 1089 18 1122 88 q 1078 4 1083 8 q 1060 0 1074 0 q 998 13 1025 0 q 935 25 971 25 q 867 16 893 25 q 815 -8 842 7 q 776 -44 796 -21 q 739 -82 757 -67 q 721 -94 725 -94 q 703 -76 703 -94 q 703 -72 703 -75 q 704 -67 704 -68 q 744 22 722 -26 q 783 111 765 71 q 831 235 808 168 q 874 364 853 301 q 878 377 875 367 q 881 390 881 388 q 864 410 881 401 q 818 424 846 418 q 765 431 790 431 q 690 419 721 431 q 639 378 658 408 q 633 361 635 372 q 632 339 632 350 l 632 318 q 629 235 632 275 q 626 154 626 194 q 567 -49 626 22 q 367 -119 507 -119 l 364 -119 l 182 -93 l 171 -93 q 120 -106 139 -93 q 86 -133 101 -118 q 60 -161 74 -147 q 24 -175 47 -175 q 39 -97 24 -132 q 111 -1 64 -42 q 214 64 158 39 q 275 85 243 76 q 335 106 307 93 q 380 142 363 119 q 397 207 397 165 q 383 256 397 231 q 331 304 365 283 q 253 325 296 325 q 224 321 236 325 q 201 311 213 317 q 184 303 193 308 q 164 297 175 297 q 156 303 161 297 q 149 313 150 310 m 593 678 l 593 939 l 586 946 q 570 948 582 946 q 554 951 558 950 l 547 951 q 540 946 546 950 q 533 939 535 942 q 530 831 533 890 q 524 713 526 772 q 521 604 521 654 l 521 443 q 520 419 521 432 q 519 396 519 407 q 520 371 519 383 q 521 344 521 358 l 521 324 q 502 175 521 239 q 436 71 483 111 l 443 64 q 460 71 450 67 q 475 76 469 75 q 575 207 556 111 q 585 290 583 244 q 586 378 586 335 q 590 528 586 446 q 593 678 593 611 m 639 939 l 639 710 q 653 683 639 696 q 701 660 671 669 q 760 650 731 650 q 844 667 811 650 q 900 717 876 685 l 900 724 q 871 794 900 756 q 803 867 843 833 q 721 922 764 900 q 651 946 678 946 q 639 939 639 946 m 632 456 l 639 443 q 697 469 668 464 q 769 475 725 475 l 804 475 q 840 468 817 475 q 866 457 849 467 q 893 447 883 447 q 901 453 899 447 q 908 468 904 458 q 920 526 915 492 q 925 589 925 561 q 924 624 925 613 q 919 658 924 636 l 913 658 q 894 653 904 658 q 869 634 882 644 q 840 619 856 624 q 804 608 821 613 q 763 604 788 604 q 728 610 744 604 q 697 621 711 615 q 670 633 685 626 q 642 639 656 639 l 639 639 q 632 580 633 610 q 631 517 631 550 l 631 506 q 631 481 631 500 q 632 456 632 461 z "},"O":{"ha":964,"x_min":51,"x_max":925,"o":"m 925 457 q 871 213 925 319 q 718 47 817 107 q 486 -14 619 -14 q 269 40 368 -14 q 111 194 171 94 q 51 431 51 294 q 102 675 51 565 q 248 849 153 785 q 478 914 343 914 q 704 860 603 914 q 865 703 806 806 q 925 457 925 601 m 460 864 q 328 822 392 864 q 225 690 265 781 q 185 454 185 600 q 232 228 185 321 q 354 85 279 135 q 514 36 429 36 q 656 83 593 36 q 756 218 719 129 q 792 431 792 307 q 747 667 792 571 q 626 814 701 764 q 460 864 551 864 z "},"":{"ha":1313,"x_min":22,"x_max":1206,"o":"m 447 72 q 441 75 446 74 q 435 78 436 76 q 292 140 363 106 q 162 219 221 174 q 63 325 103 264 q 22 468 22 386 q 65 618 22 557 q 154 716 101 674 q 267 794 207 758 q 388 863 326 829 q 501 935 449 897 q 549 965 525 950 q 588 1001 572 981 q 615 1037 599 1017 q 657 1057 631 1057 q 712 1051 688 1057 q 761 1038 736 1044 q 925 975 847 1015 q 1061 881 1003 935 q 1162 754 1118 829 q 1206 579 1206 679 q 1199 510 1206 543 q 1181 449 1192 478 q 1088 313 1146 371 q 963 206 1031 254 q 828 111 896 158 q 703 7 760 64 q 683 0 694 0 l 676 0 l 447 72 m 664 228 l 664 875 q 647 883 664 881 q 610 887 629 886 q 583 888 590 888 l 575 888 q 554 887 569 888 q 539 881 539 886 l 533 836 l 533 483 q 542 463 533 469 q 558 448 550 456 q 565 426 565 440 q 551 413 565 422 q 483 381 521 396 q 415 351 446 367 q 382 334 403 344 q 361 310 361 324 q 379 294 361 304 q 461 258 415 275 q 550 229 507 242 q 597 216 572 224 q 643 208 621 208 q 657 215 650 208 q 664 228 664 221 m 879 665 q 882 666 881 665 q 888 668 883 667 q 904 676 894 672 q 922 682 914 679 q 948 690 931 685 q 965 707 965 694 q 965 713 965 708 q 964 718 964 717 q 913 768 942 743 q 856 813 885 793 q 796 846 829 831 q 722 861 763 861 l 715 861 l 715 594 l 729 594 q 803 631 763 611 q 879 665 844 651 m 357 438 l 357 790 q 221 692 274 756 q 178 628 196 665 q 161 542 161 590 q 177 475 161 507 q 210 421 193 443 q 253 375 226 399 q 315 351 281 351 q 349 382 340 351 q 357 438 357 413 m 708 453 l 708 425 q 725 408 708 408 q 735 411 732 408 q 840 457 782 432 q 944 503 897 482 q 972 512 956 508 q 1002 523 989 515 q 1015 547 1015 531 q 1013 589 1015 564 q 1003 633 1011 614 q 979 653 996 653 l 969 653 q 844 598 906 622 q 722 542 783 574 q 718 538 721 540 q 715 535 715 536 q 710 494 711 510 q 708 453 708 479 m 735 189 q 753 188 738 189 q 772 188 768 188 q 874 215 829 188 q 946 276 918 243 q 994 359 974 311 q 1015 464 1015 407 q 1006 476 1015 476 l 1003 476 q 958 459 978 468 q 914 440 938 450 q 820 402 869 422 q 731 358 771 382 q 715 346 715 349 l 715 196 q 724 192 715 194 q 735 189 732 189 z "},"P":{"ha":732,"x_min":17,"x_max":704,"o":"m 144 726 q 135 810 144 785 q 99 844 125 836 q 24 853 72 851 q 17 875 17 860 q 24 899 17 892 q 115 897 65 897 q 203 896 164 896 q 299 901 244 896 q 393 906 354 906 q 550 882 489 906 q 644 822 611 858 q 691 745 678 785 q 704 675 704 706 q 688 581 704 631 q 635 489 672 532 q 533 419 597 446 q 375 392 469 392 q 263 406 306 392 l 263 169 q 276 87 263 113 q 319 53 289 61 q 404 43 350 46 q 411 19 411 36 q 404 0 411 7 l 204 0 q 119 -1 167 0 q 24 -3 71 -1 q 17 19 17 4 q 24 43 17 36 q 99 53 72 46 q 135 86 125 60 q 144 169 144 113 l 144 726 m 263 769 l 263 446 q 308 441 274 443 q 368 439 342 439 q 522 488 469 439 q 575 650 575 538 q 547 783 575 739 q 476 843 519 828 q 383 858 432 858 q 307 844 333 858 q 272 810 281 831 q 263 769 263 790 z "},"":{"ha":1238,"x_min":25,"x_max":1135,"o":"m 325 119 l 214 119 q 151 73 175 111 q 113 0 128 35 q 100 -18 104 -18 q 81 -9 90 -18 q 71 10 71 0 l 71 15 q 86 81 78 51 q 104 136 94 111 q 199 251 136 214 q 358 303 261 289 l 358 326 q 339 419 358 376 q 294 493 319 463 q 232 546 269 521 q 144 571 194 571 l 136 571 q 100 564 121 571 q 64 557 79 557 l 54 557 q 38 578 38 557 q 53 597 38 583 q 214 718 126 664 q 231 729 226 729 l 232 729 l 371 590 l 376 590 q 378 632 376 611 q 379 675 379 653 l 379 704 q 363 824 379 774 q 306 910 346 875 q 266 938 288 925 q 214 950 244 950 q 120 933 154 950 q 51 890 86 917 l 42 890 q 28 896 31 890 q 25 911 25 901 q 33 935 25 922 q 76 979 50 960 q 180 1042 128 1017 q 313 1068 232 1068 q 404 1063 357 1068 q 490 1042 451 1057 q 547 1001 529 1028 l 547 879 q 548 792 547 839 q 549 704 549 744 l 549 425 q 548 337 549 383 q 547 250 547 290 l 547 160 q 544 39 547 107 q 540 -82 540 -29 q 544 -119 540 -100 q 547 -154 547 -137 q 558 -161 550 -161 l 582 -161 q 593 -154 593 -161 q 597 281 593 65 q 600 715 600 497 l 600 1060 q 607 1072 603 1068 q 621 1075 611 1075 q 640 1071 628 1075 q 651 1060 651 1067 l 651 929 l 658 910 q 688 926 671 914 q 768 997 728 957 q 846 1068 808 1036 q 864 1079 861 1079 l 867 1079 q 881 1074 875 1079 q 1025 901 961 1001 q 1108 675 1089 801 q 1109 651 1108 667 q 1110 613 1110 636 q 1115 485 1110 556 q 1121 361 1121 415 q 1128 306 1121 336 q 1135 247 1135 275 q 1124 228 1135 236 q 1087 210 1110 218 q 1050 192 1064 203 q 1006 153 1025 171 q 969 107 988 135 q 965 100 965 101 q 960 92 964 99 q 953 79 957 86 q 946 68 950 72 q 939 49 943 63 q 930 22 935 35 q 917 10 925 10 l 886 10 q 779 60 838 35 q 649 86 721 86 l 649 -226 q 635 -233 643 -231 q 619 -239 628 -235 l 613 -239 q 508 -235 567 -239 q 404 -232 450 -232 l 378 -232 l 371 -226 l 371 94 q 356 115 371 110 q 325 119 340 119 m 767 642 q 824 645 792 642 q 878 660 856 649 q 901 697 901 672 q 885 765 901 733 q 851 819 869 797 q 804 863 833 842 q 739 885 775 885 q 658 851 685 885 q 655 783 658 822 q 651 713 651 744 q 688 656 651 671 q 767 642 725 642 m 651 603 l 651 465 q 655 466 653 465 q 658 467 657 467 q 720 490 690 479 q 792 500 750 500 q 856 486 825 500 q 919 472 888 472 q 932 482 932 472 l 932 486 q 928 542 932 513 q 925 597 925 572 l 925 603 q 922 624 925 611 q 910 636 918 636 l 906 636 q 898 632 901 635 q 889 626 894 629 q 880 620 882 621 q 871 614 878 619 q 855 603 864 608 q 835 597 846 597 l 724 597 q 704 603 721 597 q 685 610 688 608 q 678 614 683 611 q 671 617 674 617 q 667 617 669 617 q 664 618 665 618 q 651 603 651 618 m 893 225 l 932 225 l 932 394 q 917 424 932 413 q 867 444 899 435 q 808 453 836 453 q 745 448 779 453 q 685 431 711 443 q 651 394 658 418 l 651 317 q 658 283 651 301 q 778 258 717 274 q 893 225 839 242 z "},"Q":{"ha":976,"x_min":51,"x_max":946,"o":"m 925 457 q 881 233 925 332 q 756 73 836 135 q 568 -7 676 11 q 487 -39 535 -17 q 386 -100 439 -61 q 401 -97 393 -97 q 414 -97 408 -97 q 528 -116 475 -97 q 628 -158 581 -135 q 715 -195 672 -179 q 801 -211 758 -211 q 866 -199 832 -211 q 922 -160 900 -187 l 946 -176 q 858 -262 906 -235 q 746 -290 811 -290 q 617 -267 672 -290 q 513 -215 561 -243 q 433 -175 472 -192 q 349 -158 393 -158 q 328 -162 340 -158 q 300 -176 315 -165 q 273 -206 286 -190 q 247 -240 260 -222 l 193 -212 q 218 -181 204 -194 q 310 -90 254 -136 q 429 -11 365 -44 q 239 58 325 1 q 102 210 153 115 q 51 431 51 306 q 102 675 51 565 q 248 849 153 785 q 478 914 343 914 q 704 860 603 914 q 865 703 806 806 q 925 457 925 601 m 460 864 q 328 822 392 864 q 225 690 265 781 q 185 454 185 600 q 232 228 185 321 q 354 85 279 135 q 514 36 429 36 q 656 83 593 36 q 756 218 719 129 q 792 431 792 307 q 747 667 792 571 q 626 814 701 764 q 460 864 551 864 z "},"":{"ha":1375,"x_min":22,"x_max":1257,"o":"m 1249 274 q 1256 268 1254 274 q 1256 257 1256 267 q 1257 244 1257 247 q 1256 220 1257 226 q 1243 203 1254 214 q 1210 177 1229 189 q 1178 150 1192 165 q 1134 94 1157 125 q 1086 39 1111 63 q 1054 25 1071 25 l 1040 25 q 986 54 1014 36 q 933 86 958 72 q 880 111 910 99 q 818 124 850 124 l 806 124 q 769 89 790 108 q 731 51 747 69 q 711 29 721 40 q 694 8 701 18 q 668 0 692 0 l 649 0 l 486 39 q 419 67 457 57 q 349 92 381 78 q 224 159 283 119 q 119 249 164 199 q 51 358 79 296 q 22 503 22 419 q 45 608 22 561 q 107 679 68 654 l 381 849 q 403 863 392 856 q 426 875 414 869 l 701 1051 l 740 1083 l 746 1083 q 794 1071 771 1083 q 838 1051 818 1058 q 985 980 914 1022 q 1108 885 1056 938 q 1193 765 1157 833 q 1229 603 1229 697 q 1211 510 1229 551 q 1135 382 1185 438 q 1033 281 1086 326 l 1033 268 q 1052 258 1033 265 q 1074 249 1071 250 q 1099 237 1089 242 q 1118 228 1110 232 q 1157 221 1136 221 q 1199 238 1182 221 q 1213 256 1206 247 q 1229 274 1221 265 l 1249 274 m 682 208 l 682 907 l 597 907 q 582 898 588 907 q 576 881 576 889 q 574 731 576 813 q 571 581 571 649 q 574 549 571 567 q 576 515 576 531 q 583 489 576 501 q 596 467 590 476 q 605 449 600 458 q 610 432 610 440 l 610 421 q 603 411 610 414 q 597 409 599 410 q 585 403 594 408 q 421 294 490 361 q 406 276 406 281 q 422 263 406 271 q 503 233 460 244 q 593 214 547 222 q 631 206 611 211 q 665 201 650 201 q 676 202 671 201 q 682 208 682 203 m 733 614 l 733 607 l 740 600 l 982 731 q 985 733 983 731 q 989 738 988 736 l 989 744 q 939 793 969 768 q 881 838 908 818 q 821 874 856 854 q 750 894 786 894 l 747 894 q 743 891 746 893 q 740 888 740 889 q 736 778 740 826 q 732 665 732 731 l 732 650 q 733 632 732 642 q 733 614 733 622 m 381 483 l 381 510 q 381 562 381 533 q 382 615 382 590 l 382 686 q 381 720 382 701 q 381 753 381 739 l 381 771 l 375 776 q 349 761 363 769 q 322 744 335 753 q 312 737 314 739 q 303 731 310 735 q 242 686 276 714 q 190 626 210 660 q 171 540 171 592 q 192 439 171 481 q 247 367 213 397 q 318 311 281 338 q 339 306 324 306 q 354 311 353 306 q 368 349 361 324 q 375 392 375 374 q 378 437 375 413 q 381 483 381 461 m 743 410 q 756 417 747 410 q 767 425 765 424 l 1028 561 q 1049 570 1039 564 q 1060 590 1060 576 q 1056 608 1060 592 q 1047 638 1053 618 q 1033 675 1042 658 q 1013 692 1024 692 l 1008 692 l 747 549 q 740 541 742 543 q 738 528 738 539 q 735 484 738 510 q 733 438 733 458 q 736 422 733 432 q 743 410 739 413 m 806 392 q 785 381 801 389 q 755 366 769 374 q 740 353 740 358 l 740 203 q 750 194 740 194 l 763 194 q 887 226 832 194 q 976 297 942 258 q 1041 396 1013 338 q 1069 522 1069 454 l 1054 522 l 806 392 z "},"R":{"ha":843,"x_min":17,"x_max":818,"o":"m 263 169 q 272 86 263 113 q 308 53 282 60 q 383 43 335 46 q 389 19 389 38 q 383 -3 389 3 q 291 -1 338 -1 q 204 0 244 0 q 117 -1 164 0 q 24 -3 71 -1 q 17 19 17 4 q 24 43 17 36 q 99 53 72 46 q 135 86 125 60 q 144 169 144 113 l 144 726 q 135 810 144 785 q 99 844 125 836 q 24 853 72 851 q 17 875 17 860 q 24 899 17 892 q 119 897 72 897 q 203 896 167 896 q 284 901 240 896 q 376 906 328 906 q 504 896 442 906 q 617 839 567 886 q 690 665 690 769 q 670 569 690 611 q 620 499 650 528 q 559 453 590 471 q 506 428 528 435 l 681 136 q 738 60 708 92 q 814 29 767 29 q 818 10 818 21 q 818 3 818 7 q 815 -4 818 -1 q 789 -12 806 -10 q 757 -14 772 -14 q 649 24 694 -14 q 574 110 604 61 l 425 351 q 400 380 415 368 q 353 398 385 392 q 263 404 321 404 l 263 169 m 378 858 q 304 844 329 858 q 271 810 279 831 q 263 769 263 790 l 263 451 l 329 451 q 449 468 397 451 q 532 531 501 485 q 563 664 563 578 q 534 788 563 746 q 463 844 506 829 q 378 858 421 858 z "},"":{"ha":1338,"x_min":38,"x_max":1233,"o":"m 753 203 q 775 215 768 203 q 787 245 782 228 q 799 275 792 263 q 822 288 807 288 q 842 268 842 288 l 842 261 q 795 148 817 200 q 750 33 774 96 q 739 8 744 18 q 714 -1 733 -1 q 686 5 699 -1 q 665 19 674 11 q 510 58 585 43 q 339 72 435 72 l 318 72 q 182 52 242 72 q 72 -1 122 32 l 61 -1 q 38 22 38 -1 q 47 51 38 40 q 65 72 57 63 q 192 186 117 144 q 358 254 267 228 q 362 257 360 254 q 365 261 364 260 l 365 294 q 363 328 365 313 q 354 360 361 344 q 301 450 336 411 q 228 522 265 489 q 197 541 210 529 q 169 561 185 553 q 131 576 151 569 q 111 610 111 583 q 125 629 111 615 q 142 643 132 636 q 163 658 151 650 q 227 704 192 681 q 294 746 263 728 q 308 753 303 751 q 314 757 313 756 q 335 772 322 765 q 358 783 349 778 q 362 786 360 783 q 365 790 364 789 l 365 818 q 331 901 365 868 q 247 933 297 933 q 147 906 188 933 q 78 842 106 879 q 75 841 76 842 q 72 840 74 840 q 53 850 63 840 q 44 869 44 860 q 53 908 44 892 q 85 960 65 938 q 124 1006 104 983 q 206 1065 160 1046 q 319 1083 251 1083 q 465 1039 413 1083 q 514 985 490 1017 q 556 914 538 954 l 568 914 l 619 953 q 699 1017 660 985 q 776 1083 738 1049 q 788 1090 783 1090 l 803 1090 q 840 1072 822 1090 q 864 1043 856 1053 q 890 1013 872 1033 q 927 968 907 992 q 964 925 947 944 q 997 889 982 907 q 1032 856 1013 871 l 1032 836 q 944 762 992 804 q 856 686 896 719 q 849 680 851 682 q 847 668 847 678 q 848 664 847 667 q 849 660 849 661 q 922 578 883 619 q 986 489 960 538 q 1013 438 997 464 q 1039 388 1028 411 q 1058 347 1047 369 q 1078 307 1069 325 q 1090 272 1083 294 q 1106 232 1096 250 q 1135 214 1117 214 q 1156 222 1147 214 q 1169 235 1161 228 q 1182 249 1176 242 q 1197 262 1189 256 q 1208 274 1204 268 l 1217 274 q 1231 269 1228 274 q 1233 254 1233 265 q 1231 244 1233 251 q 1222 228 1229 238 q 1153 115 1193 172 q 1071 15 1113 58 q 1047 -1 1054 -1 q 993 24 1014 -1 q 960 72 972 50 q 909 193 938 128 q 861 314 881 258 q 804 414 839 365 q 729 497 769 463 q 668 522 700 522 l 660 522 q 653 515 653 522 l 653 249 q 668 236 653 244 q 736 207 700 219 q 748 203 744 204 q 753 203 751 203 m 653 907 l 653 586 q 665 590 661 586 q 747 661 704 619 q 829 732 790 703 q 839 740 836 739 q 842 750 842 740 q 839 765 842 761 q 829 776 836 768 q 767 861 799 817 q 699 940 736 906 q 693 941 697 940 q 688 942 689 942 q 665 930 678 942 q 653 907 653 918 m 590 251 l 600 251 l 600 878 q 574 867 585 878 q 556 849 563 857 q 551 687 556 772 q 547 518 547 601 l 547 439 q 548 372 547 408 q 549 304 549 336 l 549 261 q 568 253 556 256 q 590 251 581 251 m 260 656 l 261 653 q 312 603 281 626 q 365 556 343 581 l 372 556 l 372 732 q 344 722 360 732 q 308 698 326 713 q 274 671 289 683 q 260 656 260 658 z "},"S":{"ha":654,"x_min":38,"x_max":617,"o":"m 544 879 q 563 785 556 824 q 572 697 569 747 q 542 688 561 688 q 528 689 532 688 q 492 775 514 735 q 430 841 469 815 q 322 867 390 867 q 247 844 282 867 q 190 785 211 821 q 169 711 169 750 q 192 635 169 668 q 249 579 214 603 q 323 539 285 556 q 392 511 361 522 q 500 458 449 490 q 584 378 551 426 q 617 256 617 329 q 582 129 617 189 q 486 32 547 69 q 315 -14 414 -14 q 215 -6 254 -14 q 142 10 175 1 q 65 18 110 18 q 52 80 57 53 q 44 142 47 107 q 38 229 40 176 q 64 236 51 236 q 74 235 69 236 q 83 233 78 235 q 168 83 107 129 q 326 36 229 36 q 455 79 410 36 q 500 207 500 122 q 471 315 500 275 q 399 376 442 354 q 314 414 356 399 q 197 470 253 438 q 106 552 142 503 q 71 674 71 601 q 108 801 71 747 q 205 885 144 856 q 335 914 265 914 q 415 910 386 914 q 460 901 443 907 q 496 889 478 894 q 544 879 514 883 z "},"":{"ha":1276,"x_min":33,"x_max":1178,"o":"m 472 294 q 483 310 481 300 q 486 333 486 321 l 486 343 q 479 353 486 350 l 290 353 q 253 356 272 353 q 217 365 235 358 q 122 424 165 383 q 79 532 79 464 q 83 593 79 560 q 99 649 88 625 q 125 694 111 672 q 138 715 131 703 q 146 736 146 728 q 139 783 146 763 q 132 829 132 803 q 151 934 132 888 q 206 1006 171 981 l 361 1117 q 390 1146 374 1131 q 426 1168 407 1161 l 429 1168 q 474 1153 453 1168 q 511 1129 494 1138 q 522 1125 513 1128 q 532 1122 531 1122 q 586 1099 556 1111 q 642 1075 617 1086 q 674 1061 661 1067 q 706 1056 688 1056 q 728 1067 722 1056 q 735 1092 733 1078 q 743 1118 738 1107 q 764 1129 749 1129 q 786 1104 786 1129 q 785 1083 786 1090 q 779 1064 783 1076 q 741 953 764 1013 q 701 842 718 893 q 701 839 701 840 q 700 836 700 838 q 710 822 700 822 l 714 822 q 731 826 721 822 q 747 829 740 829 q 816 833 778 829 q 883 836 854 836 l 888 836 q 985 823 936 836 q 1067 790 1035 810 q 1149 693 1119 747 q 1178 544 1178 639 l 1178 476 q 1117 327 1160 392 q 1022 208 1075 263 q 907 101 967 153 q 793 -7 847 50 q 788 -8 792 -7 q 782 -8 783 -8 q 753 3 767 -8 q 731 22 740 14 q 708 42 721 32 q 678 53 696 53 l 675 53 q 487 -21 585 13 q 260 -54 389 -54 q 222 -52 240 -54 q 188 -50 204 -50 q 93 -20 128 -50 q 33 53 58 10 l 33 94 q 60 201 33 161 q 132 261 86 240 q 237 289 178 282 q 360 296 296 296 q 417 295 388 296 q 472 294 446 294 m 329 801 l 481 801 q 564 806 526 801 q 642 817 601 810 q 656 856 656 831 q 635 881 656 864 q 540 928 594 906 q 435 967 486 950 q 380 985 410 975 q 325 996 350 996 q 249 972 282 996 q 217 903 217 949 q 253 832 217 853 q 329 801 289 811 m 571 614 q 527 612 549 614 q 483 610 506 610 q 283 633 375 610 q 261 647 274 638 q 238 663 249 656 q 215 677 229 668 q 192 686 201 686 q 176 674 179 686 q 172 650 172 663 l 172 633 q 185 590 172 610 q 238 547 204 564 q 315 529 272 529 l 544 529 q 557 544 551 529 q 564 564 563 558 q 572 585 567 572 q 576 607 576 599 q 574 611 576 608 q 571 614 572 614 m 910 556 q 978 515 947 547 q 1008 436 1008 483 q 1003 400 1008 418 q 992 365 999 382 q 936 289 969 322 q 871 222 903 256 q 867 216 869 221 q 864 208 864 211 l 864 203 q 894 188 876 194 q 933 182 913 182 q 956 197 940 182 q 1000 249 978 219 q 1040 300 1022 278 q 1079 383 1065 332 q 1093 489 1093 433 q 1058 583 1093 551 q 967 624 1022 614 q 849 633 911 633 l 799 633 q 737 626 771 633 q 675 619 703 619 q 622 601 636 619 q 607 539 607 583 q 722 547 665 539 q 838 556 779 556 l 910 556 m 793 368 l 724 368 q 706 366 715 368 q 686 364 697 364 q 680 365 683 364 q 674 365 676 365 l 625 365 q 592 364 607 365 q 564 357 576 363 q 535 333 542 349 q 518 294 528 317 l 525 288 q 613 267 571 282 q 698 240 654 253 q 790 228 742 228 q 810 235 803 228 q 833 263 822 244 q 844 303 844 281 q 828 344 844 328 q 793 368 813 361 m 264 -8 q 344 0 290 -8 q 454 19 397 7 q 554 47 511 32 q 610 78 601 64 l 590 92 q 576 97 588 94 q 444 125 513 113 q 300 138 375 138 q 226 134 267 138 q 155 115 185 131 q 125 67 125 100 q 144 15 125 31 q 196 -5 164 -1 q 264 -8 228 -8 z "},"T":{"ha":826,"x_min":4,"x_max":821,"o":"m 489 172 q 499 88 489 114 q 537 53 508 61 q 621 43 565 46 q 628 19 628 36 q 621 0 628 7 l 428 0 q 335 -1 386 0 q 233 -3 285 -1 q 228 19 228 3 q 233 43 228 38 q 318 53 289 46 q 358 86 347 60 q 368 169 368 113 l 368 704 q 355 805 368 768 q 303 842 342 842 l 235 842 q 119 810 167 842 q 51 694 72 778 q 27 696 39 694 q 4 701 15 697 q 25 803 15 751 q 39 903 35 856 q 44 907 39 907 q 127 903 71 906 q 249 898 183 900 q 368 896 315 896 l 488 896 q 606 898 543 896 q 722 903 669 900 q 799 907 775 906 q 803 903 803 907 q 809 805 804 856 q 821 706 814 754 q 798 700 811 701 q 774 699 785 699 q 707 810 756 779 q 581 842 658 842 l 550 842 q 499 804 513 842 q 486 700 486 767 l 489 172 z "},"":{"ha":1144,"x_min":28,"x_max":1046,"o":"m 368 1083 q 508 1070 443 1083 q 636 1040 574 1057 q 764 1009 699 1022 q 903 996 829 996 l 947 996 q 978 1008 968 996 q 993 1033 988 1019 q 1005 1054 999 1044 q 1026 1064 1011 1064 q 1043 1060 1040 1064 q 1046 1046 1046 1057 l 1046 1038 q 1024 957 1046 994 q 976 894 1001 919 q 915 849 951 869 q 833 828 878 828 q 770 833 800 828 q 707 839 740 839 l 707 203 q 719 194 707 194 q 723 195 721 194 q 726 196 725 196 q 778 215 750 204 q 831 235 807 226 q 922 290 882 254 q 993 365 961 326 q 1000 372 1000 372 l 1011 372 q 1032 361 1025 372 q 1039 336 1039 350 l 1039 326 q 1015 292 1026 308 q 988 261 1003 276 l 869 157 q 864 150 869 157 q 857 143 858 143 q 851 142 856 142 q 843 143 846 143 q 840 133 840 140 q 836 123 838 124 q 825 115 835 122 q 795 93 810 104 q 765 68 781 82 q 702 21 736 43 q 615 -1 668 -1 q 517 7 565 -1 q 425 32 468 15 q 224 183 303 78 q 144 456 144 288 q 149 522 144 490 q 163 583 154 553 q 245 757 190 682 q 367 894 300 832 l 367 901 q 355 904 367 903 q 331 906 343 906 q 315 907 318 907 l 272 907 q 136 859 181 907 q 76 736 92 811 q 69 700 74 722 q 54 678 65 678 q 36 688 44 678 q 28 707 28 697 q 53 858 28 790 q 118 972 79 925 q 221 1051 158 1019 q 368 1083 283 1083 m 367 300 q 410 360 394 319 q 425 444 425 401 l 425 876 q 408 865 419 876 l 400 856 q 319 711 350 797 q 289 518 289 625 q 308 390 289 450 q 367 300 326 329 m 654 203 l 654 849 q 649 856 654 851 q 642 861 643 860 q 622 869 639 863 q 599 875 606 875 l 596 875 l 582 868 l 582 457 q 564 389 582 413 q 519 341 546 361 q 463 301 492 321 q 413 254 435 282 q 454 225 428 236 q 535 199 489 210 q 629 188 582 188 q 646 190 638 188 q 654 203 654 193 z "},"":{"ha":1456,"x_min":4,"x_max":1440,"o":"m 486 169 q 497 85 486 113 q 536 51 507 58 q 621 43 565 43 q 626 19 626 38 q 621 0 626 6 l 233 0 q 226 19 226 7 q 233 43 226 36 q 318 51 289 43 q 358 85 347 58 q 368 169 368 113 l 368 704 q 355 805 368 768 q 303 842 342 842 l 235 842 q 119 810 167 842 q 51 694 72 778 q 27 696 39 694 q 4 701 15 697 q 27 803 15 751 q 39 903 39 856 q 44 907 39 907 q 127 905 71 907 q 249 901 183 903 q 368 899 315 899 l 761 899 q 833 910 801 899 q 889 936 865 922 q 928 956 913 950 q 946 942 946 956 q 943 903 946 942 q 940 796 940 864 l 940 497 l 953 497 q 1077 589 1017 568 q 1189 610 1138 610 q 1256 598 1225 610 q 1304 563 1286 586 q 1335 482 1328 531 q 1342 376 1342 433 l 1342 169 q 1349 85 1342 113 q 1376 51 1356 58 q 1435 43 1396 43 q 1440 19 1440 38 q 1435 0 1440 6 l 1146 0 q 1140 19 1140 6 q 1146 43 1140 38 q 1201 51 1182 43 q 1226 85 1219 58 q 1232 169 1232 113 l 1232 381 q 1229 440 1232 413 q 1215 488 1226 467 q 1183 524 1203 511 q 1142 538 1163 538 q 1053 516 1101 538 q 964 456 1004 494 q 948 433 956 446 q 940 397 940 419 l 940 169 q 947 85 940 113 q 971 51 953 58 q 1024 43 989 43 q 1029 19 1029 38 q 1024 0 1029 6 l 733 0 q 728 19 728 6 q 733 43 728 38 q 794 51 774 43 q 823 85 815 58 q 831 169 831 113 l 831 754 q 807 813 831 794 q 746 838 783 832 q 665 843 708 843 q 622 842 643 843 q 581 842 600 842 l 550 842 q 499 804 513 842 q 486 700 486 767 l 486 169 z "},"U":{"ha":919,"x_min":8,"x_max":911,"o":"m 239 726 l 239 369 q 242 277 239 325 q 261 185 246 229 q 310 108 276 142 q 383 60 342 78 q 475 43 425 43 q 614 74 563 43 q 690 156 665 106 q 723 266 715 206 q 731 385 731 326 l 731 726 q 720 808 731 783 q 683 840 710 832 q 603 853 656 849 q 597 875 597 858 q 603 899 597 893 l 906 899 q 911 875 911 893 q 906 853 911 858 q 841 840 864 849 q 808 807 818 832 q 799 726 799 782 l 799 410 q 783 240 799 317 q 729 106 768 163 q 622 17 690 49 q 446 -14 553 -14 q 335 -1 392 -14 q 229 49 278 13 q 151 151 181 85 q 121 324 121 218 l 121 726 q 112 810 121 785 q 79 844 103 836 q 14 853 56 851 q 8 875 8 858 q 14 899 8 893 q 97 897 54 897 q 179 896 139 896 q 269 897 219 896 q 367 899 318 897 q 372 875 372 893 q 367 853 372 858 q 286 844 314 851 q 249 810 258 836 q 239 726 239 785 z "},"":{"ha":1426,"x_min":35,"x_max":1310,"o":"m 154 607 q 157 610 157 607 q 194 660 176 635 q 229 706 211 685 q 350 812 285 768 q 493 894 415 856 q 463 903 483 903 q 444 906 451 906 q 435 907 438 906 q 359 910 401 907 q 285 914 317 914 l 281 914 q 181 888 219 914 q 121 819 143 861 q 83 729 99 776 q 77 705 81 721 q 68 676 74 689 q 56 664 63 664 q 40 675 44 664 q 35 697 35 686 l 35 710 q 56 842 35 779 q 108 947 78 904 q 194 1033 140 994 q 319 1071 247 1071 q 414 1060 367 1071 q 500 1038 461 1049 q 553 1017 526 1029 q 614 1004 581 1004 q 650 1015 638 1004 q 671 1036 663 1025 q 689 1059 679 1047 q 714 1071 699 1071 l 726 1071 q 735 1064 735 1071 l 735 725 q 763 649 735 672 q 842 625 790 625 q 894 631 868 625 q 939 651 921 636 q 957 692 957 665 l 957 849 q 947 867 957 857 q 923 885 939 875 q 888 894 907 894 q 863 880 869 894 q 849 850 856 865 q 822 835 842 835 q 806 856 806 835 q 806 863 806 858 q 807 868 807 867 q 878 966 843 915 q 950 1064 913 1017 q 957 1071 957 1071 l 983 1071 q 1009 1054 994 1063 q 1035 1039 1024 1046 q 1080 1017 1054 1026 q 1128 996 1106 1007 q 1163 976 1139 990 q 1186 947 1186 961 q 1181 929 1186 939 q 1168 912 1175 921 q 1154 893 1161 903 q 1144 865 1149 885 q 1140 829 1140 844 l 1140 788 q 1140 724 1140 758 q 1139 661 1139 690 l 1139 565 q 1140 501 1139 535 q 1140 439 1140 467 l 1140 353 q 1144 283 1140 317 q 1165 228 1149 250 q 1217 207 1182 207 q 1244 219 1236 207 q 1260 244 1251 232 q 1286 256 1268 256 q 1310 229 1310 256 q 1297 192 1310 211 q 1267 153 1285 172 q 1232 119 1249 135 q 1182 64 1204 94 q 1133 7 1160 33 q 1127 0 1128 1 q 1118 -1 1126 -1 l 1117 -1 q 1097 6 1108 -1 q 1054 31 1075 15 q 1018 63 1033 46 l 988 94 q 976 104 978 101 q 972 137 974 111 q 965 185 969 163 q 953 208 961 208 l 950 208 q 876 155 918 183 q 800 104 833 126 q 778 90 793 97 q 751 76 763 83 q 733 65 738 68 q 715 54 729 63 q 701 45 707 49 q 689 39 694 42 q 642 13 665 26 q 586 -1 619 -1 q 485 7 533 -1 q 392 29 436 15 q 187 177 265 72 q 108 453 108 282 q 124 537 108 493 q 154 607 140 581 m 664 506 q 658 458 664 481 q 642 413 653 435 q 558 291 610 344 q 454 189 506 238 q 508 156 474 164 q 585 149 542 149 l 629 149 q 649 152 635 150 q 676 159 664 154 q 689 169 689 164 l 689 956 q 665 932 676 956 q 649 860 656 904 q 642 779 642 817 q 653 642 642 708 q 664 506 664 576 m 296 483 q 312 354 296 414 q 363 254 328 294 q 379 238 365 253 q 396 222 393 222 l 408 222 q 420 231 411 222 q 438 250 429 240 q 447 261 446 260 q 472 313 464 281 q 481 378 481 344 l 468 385 l 468 579 q 501 739 468 668 q 539 810 518 775 q 585 881 560 846 l 585 894 q 473 824 525 868 q 383 728 421 781 q 322 619 349 681 q 296 483 296 557 m 838 510 q 899 499 869 510 q 957 489 929 489 l 957 594 q 953 600 957 600 q 944 600 949 600 q 895 590 919 600 q 846 579 871 579 q 790 591 815 579 q 735 603 764 603 l 735 496 q 737 488 735 493 q 742 483 739 483 l 744 483 q 750 484 747 483 q 757 486 753 485 q 796 501 775 492 q 838 510 817 510 m 754 182 q 758 183 756 182 q 761 183 760 183 q 790 195 772 189 q 819 208 807 201 q 890 240 854 224 q 950 281 925 256 l 957 294 l 957 383 q 935 445 957 426 q 867 464 913 464 q 817 459 847 464 q 765 443 788 454 q 742 411 742 432 l 742 189 q 745 183 742 183 q 754 182 749 182 z "},"V":{"ha":908,"x_min":0,"x_max":903,"o":"m 622 853 q 617 875 617 858 q 622 899 617 893 q 708 897 665 897 q 774 896 750 896 q 831 897 797 896 q 896 899 865 897 q 903 875 903 892 q 896 853 903 860 q 828 830 853 849 q 788 784 803 811 q 760 724 774 757 l 472 15 q 439 -17 458 -17 q 407 15 419 -17 l 133 726 q 101 801 115 775 q 67 838 88 826 q 8 853 47 850 q 0 878 0 861 q 7 899 0 892 q 78 897 42 897 q 151 896 114 896 q 233 897 189 896 q 319 899 278 897 q 325 875 325 893 q 319 853 325 858 q 252 838 272 847 q 232 806 232 829 q 237 778 232 794 q 249 742 242 763 l 469 176 l 476 176 l 696 733 q 708 769 703 753 q 713 799 713 785 q 692 836 713 822 q 622 853 672 850 z "},"":{"ha":1553,"x_min":22,"x_max":1460,"o":"m 311 88 q 333 86 322 88 q 354 85 344 85 q 474 117 428 85 q 519 221 519 149 q 496 332 519 276 q 444 440 472 386 q 392 550 415 494 q 368 667 368 608 q 376 729 368 700 q 413 816 392 776 q 454 897 433 856 l 442 897 q 403 872 421 883 q 368 851 385 860 q 332 837 351 842 q 288 832 313 832 q 242 843 263 832 q 201 864 221 854 q 163 885 183 874 q 117 897 142 897 q 84 882 92 897 q 74 847 76 867 q 67 815 71 833 q 46 797 63 797 q 24 813 29 797 q 23 833 24 817 q 22 854 22 850 q 25 892 22 874 q 33 928 28 910 q 93 1012 51 976 q 200 1047 135 1047 l 246 1047 q 310 1016 274 1033 q 376 989 346 999 q 401 978 396 981 q 426 975 406 975 q 515 993 479 975 q 585 1033 551 1011 q 661 1075 621 1057 q 758 1093 701 1093 q 789 1089 778 1093 q 800 1065 800 1085 q 786 1044 800 1050 q 754 1038 772 1039 q 722 1033 736 1038 q 657 976 676 1018 q 638 874 638 935 q 639 858 638 868 q 644 832 640 847 q 663 767 651 801 q 685 707 675 733 q 703 675 694 679 q 740 713 725 692 q 781 747 754 735 q 800 748 783 747 q 819 749 817 749 q 913 714 876 749 q 950 622 950 679 l 950 608 q 947 590 950 599 q 933 582 944 582 l 928 582 q 925 583 926 582 q 912 599 918 592 q 899 611 906 606 q 864 622 888 622 q 807 598 833 622 q 781 544 781 574 q 778 494 781 519 q 775 440 775 468 q 753 269 775 346 q 683 140 732 193 q 630 95 664 118 q 578 49 596 72 q 594 42 585 43 q 613 40 603 40 q 756 64 685 40 q 948 178 865 101 q 1083 349 1031 254 q 1138 475 1115 406 q 1160 626 1160 544 q 1128 808 1160 731 q 1029 924 1097 885 q 1013 930 1021 924 q 996 936 1004 936 q 990 939 994 936 q 983 943 985 942 l 979 943 q 911 922 936 943 q 860 871 886 903 q 856 870 858 871 q 853 869 854 869 q 840 878 843 869 q 838 897 838 888 l 838 918 q 853 983 838 953 q 913 1051 872 1024 q 1013 1079 954 1079 q 1088 1065 1061 1079 q 1140 1021 1115 1051 q 1154 996 1151 1006 q 1172 975 1157 986 q 1176 978 1174 975 q 1179 982 1178 981 q 1214 1037 1196 1010 q 1260 1081 1232 1064 q 1332 1099 1289 1099 q 1426 1058 1393 1099 q 1460 958 1460 1018 l 1460 926 q 1455 887 1460 904 q 1429 869 1450 869 q 1415 881 1422 869 q 1390 923 1406 903 q 1343 943 1375 943 q 1274 914 1296 943 q 1244 844 1253 885 q 1241 747 1244 796 q 1238 650 1238 699 q 1202 426 1238 526 q 1106 249 1167 326 q 968 115 1046 172 q 794 24 893 60 q 571 -11 694 -11 l 488 -11 q 433 -9 467 -11 q 365 -1 399 -7 q 308 18 331 6 q 285 51 285 31 q 295 72 285 63 q 311 88 306 82 m 544 808 q 563 688 544 742 q 604 583 581 633 q 646 479 628 533 q 664 358 664 425 q 626 210 664 276 q 546 100 588 144 l 553 100 q 601 128 581 108 q 638 168 622 147 q 693 267 671 210 q 715 396 715 324 q 713 447 715 422 q 706 497 711 472 q 660 647 689 576 q 604 786 632 718 q 594 837 599 818 q 590 890 590 856 q 594 921 590 907 q 599 951 599 935 q 569 933 583 951 q 551 877 557 911 q 544 808 544 843 z "},"W":{"ha":1328,"x_min":0,"x_max":1314,"o":"m 1125 785 q 1129 808 1129 797 q 1099 843 1129 836 q 1033 853 1069 850 q 1028 875 1028 858 q 1033 899 1028 893 q 1117 897 1075 897 q 1186 896 1160 896 q 1245 897 1214 896 q 1307 899 1276 897 q 1314 875 1314 892 q 1307 853 1314 860 q 1226 827 1250 850 q 1188 768 1201 804 l 908 19 q 895 -6 903 4 q 876 -17 888 -17 q 858 -7 864 -17 q 844 21 851 3 l 685 482 q 665 521 671 521 q 656 514 660 521 q 642 486 651 507 l 435 21 q 420 -7 428 3 q 399 -17 413 -17 q 381 -6 388 -17 q 368 21 374 4 l 107 772 q 83 826 94 810 q 56 847 72 842 q 8 853 40 851 q 0 875 0 861 q 8 899 0 890 q 70 897 39 897 q 138 896 101 896 q 221 897 178 896 q 299 899 264 897 q 306 875 306 892 q 299 853 306 860 q 247 845 268 851 q 225 815 225 839 q 229 794 225 807 l 432 181 l 439 179 l 618 586 q 631 635 631 617 q 628 655 631 644 q 621 678 625 665 l 589 769 q 553 824 579 797 q 472 853 528 850 q 467 875 467 858 q 472 899 467 893 q 541 897 506 897 q 611 896 576 896 q 697 897 653 896 q 785 899 742 897 q 792 875 792 892 q 785 853 792 860 q 731 844 756 851 q 706 804 706 836 q 713 769 706 793 l 903 183 l 908 182 l 1125 785 z "},"":{"ha":1471,"x_min":36,"x_max":1382,"o":"m 36 482 q 39 513 36 497 q 47 544 42 529 q 93 624 60 588 q 182 660 126 660 q 226 650 203 660 q 265 631 246 642 q 297 608 283 619 q 308 601 304 603 q 314 599 313 599 q 318 600 318 599 l 326 626 l 326 686 q 315 801 326 746 q 273 891 304 856 q 182 926 242 926 q 131 911 151 926 q 99 874 111 896 q 76 833 88 853 q 51 815 64 815 q 42 816 44 815 q 38 822 40 817 q 37 837 38 824 q 36 851 36 850 q 58 947 36 903 q 106 1018 79 990 q 174 1074 132 1049 q 267 1099 215 1099 q 307 1093 289 1099 q 342 1078 325 1088 q 422 1003 390 1051 q 482 907 454 956 q 489 901 483 901 q 501 907 496 901 l 775 1110 q 785 1124 781 1118 q 801 1129 790 1129 l 808 1129 q 863 1070 843 1099 q 900 996 882 1042 q 912 951 907 978 q 925 907 917 924 q 929 896 928 899 q 939 893 931 893 q 942 894 940 893 q 946 894 944 894 q 978 918 961 906 q 1011 943 994 931 q 1044 971 1026 954 q 1076 996 1063 988 l 1154 1044 q 1172 1060 1161 1051 q 1193 1078 1183 1069 q 1226 1102 1208 1089 q 1258 1129 1244 1115 l 1261 1129 q 1293 1108 1276 1129 q 1338 1017 1321 1072 q 1365 908 1354 961 q 1377 857 1372 883 q 1382 807 1382 831 q 1369 668 1382 726 q 1334 563 1357 610 q 1276 469 1311 515 q 1241 419 1260 447 q 1200 358 1222 390 l 1004 150 q 987 120 996 139 q 965 86 978 101 q 932 71 953 71 q 901 76 914 71 q 852 99 878 86 q 794 111 826 111 q 750 107 775 111 q 705 92 724 104 q 671 63 686 79 q 636 44 657 44 q 600 53 619 44 q 540 83 572 68 q 467 97 508 97 q 309 72 378 97 q 188 0 240 46 l 171 0 q 151 2 161 0 q 142 15 142 4 q 151 44 142 29 q 172 79 160 61 q 196 111 185 97 q 251 215 229 151 q 272 349 272 279 q 238 457 272 411 q 142 503 204 503 q 112 492 124 503 q 92 469 100 481 q 78 449 86 461 q 60 438 71 438 q 39 452 42 438 q 36 482 36 467 m 946 836 l 946 776 q 968 731 946 738 q 1029 724 990 724 l 1038 724 q 1100 729 1065 724 q 1160 750 1135 735 q 1186 793 1186 765 q 1181 838 1186 813 q 1168 882 1175 864 q 1158 910 1164 893 q 1142 940 1151 926 q 1121 953 1133 953 q 1093 947 1107 953 q 1065 932 1079 942 q 1016 894 1040 910 q 965 858 992 878 q 952 849 958 853 q 946 836 946 846 m 507 822 q 508 790 507 804 q 510 765 510 776 q 539 723 510 729 q 610 717 568 717 l 613 717 q 671 722 639 717 q 726 740 703 726 q 750 779 750 754 q 740 828 750 803 q 703 898 726 865 q 651 953 679 931 q 639 947 650 951 q 625 940 628 943 q 569 901 600 924 q 514 861 539 879 q 510 858 513 860 q 508 856 508 857 q 508 839 508 853 q 507 822 507 825 m 1193 710 q 1186 718 1193 715 q 1126 690 1160 701 q 1051 678 1092 678 q 1009 682 1029 678 q 965 686 989 686 l 951 686 q 928 602 946 642 q 910 514 910 563 q 951 522 933 514 q 990 529 968 529 q 1044 524 1026 529 q 1089 510 1063 519 q 1108 497 1100 504 q 1132 489 1117 489 q 1151 507 1144 489 q 1161 535 1157 525 q 1177 613 1167 571 q 1193 692 1188 656 l 1193 710 m 481 493 q 539 504 513 493 q 599 515 565 515 q 670 504 642 515 q 724 469 699 493 l 735 469 q 743 476 742 469 q 758 565 754 518 q 763 663 763 611 l 763 699 q 750 706 760 706 q 729 697 744 706 q 694 678 711 686 q 651 671 676 671 l 628 671 q 581 675 603 671 q 533 679 558 679 q 510 656 521 679 q 495 582 500 626 q 482 503 490 538 q 481 499 482 501 q 481 493 481 496 m 1000 476 q 930 469 956 476 q 888 436 904 463 q 845 369 868 406 q 799 300 822 333 q 767 251 785 278 q 736 208 750 224 l 729 196 l 736 196 q 742 199 736 196 q 763 212 751 206 q 785 225 775 218 q 804 237 793 231 q 821 249 815 243 q 990 289 888 289 q 1010 288 1000 289 q 1031 288 1021 288 q 1056 318 1043 297 q 1079 356 1069 339 q 1099 392 1088 371 q 1110 431 1110 413 q 1090 460 1110 450 q 1045 473 1071 469 q 1000 476 1019 476 m 656 242 q 674 254 665 242 q 689 282 682 267 q 700 306 696 297 q 715 350 707 324 q 724 396 724 376 q 707 432 724 418 q 653 460 686 450 q 583 469 619 469 q 512 452 539 469 q 468 407 485 435 q 438 348 451 379 q 410 288 425 317 q 378 235 396 264 q 344 183 361 206 l 344 168 q 364 175 356 168 q 394 195 379 183 q 424 215 410 207 q 489 243 456 232 q 567 254 522 254 q 612 248 590 254 q 656 242 633 242 z "},"X":{"ha":896,"x_min":3,"x_max":894,"o":"m 747 142 q 797 81 776 101 q 838 53 818 61 q 888 43 858 46 q 894 18 894 36 q 889 -3 894 3 q 823 -1 858 -1 q 747 0 788 0 q 667 -1 706 0 q 589 -3 628 -1 q 583 19 583 3 q 589 43 583 38 q 650 65 650 47 q 642 87 650 74 q 622 118 635 100 l 450 363 q 431 378 439 378 q 410 358 425 378 l 226 101 q 211 69 211 79 q 230 51 211 56 q 281 43 249 46 q 286 19 286 38 q 281 -3 286 3 q 199 -1 239 -1 q 135 0 158 0 q 76 -1 111 0 q 10 -3 42 -1 q 3 19 3 4 q 10 43 3 36 q 93 65 57 47 q 164 129 129 82 l 369 404 q 383 436 383 422 q 378 456 383 447 q 364 478 372 465 l 167 760 q 117 820 138 801 q 75 845 96 839 q 25 853 54 851 q 18 878 18 860 q 24 899 18 893 q 90 897 56 897 q 165 896 125 896 q 246 897 207 896 q 324 899 285 897 q 331 875 331 892 q 324 853 331 860 q 263 831 263 849 q 292 778 263 815 l 444 550 q 461 535 456 535 q 483 551 472 535 l 654 794 q 668 826 668 814 q 650 847 668 842 q 600 853 632 851 q 594 875 594 858 q 600 899 594 893 q 682 897 642 897 q 746 896 722 896 q 805 897 769 896 q 871 899 840 897 q 878 875 878 892 q 871 853 878 860 q 788 831 824 849 q 717 767 753 814 l 526 521 q 515 499 517 508 q 513 479 513 489 q 519 458 513 469 q 535 433 525 447 l 747 142 z "},"":{"ha":847,"x_min":35,"x_max":781,"o":"m 239 449 l 186 449 q 122 446 153 449 q 58 443 92 443 q 42 454 49 443 q 35 475 35 465 q 42 500 35 486 q 63 514 50 514 l 239 514 l 239 599 l 56 599 q 42 612 49 599 q 35 632 35 625 q 42 651 35 639 q 56 664 49 664 l 229 664 q 230 697 229 676 q 231 732 231 717 q 231 767 231 747 q 232 801 232 788 q 230 819 232 804 q 226 835 228 833 q 200 849 215 842 q 174 864 185 857 q 159 876 165 871 q 142 881 153 881 q 117 866 126 881 q 100 840 107 851 q 85 815 94 829 q 60 800 75 800 q 36 824 36 800 q 49 851 36 835 q 83 901 64 875 q 121 946 103 928 q 167 1011 140 976 q 213 1076 193 1046 q 222 1088 219 1085 q 236 1090 225 1090 q 242 1090 239 1090 q 247 1089 246 1089 l 415 958 q 426 951 422 953 q 438 950 429 950 q 442 951 439 950 q 447 951 446 951 q 455 958 450 954 q 467 968 460 961 q 503 1002 483 983 q 539 1036 524 1021 q 556 1059 547 1044 q 576 1086 564 1074 q 603 1099 588 1099 q 610 1094 606 1099 q 624 1086 615 1090 q 699 1029 660 1060 q 769 968 738 999 q 781 957 781 958 q 763 929 781 950 q 698 874 736 903 q 631 821 660 844 q 627 820 629 821 q 624 819 625 819 q 611 822 617 819 q 555 870 586 844 q 500 919 524 896 l 489 919 q 448 894 461 919 q 435 842 435 869 l 435 821 q 438 746 435 786 q 442 671 442 706 l 669 671 q 683 658 681 671 q 685 638 685 646 q 681 613 685 621 q 657 606 676 606 l 442 606 l 442 528 l 454 514 q 550 517 501 514 q 647 521 599 521 l 676 521 l 683 514 l 683 468 l 669 456 l 447 456 l 447 279 q 465 253 447 268 q 507 225 483 239 q 553 201 531 211 q 572 192 564 196 q 588 188 579 188 q 611 199 599 188 q 642 227 626 210 q 671 258 657 244 q 699 272 686 272 q 722 243 722 272 l 722 233 q 608 122 667 175 q 493 11 549 69 q 485 11 493 11 l 476 11 q 432 29 460 11 q 406 50 419 39 q 376 71 392 61 q 318 110 353 89 q 247 131 283 131 q 197 100 219 131 q 153 34 175 71 q 108 -32 132 -3 q 54 -61 86 -61 q 40 -53 44 -61 q 35 -35 35 -44 q 36 -19 35 -25 q 43 -8 38 -14 q 142 115 92 53 q 232 247 192 178 q 244 283 240 263 q 247 328 247 304 l 247 408 q 245 431 247 419 q 239 449 243 442 z "},"Y":{"ha":801,"x_min":0,"x_max":797,"o":"m 468 169 q 478 86 468 113 q 518 53 489 60 q 603 43 547 46 q 608 19 608 38 q 603 -3 608 3 q 501 -1 551 -1 q 410 0 450 0 q 318 -1 369 0 q 215 -3 267 -1 q 208 19 208 4 q 215 43 208 36 q 300 53 271 46 q 340 86 329 60 q 350 169 350 113 l 350 346 q 344 403 350 385 q 321 453 339 422 l 139 760 q 97 819 115 800 q 58 844 78 838 q 8 853 38 851 q 0 878 0 861 q 7 899 0 892 q 74 897 39 897 q 149 896 108 896 q 230 897 190 896 q 307 899 269 897 q 314 875 314 892 q 307 853 314 860 q 254 846 271 851 q 238 825 238 840 q 257 776 238 811 l 418 492 q 435 474 429 474 q 449 489 440 474 l 603 779 q 615 819 615 804 q 598 844 615 838 q 549 853 581 851 q 542 875 542 860 q 549 899 542 892 q 617 897 582 897 q 675 896 651 896 q 730 897 699 896 q 790 899 761 897 q 797 875 797 892 q 790 853 797 860 q 715 833 743 849 q 658 764 688 817 l 492 464 q 472 412 475 433 q 468 358 468 390 l 468 169 z "},"":{"ha":1063,"x_min":31,"x_max":971,"o":"m 494 894 q 538 928 511 906 q 586 960 564 951 l 717 1064 l 719 1064 q 739 1053 724 1064 q 826 985 779 1022 q 911 914 872 949 q 925 901 925 901 q 917 882 925 889 q 900 868 908 875 l 900 836 q 899 787 900 813 q 899 738 899 761 l 899 622 q 902 506 899 563 q 906 392 906 449 q 922 369 906 374 q 955 361 939 365 q 971 338 971 357 q 948 313 971 318 q 906 307 925 307 l 338 143 q 286 124 314 135 q 238 100 258 113 q 195 67 215 88 q 175 15 175 47 q 185 -24 175 -6 q 220 -62 196 -46 q 279 -79 244 -79 q 350 -62 319 -79 q 440 6 403 -37 q 519 86 478 49 q 577 126 544 110 q 654 143 610 143 q 753 110 711 143 q 794 21 794 78 q 792 -7 794 7 q 783 -32 790 -21 q 738 -93 769 -67 q 658 -119 706 -119 q 599 -65 599 -119 q 603 -36 599 -46 q 619 -18 607 -26 l 644 -18 q 672 -23 660 -18 q 700 -28 685 -28 q 731 -13 719 -28 q 743 19 743 1 q 715 72 743 51 q 657 92 688 92 q 613 88 635 92 q 579 72 592 85 l 410 -92 q 385 -110 400 -101 q 358 -125 371 -118 q 330 -137 347 -131 q 299 -144 313 -144 q 228 -131 257 -144 q 149 -68 183 -111 q 115 38 115 -25 q 132 117 115 86 q 174 173 149 149 q 221 222 199 197 q 225 228 222 224 q 228 235 228 233 l 228 411 q 211 431 228 422 q 146 454 183 446 q 76 472 108 463 q 47 483 63 479 q 31 503 31 488 q 60 528 31 522 q 111 533 89 533 q 170 537 136 533 q 221 549 204 540 l 221 597 q 218 622 221 611 q 201 633 215 632 q 128 644 169 639 q 57 660 86 650 q 40 666 49 663 q 31 679 31 669 q 42 698 31 692 q 63 706 53 704 q 93 710 68 707 q 147 719 118 714 q 199 731 176 724 q 221 744 221 738 l 221 817 q 203 849 221 835 q 156 869 185 861 q 99 876 128 876 q 88 876 93 876 q 76 875 82 876 q 70 881 71 876 q 69 892 69 885 q 74 906 69 904 q 80 912 76 908 q 90 921 83 915 q 133 953 107 938 q 175 986 158 969 q 211 1019 190 1001 q 247 1051 232 1036 l 260 1051 q 354 976 303 1013 q 456 907 406 939 q 470 897 464 901 q 489 893 476 893 q 492 894 490 893 q 494 894 493 894 m 528 686 l 531 685 l 533 685 l 664 750 q 687 763 671 761 q 710 776 703 765 l 710 810 q 707 844 710 832 q 693 864 704 856 q 665 885 683 872 q 638 906 646 899 q 606 915 625 915 q 592 913 599 915 q 579 908 586 911 q 544 881 561 899 q 514 849 526 864 l 514 836 q 517 763 514 803 q 521 692 521 724 q 524 688 521 690 q 528 686 526 686 m 424 214 q 454 219 439 214 q 475 235 469 225 l 475 561 q 472 701 475 624 q 468 842 468 779 q 443 862 463 849 q 413 875 424 875 l 410 875 q 406 872 408 874 q 403 868 403 869 l 403 665 q 407 474 403 569 q 411 281 411 378 q 410 252 411 267 q 410 222 410 238 q 424 214 413 214 m 704 718 q 694 715 701 718 q 685 711 688 713 q 615 677 654 697 q 546 642 576 657 l 528 633 l 521 626 l 521 503 l 540 503 l 710 590 l 710 711 q 708 715 710 713 q 704 718 706 718 m 521 399 q 524 324 521 364 q 528 249 528 283 l 533 249 q 569 260 550 256 q 606 272 588 265 q 653 289 628 281 q 698 313 679 297 q 717 358 717 329 l 717 535 l 697 535 l 521 444 l 519 436 l 519 425 q 520 413 519 424 q 521 399 521 401 z "},"Z":{"ha":819,"x_min":57,"x_max":803,"o":"m 765 0 l 83 0 q 57 21 57 0 q 68 53 57 38 q 165 195 111 117 q 280 359 219 274 q 401 527 340 444 q 515 681 461 610 q 608 804 568 753 q 619 829 619 819 q 606 842 619 842 l 313 836 q 192 798 235 835 q 126 689 149 761 q 106 691 115 689 q 85 696 96 693 q 102 795 93 739 q 115 907 111 851 q 188 903 142 906 q 285 898 235 900 q 367 896 335 896 l 674 896 q 734 897 706 896 q 775 899 763 899 q 793 883 793 899 q 788 860 793 872 q 760 821 782 849 q 653 679 711 757 q 535 519 594 601 q 419 357 475 436 q 316 211 363 278 q 239 100 269 144 q 228 72 228 81 q 260 53 228 53 l 263 53 l 531 58 q 649 83 607 60 q 715 147 690 107 q 760 236 739 188 q 785 234 774 236 q 803 229 796 232 q 781 117 790 175 q 765 0 771 58 z "},"":{"ha":1129,"x_min":35,"x_max":1039,"o":"m 385 1075 q 498 1061 446 1075 q 599 1028 550 1047 q 701 996 649 1010 q 814 982 753 982 q 860 993 839 982 q 899 1015 882 1004 q 940 1049 921 1031 q 983 1079 960 1068 l 986 1079 q 1000 1066 997 1079 q 1003 1043 1003 1053 q 992 1006 1003 1022 q 965 979 981 989 q 927 953 944 965 q 892 924 910 942 q 508 528 700 726 q 124 131 315 329 q 120 128 124 131 q 115 125 117 125 q 101 133 104 125 q 101 148 101 135 q 100 163 100 161 l 100 185 q 108 206 100 197 l 722 824 l 722 831 q 695 825 707 826 q 672 824 683 824 l 646 824 q 565 840 603 824 q 488 871 531 856 q 386 901 440 886 q 271 917 332 917 q 201 903 233 917 q 127 842 160 883 q 94 739 94 800 q 116 655 94 694 q 183 615 138 615 q 219 651 219 615 q 213 690 219 672 q 206 728 206 707 q 225 775 206 756 q 283 794 244 794 q 315 788 303 794 q 336 768 326 781 q 349 747 343 760 q 357 706 356 733 q 302 597 357 632 q 174 563 247 563 q 110 579 135 563 q 35 751 35 632 q 53 828 35 788 q 129 941 81 892 q 235 1025 178 990 q 304 1060 267 1044 q 385 1075 342 1075 m 729 0 q 626 13 674 0 q 533 40 578 25 q 441 68 489 56 q 338 81 393 81 q 261 65 297 81 q 209 39 235 56 q 164 0 183 22 q 149 -9 157 -7 q 131 -11 142 -11 q 113 4 117 -11 q 108 32 108 19 l 108 35 q 113 49 110 38 q 129 74 117 61 l 983 949 l 996 949 q 1003 924 1001 935 l 1003 899 q 1000 892 1001 897 q 996 883 999 886 l 796 679 q 782 665 794 678 q 756 639 769 653 q 735 617 743 625 l 318 185 l 331 185 q 388 213 358 200 q 443 236 417 226 q 561 257 497 257 q 682 240 625 257 q 788 200 739 222 q 881 164 838 178 q 906 160 896 160 q 948 176 932 160 q 964 203 964 192 q 950 226 964 217 q 905 258 931 242 q 879 310 879 275 q 899 355 879 335 q 943 375 918 375 q 1014 338 989 375 q 1039 254 1039 301 q 1032 213 1039 229 q 1010 172 1025 197 q 955 108 989 139 q 885 57 921 78 q 813 19 854 39 q 729 0 771 0 z "},"[":{"ha":413,"x_min":88,"x_max":363,"o":"m 88 -278 l 88 1281 l 363 1281 l 363 1254 l 167 1254 l 167 -251 l 363 -251 l 363 -278 l 88 -278 z "},"\\":{"ha":771,"x_min":8,"x_max":626,"o":"m 626 -281 l 550 -281 l 8 1407 l 85 1407 l 626 -281 z "},"]":{"ha":413,"x_min":25,"x_max":300,"o":"m 25 -278 l 25 -251 l 221 -251 l 221 1254 l 25 1254 l 25 1281 l 300 1281 l 300 -278 l 25 -278 z "},"^":{"ha":625,"x_min":108,"x_max":517,"o":"m 311 824 l 169 481 l 108 481 l 283 903 l 342 903 l 517 481 l 456 481 l 311 824 z "},"_":{"ha":521,"x_min":19,"x_max":501,"o":"m 457 133 q 493 113 485 133 q 501 65 501 93 q 493 19 501 38 q 457 0 485 0 l 64 0 q 28 19 36 0 q 19 65 19 38 q 28 113 19 93 q 64 133 36 133 l 457 133 z "},"`":{"ha":272,"x_min":1,"x_max":256,"o":"m 204 703 l 1 993 q 1 996 1 993 q 6 999 1 999 l 100 999 l 254 714 q 256 710 256 713 q 250 703 256 703 l 204 703 z "},"a":{"ha":644,"x_min":33,"x_max":617,"o":"m 164 521 q 169 493 164 499 q 175 468 175 488 q 158 438 175 454 q 108 421 140 421 q 61 471 61 421 q 94 546 61 511 q 180 603 128 581 q 289 625 232 625 q 389 608 340 625 q 469 540 438 590 q 500 390 500 489 l 500 186 q 506 103 500 139 q 542 68 511 68 q 569 76 554 68 q 592 90 585 85 q 610 74 604 83 q 617 53 615 65 q 559 17 594 32 q 483 1 524 1 q 415 26 432 1 q 392 82 399 50 l 389 82 l 361 60 q 280 13 315 25 q 208 1 244 1 q 85 34 136 1 q 33 151 33 67 q 99 275 33 222 q 264 353 164 328 l 383 382 q 389 388 386 383 q 392 399 392 392 q 373 516 392 478 q 328 567 354 554 q 278 579 301 579 q 201 567 239 579 q 164 521 164 554 m 392 339 l 281 310 q 177 247 204 290 q 150 157 150 204 q 174 92 150 125 q 250 58 199 58 q 313 78 279 58 q 372 119 346 97 q 386 134 381 126 q 392 156 392 142 l 392 339 z "},"":{"ha":703,"x_min":32,"x_max":633,"o":"m 53 214 l 53 228 q 49 274 53 250 q 46 319 46 297 q 39 341 42 331 q 32 361 36 351 l 32 365 q 51 391 32 385 q 88 400 71 397 q 122 405 101 403 q 143 421 143 407 l 143 425 q 95 488 113 456 q 78 576 78 521 q 103 639 78 613 q 151 682 128 665 q 208 719 176 701 q 261 757 239 738 q 287 785 275 768 q 322 803 299 803 q 349 796 332 803 q 378 778 364 788 q 403 760 392 768 q 484 721 439 732 q 568 686 529 710 l 568 665 q 560 625 568 642 q 549 588 551 608 l 549 558 q 548 516 549 539 q 547 474 547 493 l 547 410 q 548 367 547 390 q 549 325 549 344 l 549 307 q 550 266 549 289 q 556 228 551 243 q 570 199 556 210 q 596 181 585 189 q 620 163 607 172 q 633 135 633 153 q 617 99 633 122 q 579 54 601 76 q 535 15 557 32 q 501 0 515 0 q 469 18 482 0 q 439 67 457 46 q 403 110 421 88 q 390 124 396 118 q 372 131 383 131 l 365 131 q 288 74 329 108 q 208 15 247 40 q 174 0 188 0 q 140 18 163 0 q 94 60 118 36 q 53 107 71 85 q 38 126 44 118 q 32 138 32 135 q 42 175 32 158 q 53 214 53 192 m 138 556 q 163 483 138 513 q 250 427 194 446 q 372 408 306 408 l 372 556 q 357 571 372 567 q 332 581 339 578 q 308 593 325 585 q 258 616 286 603 q 208 640 229 629 l 203 640 q 176 632 189 640 q 150 601 163 622 q 138 556 138 579 m 208 339 l 215 203 q 224 181 215 193 q 249 153 232 169 q 283 138 265 138 q 314 147 297 138 q 340 163 331 156 q 365 182 351 169 q 379 208 379 194 l 379 228 q 376 283 379 253 q 372 338 372 313 l 372 353 l 365 358 q 310 365 343 358 q 253 372 278 372 q 224 363 239 372 q 208 339 208 353 z "},"b":{"ha":654,"x_min":10,"x_max":633,"o":"m 232 561 q 303 607 264 590 q 388 624 343 624 q 505 590 449 624 q 597 496 561 557 q 633 350 633 435 q 606 202 633 267 q 533 92 578 138 q 433 24 488 47 q 326 0 379 0 q 258 7 289 0 q 204 35 228 14 q 186 43 192 43 q 165 31 178 43 q 149 13 158 21 q 133 -3 140 4 q 115 1 121 -3 q 103 14 108 6 q 107 51 106 29 q 108 113 108 72 l 108 790 q 101 872 108 849 q 75 899 94 894 q 19 904 56 903 q 12 918 14 908 q 10 936 10 928 q 11 946 10 943 q 78 955 39 949 q 153 969 117 961 q 206 983 189 976 q 224 969 224 983 q 221 931 224 969 q 218 824 218 892 l 218 568 q 232 561 218 549 m 242 518 q 218 460 218 499 l 218 113 q 263 67 239 86 q 318 47 286 47 q 428 84 385 47 q 492 183 471 121 q 514 325 514 246 q 493 447 514 393 q 438 531 472 500 q 360 563 403 563 q 299 552 329 563 q 242 518 269 542 z "},"":{"ha":713,"x_min":33,"x_max":649,"o":"m 622 254 q 635 219 622 235 q 649 183 649 203 q 640 167 649 174 q 622 157 631 160 q 472 91 539 126 q 342 0 404 56 l 325 0 q 308 1 317 0 q 288 8 299 3 q 247 30 267 18 q 207 53 226 42 q 176 69 189 64 q 143 81 164 74 q 112 90 132 85 q 76 103 92 94 q 60 126 60 113 q 71 153 60 146 q 88 176 82 161 q 91 192 89 179 q 94 208 93 206 q 97 287 94 244 q 100 365 100 329 q 94 622 100 497 q 75 868 88 746 q 66 899 72 883 q 53 926 60 914 q 40 954 47 939 q 33 986 33 969 l 33 999 q 37 1009 33 1007 q 51 1011 40 1011 q 69 1009 65 1011 q 81 999 72 1007 l 140 940 q 179 981 160 963 q 222 1017 199 1000 q 325 1051 268 1051 q 390 1035 361 1051 q 419 983 419 1019 q 381 991 397 983 q 342 999 364 999 q 314 990 326 999 q 283 953 296 978 q 271 901 271 929 l 271 654 q 300 667 290 654 q 318 689 310 679 q 348 722 333 706 q 376 754 363 739 q 387 763 385 761 q 397 772 389 765 q 421 796 410 786 l 440 796 q 444 793 442 794 q 451 789 446 792 q 508 750 476 771 q 571 718 539 729 q 599 708 582 713 q 628 697 615 704 q 642 672 642 689 q 632 649 642 657 q 617 626 621 642 l 617 611 q 616 589 617 601 q 615 565 615 576 l 615 511 q 619 381 615 444 q 622 254 622 317 m 446 164 l 446 222 q 443 382 446 299 q 440 542 440 465 q 422 576 440 567 q 386 594 403 586 q 357 606 374 601 q 329 619 340 611 l 318 619 q 290 608 300 619 q 271 588 279 597 l 271 571 q 270 541 271 557 q 269 511 269 525 l 269 468 q 270 440 269 456 q 271 411 271 424 l 271 399 q 273 328 271 367 q 275 260 275 290 l 275 242 l 296 222 l 426 157 l 428 157 q 433 156 429 156 q 446 164 443 156 z "},"c":{"ha":565,"x_min":44,"x_max":547,"o":"m 547 140 q 439 28 496 56 q 319 0 382 0 q 117 84 189 0 q 44 303 44 168 q 87 474 44 401 q 195 585 129 546 q 331 624 261 624 q 486 586 431 624 q 542 492 542 549 q 519 445 542 460 q 475 431 496 431 q 438 442 453 431 q 422 481 422 453 q 403 547 422 517 q 322 578 385 578 q 209 513 254 578 q 164 333 164 449 q 190 193 164 253 q 258 101 215 133 q 350 68 300 68 q 517 160 446 68 q 547 140 539 160 z "},"":{"ha":544,"x_min":25,"x_max":489,"o":"m 372 149 q 406 159 393 149 q 431 179 418 169 q 463 189 443 189 q 481 186 478 189 q 483 168 483 183 q 480 149 483 154 q 464 138 476 144 q 449 127 458 133 q 424 113 439 121 q 342 61 386 89 q 261 13 297 33 q 247 3 253 7 q 228 0 240 0 q 204 11 221 0 q 163 40 186 24 q 119 71 139 57 q 85 94 99 88 q 49 113 72 101 q 32 122 39 118 q 25 138 25 126 q 32 154 25 140 q 56 194 43 172 q 72 242 68 217 l 72 486 q 69 538 72 510 q 50 576 65 565 q 38 606 38 589 q 47 627 38 622 q 68 633 56 632 q 92 640 81 635 q 189 690 142 663 q 268 757 236 717 q 283 785 275 767 q 307 803 292 803 q 338 786 308 803 q 401 749 365 771 q 463 708 436 728 q 489 682 489 690 q 481 653 489 681 q 459 599 471 628 q 436 546 447 569 q 421 521 424 521 l 418 522 q 356 564 388 544 q 293 603 325 583 q 285 608 288 607 q 276 614 283 610 q 265 621 269 618 q 254 626 261 624 l 243 626 q 242 588 243 615 q 242 549 242 561 q 240 535 242 536 l 240 244 q 240 228 240 236 q 242 215 240 221 q 267 194 249 206 q 299 176 285 183 q 334 159 314 169 q 372 149 354 149 z "},"d":{"ha":704,"x_min":43,"x_max":686,"o":"m 454 86 q 361 22 403 44 q 279 0 319 0 q 151 38 204 0 q 71 144 99 76 q 43 296 43 211 q 69 435 43 374 q 139 540 94 496 q 230 602 181 581 q 347 624 279 624 q 394 618 371 624 q 435 606 418 613 q 456 600 453 600 q 468 613 468 600 l 468 790 q 462 869 468 846 q 438 899 456 893 q 389 904 421 904 l 379 904 q 369 935 369 914 q 370 941 369 938 q 371 946 371 944 q 438 952 399 946 q 513 967 476 958 q 565 983 549 976 q 583 969 583 983 q 581 931 583 969 q 578 824 578 892 l 578 194 q 595 118 578 143 q 679 93 613 93 q 686 74 686 86 q 679 56 686 63 q 577 34 615 49 q 515 0 539 19 q 503 -3 511 -3 q 489 0 494 -3 q 483 28 489 0 q 474 82 476 56 q 467 90 474 89 q 454 86 460 90 m 468 186 l 468 450 q 464 495 468 482 q 444 525 460 508 q 397 562 424 549 q 332 575 369 575 q 273 565 311 575 q 203 506 235 554 q 175 440 188 483 q 163 321 163 396 q 185 178 163 235 q 243 93 208 121 q 315 65 278 65 q 446 132 369 65 q 465 156 461 144 q 468 186 468 167 z "},"":{"ha":704,"x_min":33,"x_max":642,"o":"m 72 143 q 83 183 72 167 q 93 222 93 199 l 93 489 q 85 550 93 519 q 78 611 78 581 q 97 641 78 636 q 132 653 115 646 l 210 692 q 213 694 211 692 q 217 699 215 697 l 217 706 q 169 726 194 714 q 122 747 143 738 q 63 778 93 758 q 33 836 33 797 q 40 882 33 857 q 53 926 46 907 q 72 970 60 944 q 106 996 83 996 q 126 980 119 996 q 133 953 132 964 q 142 935 136 940 q 160 922 147 929 q 222 889 192 904 q 288 857 253 874 q 390 810 340 832 q 497 771 440 789 q 501 769 500 769 q 511 764 503 768 q 540 751 524 758 q 569 738 557 744 q 598 728 581 732 q 628 716 615 724 q 642 692 642 708 l 642 686 q 632 666 640 683 q 621 646 624 649 l 621 235 q 631 201 628 213 q 635 164 635 189 l 635 143 q 621 138 629 138 q 531 110 574 122 q 447 72 488 99 q 417 51 433 63 q 389 29 401 40 q 368 10 381 21 q 340 0 356 0 q 321 7 329 0 q 206 79 261 51 q 74 131 151 107 q 73 138 74 133 q 72 143 72 142 m 269 494 l 269 476 q 272 372 269 429 q 275 268 275 314 q 274 264 275 267 q 275 261 274 261 q 282 255 276 260 q 289 249 288 250 l 425 176 l 439 176 l 439 581 l 432 607 q 384 624 406 614 q 338 644 363 635 q 308 658 326 651 q 282 672 290 665 l 269 665 l 269 657 q 269 635 269 647 q 268 611 268 622 l 268 564 q 269 529 268 549 q 269 494 269 510 z "},"e":{"ha":608,"x_min":49,"x_max":563,"o":"m 326 0 q 120 82 192 0 q 49 294 49 164 q 74 435 49 374 q 142 537 100 496 q 232 599 183 578 q 326 621 281 621 q 474 585 424 621 q 542 493 524 549 q 561 379 561 438 q 535 356 561 356 l 165 358 q 177 251 165 299 q 210 168 189 203 q 283 92 242 115 q 361 68 324 68 q 458 86 422 68 q 533 143 494 104 q 563 121 557 142 q 463 33 521 67 q 326 0 406 0 m 169 406 l 421 410 q 442 429 442 410 q 424 519 442 488 q 379 563 406 551 q 326 575 353 575 q 292 570 314 575 q 245 549 269 565 q 200 499 221 533 q 169 406 179 464 z "},"":{"ha":608,"x_min":31,"x_max":554,"o":"m 64 529 q 49 570 61 550 q 36 613 36 590 q 58 644 36 638 q 97 660 79 651 q 219 723 163 685 q 318 810 275 761 l 332 810 l 351 803 q 389 769 367 788 q 429 738 411 751 l 468 711 q 474 708 471 710 q 483 700 478 706 q 515 677 497 690 q 547 653 533 664 q 552 649 550 651 q 554 642 554 647 l 554 636 q 547 614 554 621 l 247 314 l 247 217 q 314 197 281 207 q 381 175 347 186 l 386 175 l 501 215 q 528 189 528 215 q 524 174 528 181 q 514 161 521 168 q 452 119 488 136 q 388 83 417 103 q 343 56 368 71 q 299 26 318 40 q 247 0 285 0 q 217 13 233 0 q 194 33 201 25 l 44 104 q 33 115 35 110 q 31 132 31 119 l 31 135 q 44 169 31 154 q 64 208 60 185 l 64 529 m 240 640 l 240 389 q 261 401 247 389 q 279 418 275 414 q 284 423 282 421 q 294 433 286 425 q 328 464 308 447 q 358 496 347 481 q 372 513 361 499 q 383 529 383 526 l 378 542 l 267 646 q 253 653 260 653 q 246 647 251 651 q 240 640 240 643 z "},"f":{"ha":539,"x_min":24,"x_max":542,"o":"m 236 169 q 242 87 236 113 q 274 53 249 61 q 353 43 299 46 q 360 19 360 36 q 353 -3 360 4 q 270 -1 317 -1 q 182 0 224 0 q 103 -1 140 0 q 29 -3 65 -1 q 24 19 24 3 q 29 43 24 38 q 88 53 67 46 q 118 87 110 61 q 126 169 126 113 l 126 542 l 31 542 q 24 550 24 542 l 24 568 q 31 586 24 576 q 56 596 38 596 l 126 596 l 126 651 q 164 831 126 760 q 258 935 201 901 q 372 969 314 969 q 442 965 413 969 q 497 940 471 960 q 542 869 542 907 q 522 831 542 849 q 485 813 503 813 q 450 826 463 813 q 429 857 438 839 q 397 908 415 893 q 346 922 378 922 q 298 905 324 922 q 254 835 272 888 q 236 675 236 782 l 236 596 l 386 596 q 397 588 397 596 l 397 560 q 386 546 397 550 q 365 542 375 542 l 236 542 l 236 169 z "},"":{"ha":539,"x_min":22,"x_max":488,"o":"m 232 0 l 219 0 q 160 45 194 19 q 101 92 126 71 q 65 110 88 101 q 42 143 42 118 q 50 163 42 157 q 75 180 61 172 q 89 208 89 188 l 89 549 l 36 549 q 24 556 26 549 q 22 571 22 563 q 23 576 22 572 q 24 581 24 579 q 48 606 35 592 q 69 633 61 621 q 76 647 71 636 q 82 660 82 657 l 82 836 q 88 843 82 839 q 104 856 94 850 q 121 868 114 861 q 176 916 144 888 q 226 967 208 944 q 240 990 233 975 q 253 1015 247 1006 q 270 1039 260 1026 q 294 1051 281 1051 q 334 1034 314 1051 q 363 1006 354 1017 l 481 933 q 488 925 488 929 l 488 917 q 475 879 488 904 q 450 831 465 856 q 419 788 435 807 q 396 769 401 769 q 357 785 372 769 q 331 815 342 801 q 304 844 319 829 q 265 860 289 860 l 265 686 l 422 686 l 422 556 l 278 556 l 265 542 l 265 222 q 271 208 265 213 q 325 168 297 188 q 363 143 353 149 q 407 159 388 146 q 453 172 426 172 q 431 119 453 144 q 378 80 408 97 q 318 50 349 63 q 281 32 293 40 q 251 13 268 24 q 242 5 249 10 q 232 0 235 0 z "},"":{"ha":1081,"x_min":31,"x_max":1029,"o":"m 131 169 l 131 542 l 38 542 q 31 550 31 542 l 31 568 q 38 588 31 576 q 63 599 44 599 l 131 599 l 131 656 q 157 797 131 738 q 225 894 183 856 q 315 951 267 932 q 407 969 364 969 q 472 961 443 969 q 522 938 500 953 q 560 949 536 940 q 601 969 585 958 q 618 956 618 969 q 616 917 618 956 q 614 810 614 878 l 614 554 q 628 547 614 533 q 699 593 660 576 q 783 610 739 610 q 901 576 844 610 q 993 482 957 543 q 1029 336 1029 421 q 1001 188 1029 253 q 928 78 974 124 q 829 10 883 33 q 722 -14 775 -14 q 655 -6 686 -14 q 600 21 624 1 q 582 29 590 29 q 563 17 574 29 q 545 -1 554 7 q 529 -17 536 -10 q 510 -12 517 -17 q 499 0 504 -8 q 503 37 503 21 q 504 85 504 53 l 504 776 q 504 799 504 782 q 503 821 504 817 q 472 844 482 828 q 453 880 463 861 q 429 912 444 899 q 381 925 414 925 q 340 916 364 925 q 294 882 317 907 q 256 808 271 857 q 240 679 240 760 l 240 599 l 390 599 q 401 588 401 599 l 401 560 q 390 546 401 550 q 369 542 379 542 l 240 542 l 240 169 q 248 85 240 113 q 279 51 256 58 q 350 43 303 43 q 356 19 356 38 q 350 0 356 6 l 40 0 q 33 19 33 7 q 40 43 33 36 q 97 51 78 43 q 124 85 117 58 q 131 169 131 113 m 638 504 q 614 446 614 485 l 614 99 q 658 53 635 72 q 714 33 682 33 q 824 70 781 33 q 888 169 867 107 q 910 311 910 232 q 889 433 910 379 q 833 517 868 486 q 756 549 799 549 q 695 538 725 549 q 638 504 665 528 z "}}}
